<svg id="Layer_1" data-name="Layer 1" xmlns="http://www.w3.org/2000/svg" viewBox="0 0 799 515.4"><defs><style>.cls-1{fill:#e7311c;}.cls-2{fill:#231815;}.cls-3,.cls-49,.cls-50,.cls-51,.cls-52,.cls-6{fill:#fff;}.cls-4{fill:#c34f41;}.cls-5{fill:#c7907d;}.cls-6{stroke:#18463f;}.cls-30,.cls-33,.cls-34,.cls-39,.cls-6{stroke-miterlimit:10;}.cls-7{fill:#0d6064;}.cls-8{fill:#0e6063;}.cls-23,.cls-24,.cls-31,.cls-33,.cls-34,.cls-38,.cls-39,.cls-42,.cls-44,.cls-9{fill:none;}.cls-9{stroke:#1a4740;}.cls-23,.cls-24,.cls-31,.cls-42,.cls-44,.cls-49,.cls-51,.cls-52,.cls-9{stroke-linecap:round;stroke-linejoin:round;}.cls-10{fill:#2e754b;}.cls-11{fill:#4aa35a;}.cls-12{fill:#4da068;}.cls-13{fill:#8c5881;}.cls-14{fill:#64415f;}.cls-15{fill:#88b061;}.cls-16{fill:#7da057;}.cls-17{fill:#eac532;}.cls-18{fill:#e1783a;}.cls-19{fill:#60a55b;}.cls-20{fill:#d55f35;}.cls-21{fill:#94be69;}.cls-22{fill:#ecbb9e;}.cls-23{stroke:#845b3d;}.cls-24{stroke:#66371a;}.cls-25{fill:#933d23;}.cls-26{fill:#994324;}.cls-27{fill:#d0574d;}.cls-28{fill:#161f0b;}.cls-29{fill:#e1b786;}.cls-30{fill:#944224;}.cls-30,.cls-31{stroke:#dcb484;}.cls-30,.cls-44,.cls-51{stroke-width:0.5px;}.cls-31,.cls-42{stroke-width:0.75px;}.cls-32{fill:#6da7bc;}.cls-33,.cls-34{stroke:#2c8989;}.cls-34{stroke-dasharray:7.59 7.59;}.cls-35{fill:#90ba5f;}.cls-36{fill:#dea574;}.cls-37{fill:#c6875d;}.cls-39{stroke:#231815;}.cls-40{fill:#ecebe8;}.cls-41{fill:#be363e;}.cls-42{stroke:#a7a7a3;}.cls-43{fill:#61a558;}.cls-44{stroke:#a73b24;}.cls-45{fill:#5b8134;}.cls-46{fill:#769a50;}.cls-47{fill:#f1d67f;}.cls-48{fill:#52a6ba;}.cls-49{font-size:66.93px;font-family:OTTtangsbudaejjigaeB-KSCpc-EUC-H, Ttangsbudaejjigae OTF;font-weight:700;}.cls-49,.cls-51,.cls-52{stroke:#0d525d;}.cls-49,.cls-52{stroke-width:2px;}.cls-50{font-size:16.11px;font-family:EF_Diary, EF_Diary;}</style></defs><title>sub_main_banner_character_img</title><path class="cls-1" d="M107.5,292.2l-1.2.6c-.3.1,0,.4.2.3a5.3,5.3,0,0,1,3-.7,2.8,2.8,0,0,1,2.8,2.9c.3,3.5-2.2,4.2-4.8,4.2s-4.2-1.4-4.6-3.7a49.6,49.6,0,0,1,.1-10.2c.2-1.6.9-2.1,2.3-2.1s2.2.5,2.3,2.1A28.2,28.2,0,0,1,107.5,292.2Z"/><path class="cls-1" d="M119.1,299.5c0-.8.1-3.7.1-6.5H117v5.9c-.1,1.6-.9,2.6-2.1,2.6s-1.7-.9-1.7-2.6c0-4.4.2-9.4-.1-13.8,0-1.4.7-2.6,1.7-2.6s2,.4,2.1,2.7.1,2.6.1,4.4h2.2c0-1.8-.1-3.6-.2-4.8s.6-2.7,1.7-2.7,2,.5,2,2.9.2,10.7.1,14.5c-.1,1.6-.9,2.6-2,2.6S119,301.1,119.1,299.5Z"/><path class="cls-1" d="M126,296.9c-.1-3.9-.2-6.9-.1-11.7,0-1.1.6-1.6,2-1.7s5.7-.1,8.3,0,1.9.6,2,2.2c.1,3.6,0,7.3,0,11.2-.1,1.6-.7,2.2-2.9,2.3a34.2,34.2,0,0,1-6.4,0C126.6,299.1,126,298.5,126,296.9Zm3.7-2c0,.7.2.8.9.9h2.9c.8-.1.9-.2.9-.9a69.8,69.8,0,0,0-.1-7.8c0-.4-.1-.5-.5-.5s-2.7,0-3.6,0-.5.1-.5.5Zm13.4-12.8c1.1,0,2.1.6,2.3,3s.2,10.5.1,14.2c-.1,1.7-.7,2.7-2,2.7s-2-1-1.9-2.7c.1-4.4.1-10.3,0-12.6a19.3,19.3,0,0,1-.1-2.5C141.4,282.8,141.9,282.1,143.1,282.1Z"/><path class="cls-1" d="M84.2,295.4c1.6-.2,2.7.1,3.4,1.1a2.5,2.5,0,0,1-.4,3.1c-.3.2-.1.6.2.3,2.1-1.6,4.8-3.5,7.8-3.5,1.4,0,2.7.6,2.9,2.1s-.7,2.7-3,3a54,54,0,0,1-10,.1c-2.3-.1-3.5-1.1-3.5-2.8A3.2,3.2,0,0,1,84.2,295.4Z"/><path class="cls-1" d="M79,292.8c0-.8.5-1.7,2.1-1.7s4.2.8,6.8.8v-1.8h-3c-3-.1-3.2-.8-3.3-2.6a25.4,25.4,0,0,1,0-3.9c.1-1.1.7-1.7,2-1.7,4.2-.1,8.6-.2,12.4,0,1.3,0,1.9.6,2,1.7s.1,2.5.1,3.9-.4,2.4-2.4,2.5l-3.7.2v1.8c2.6-.1,5-.8,6.4-.8s2.2.8,2.2,1.7-.7,1.5-1.9,1.7c-7.8,1.3-9.7,1.3-17.5,0C79.7,294.3,79,293.9,79,292.8Zm6.9-5.9c2.2.1,5.4.1,7.8,0,.5,0,.6-.2.6-.5v-1c0-.4-.1-.5-.5-.5H85.9c-.5,0-.6.1-.6.5v1C85.3,286.8,85.4,286.9,85.9,286.9Z"/><path class="cls-2" d="M88.3,285.5l11.7-4.9c.2-.1.4.2.2.3l-8.6,8h-.3l-3.2-1.8c0-.1-.1-.1-.2,0l-2.2,1.6h-.3l-5.2-5.5c-.1-.1,0-.4.2-.3l7.7,2.7Z"/><polygon class="cls-3" points="90.8 288.4 99.5 280.9 97.9 281.7 90.4 288.2 90.8 288.4"/><path class="cls-4" d="M113.3,75.7S88.7,71.5,86.8,87.1c0,0-13,.2-10,20.9,0,0-26.8,23.3,9.2,33.8s84.4-8.5,84.4-8.5,24.4-12,9.2-26.3c0,0,5.8-8.1-8.8-15.5,0,0,4.8-12.9-8.5-16.3S113.3,75.7,113.3,75.7Z"/><path class="cls-5" d="M110.9,95.9s1.8,22.2-5.6,27.4c0,0,21.5,24.2,45.8,0,0,0-9.5-9.9-7.1-27.4S110.9,95.9,110.9,95.9Z"/><path class="cls-6" d="M103.5,117.1s9,13.8,24.7,12.9c0,0,21.1,1.6,24.4-15.3,0,0,71,8.3,88.2,36.8L271.6,241s-44.5-1.6-61.8,19.4l-25.5-10.2-.6-62.7-111.9,55-7.3,21.8S25.4,243.1,5.8,251.1c0,0,10.4-89.4,21.5-97.7C27.3,153.4,62.3,124,103.5,117.1Z"/><path class="cls-7" d="M172.7,118.2c.1,8,.8,39.7-.9,53.2l26.8,2.3-3.3-50.3a2.6,2.6,0,0,0-2-2.4l-18.9-4.2A1.4,1.4,0,0,0,172.7,118.2Z"/><path class="cls-7" d="M95.4,118.4v52.7H72.8l-.7-46.2a1.5,1.5,0,0,1,1-1.6c3.3-1.6,13.9-6.5,20.1-7A2,2,0,0,1,95.4,118.4Z"/><path class="cls-8" d="M68.4,170.1,200.2,172a3.6,3.6,0,0,1,3.6,3.9c-.8,13.8-2.3,60.5,15.2,65.5l5.6,5.6a4.7,4.7,0,0,1,2.4,4.3c-.9,8,.2,31.8,1.7,39.7,1.8,9.5,22.4,107.5,13.8,223.6H34.8S31.5,337,50.8,301c0,0,7-32.8,7-52.9l-2.4-10.3a4.8,4.8,0,0,1,3.1-5.5l6.2-2.2s-4.4-41.5-.3-57A4.2,4.2,0,0,1,68.4,170.1Z"/><path class="cls-9" d="M102.3,129.9s10,9,27.4,8.2c0,0,16.8-.6,27.9-9.4"/><path class="cls-9" d="M212,173.3s2.9-19.2,17.9-24.1"/><path class="cls-9" d="M40.6,152.7s20.9,9.2,24.6,23.3"/><path class="cls-10" d="M14.1,134.2s17,3.7,33,59.2,8.2,39.8,8.2,39.8l-9.9-7.8S30.3,156.2,14.1,134.2Z"/><path class="cls-11" d="M.4,125l2.4-4.2a2.2,2.2,0,0,1,3.8,0l9.5,16.3a46.8,46.8,0,0,1,2.7,5.5c5.3,13,26.8,66.6,26.6,85.7l-6.1-7S14.8,141.9.9,128.4A2.7,2.7,0,0,1,.4,125Z"/><path class="cls-12" d="M21.4,126.9l-.9-13.8a.9.9,0,0,1,1.6-.6c4.9,7.8,18,29.7,22.3,48.6C49.8,184.4,51,193,51,193s-21.5-54-28.7-63.6A4.5,4.5,0,0,1,21.4,126.9Z"/><path class="cls-10" d="M33.2,136.2a2.3,2.3,0,0,1,3-2.9c3.3,1.2,7.5,4.8,8.2,15.3,1.2,17.7-1.4,19-1.4,19l-9.5-30.7Z"/><path class="cls-13" d="M53.6,228.8s-7-25,6.1-42c0,0,2-2.1.7-10.1a1.3,1.3,0,0,1,2.1-1.3c8.6,6.2,33,26.6,22.8,50.1C73,253.8,53.6,228.8,53.6,228.8Z"/><path class="cls-14" d="M85.9,233.1s-13.7-24.3-1.8-40.5c5.5-7.5,6.7-11.9,6.9-14a.6.6,0,0,1,1.1-.4c5.9,6.1,30.5,33.5,18.3,54.9C96.6,257.3,85.9,233.1,85.9,233.1Z"/><path class="cls-15" d="M86.4,228.8s-6.8-35.3,26.8-35.2,19.2,40.3,19.2,40.3Z"/><path class="cls-16" d="M104.4,225.1s9.2-6.3,3.9-14.4a1.6,1.6,0,0,0-1.8-.6c-2.6,1.1-9.3,2.9-7.2-6.5,0,0-1.6-4.2.8-7.7,0,0-9.1,1.4-14.5,18.5,0,0-3.4,13.3,4.6,15.6s12.1-3.1,12.1-3.1Z"/><path class="cls-17" d="M123.8,225.6l2.1-24.6a12.1,12.1,0,0,1,2.9-7c1.9-2,4.6-3.7,8.4-2.6,0,0,4,.9,5.1,2.5a.5.5,0,0,0,.8,0c1.2-2.2,4.8-6.7,11.6-2.9s5.5,6.4,4.5,7.6,0,.4.2.3c2.3-.8,8-1.5,10.5,8.7,3.3,13-7.2,24.2-7.2,24.2Z"/><path class="cls-18" d="M164.5,211.1a11.6,11.6,0,0,1,10.1-10.9h.3a21.8,21.8,0,0,1,4.5-.1s26.4-3.4,13.7,28.5-20.2,0-20.2,0l-9.2-3.5Z"/><path class="cls-19" d="M173.2,184l1.1-.4a.9.9,0,0,1,1.3.8l2.2,15.6-3.6.3-2.1-14.4A1.8,1.8,0,0,1,173.2,184Z"/><path class="cls-20" d="M190.7,207.6s0-23.4,20.1-20.5c0,0,27.6,2.9,7.8,30.4s-23.4,6.7-23.4,6.7-9.1-2.5-9.2-2.8S190.7,207.6,190.7,207.6Z"/><path class="cls-21" d="M208,186.2l-.9-13.4a2,2,0,0,1,1.9-2.1h.7a2.2,2.2,0,0,1,2.2,2.2v11.2s4-8.8,4.7-12.6a1.7,1.7,0,0,1,1.6-1.3h2.9a1.3,1.3,0,0,1,1.1,1.8l-6.5,13.1,9.1-8.3a2,2,0,0,1,2.1-.3l2.1,1a1.7,1.7,0,0,1,.3,2.9l-11.8,9.5a3,3,0,0,1-2.4.5l-4.2-.9a4,4,0,0,1-2.9-3.3Z"/><path class="cls-22" d="M160.6,67.4a5.3,5.3,0,0,0-3.3-.4v-.5c0-20.5-13.1-37-29.2-37S98.8,46,98.8,66.5v.4a4.3,4.3,0,0,0-1.6.5c-3.4,1.6-4.3,6.6-2,11.2s4.5,5.6,7.3,5.9c5,11.3,14.6,19,25.6,19s20.6-7.7,25.6-19.1c3.1.7,7-1.7,8.9-5.8S164,69,160.6,67.4Z"/><path class="cls-23" d="M126.2,68.1s-7,12.7.4,13.6"/><path class="cls-24" d="M109.9,62.8s3.2-5.6,9.7.4"/><path class="cls-24" d="M142.4,62.8s-3.2-5.6-9.7.4"/><path class="cls-25" d="M123.1,87.4s-2.1,3.4,6.9,3.7c0,0,6.3-.6,6.2-5.8L123,87Z"/><path class="cls-24" d="M120.7,84.8s-2.3,2.4,1.6,2.4a29.1,29.1,0,0,0,4.8-.6l9.1-1.6c.3-.1.6.3.5.7-1,2-4,6.8-9.1,5.6s-5-3.4-5-3.4"/><path class="cls-26" d="M95.4,67.4s-10.8-2-6.8-26.3c0,0,2.3-29.2,38-26.6,26.2,1.8,37.9,20.6,33.9,37.5,0,0-1.2,11.8-18.1-7.2L116.8,31.6,101.4,46Z"/><circle class="cls-27" cx="110.4" cy="75.7" r="6.8"/><circle class="cls-27" cx="142.4" cy="75.7" r="6.8"/><circle class="cls-28" cx="114.7" cy="69.5" r="2"/><circle class="cls-28" cx="137.5" cy="69.5" r="2"/><path class="cls-29" d="M99.6,21.4c.6,5.2,2.2,15.7,5.7,21.1l2-1.9c-3.6-5.6-5.3-15-6-20.5Z"/><path class="cls-29" d="M96.6,24.1a30.4,30.4,0,0,0-6.7,11.7c0,4.8,2.1,10.5,10.7,13.3l.8-3,1.9-1.8A29.6,29.6,0,0,1,96.6,24.1Z"/><path class="cls-29" d="M88.9,39.8a7.2,7.2,0,0,0-.2,1.4,40,40,0,0,0-.6,4.5c1.2,5,3.8,12.1,9.8,13.1l2.2-7.8a19.2,19.2,0,0,1-5.4-2.3C90.9,46.6,89.5,42.6,88.9,39.8Z"/><path class="cls-29" d="M114.7,15c-.9,4.6-2.5,13.9-2.1,20.7l4.3-4c.3-5.6,1.2-13.1,3.1-17.2A41.5,41.5,0,0,0,114.7,15Z"/><path class="cls-29" d="M154.9,27.7a32.5,32.5,0,0,0-4.1-4.2c-7,3.4-15,11.3-19.1,15.8l5.3,2.8C141.1,36.9,150.3,30.6,154.9,27.7Z"/><path class="cls-29" d="M113.6,15.2l-2.6.6c-1.2,6.3-.1,15.9.6,20.9l.7-.7C111.5,30.2,112.9,20.1,113.6,15.2Z"/><path class="cls-29" d="M133.2,15.5l-2.7-.5c-4,4.3-7.4,14.3-8.9,19.2l1.6.8C124.6,30.6,128.5,19.1,133.2,15.5Z"/><path class="cls-29" d="M140.2,17.4c-3.3,3.2-12.4,12.4-15.2,18.5l4.1,2.1c4.1-5.9,12.9-12.7,18.6-16.8A35.2,35.2,0,0,0,140.2,17.4Z"/><path class="cls-29" d="M156.2,29.4c-5.8,1.9-15.5,11.2-17.8,13.4l1.1.6c2.9-2.7,12.1-11,17.5-12.9A10.5,10.5,0,0,0,156.2,29.4Z"/><path class="cls-29" d="M157.6,31.7c-5.2,1.7-14.2,9.5-17.1,12.2l.9.5c2.6-2.3,11-9.4,16.9-11.5A7.5,7.5,0,0,0,157.6,31.7Z"/><path class="cls-4" d="M117.2,41.1c1.2,3.9,4.1,9,13.8,13a.3.3,0,0,0,.3-.6c-3.7-2.7-5.2-3.5-9.3-12.2,0,0-.8,6.7,29.5,14.7a6.9,6.9,0,0,1,4.3,3.5c1.2,2.3,2,6.1,0,11.7a.5.5,0,0,0,.8.6c1.9-1.5,5-5.2,3.5-13.1,0,0-4.4-26-30.1-33.6a20,20,0,0,0-14.2,1.3c-8.4,4.1-20.8,13.9-22,36-.3,4.7,2.6,9.5,5.5,13.2,0,.1.4,0,.4,0s.9-.1.9-.2c-.7-2-2.9-7.1-.6-13.3a13.6,13.6,0,0,1,5.5-6.8c3.3-2.1,7.4-5.6,9.6-14.2A1.1,1.1,0,0,1,117.2,41.1Z"/><path class="cls-30" d="M125.8,18.5s-11.7-10.9,0-13.6c0,0,4-1.2,4.4,1.8,0,0-6.1,2.1-.8,9.7C129.4,16.4,131.7,21.3,125.8,18.5Z"/><path class="cls-30" d="M160.5,9.4s-20-9-31.7-1.9c0,0-4.1,1.9,1.4,10.9,0,0,4.9,2.7,17.5-1S160.5,9.4,160.5,9.4Z"/><path class="cls-30" d="M121.4,7.2s2.5-2.3-7.6-5.8c0,0-13.8-3.6-14.1.9,0,0,6.1,2.8,1.5,4.9s-3.1,15.3,23.7,10.4C124.9,17.6,118.7,11.2,121.4,7.2Z"/><path class="cls-31" d="M120.6,11.6S109.4,16.5,108,9.3"/><path class="cls-31" d="M128.1,11.3s14.1-5.5,12.2-1-10.8,2.9-10.8,2.9"/><path class="cls-31" d="M128.4,14.3s9.5,4.6,15.5-2.2"/><path class="cls-32" d="M95.1,170.7H74l-.3.2c0,1.1-.1,5.7,5.2,6.4l.2.2v3.8a.3.3,0,0,0,.3.3h3.3a1.7,1.7,0,0,0,1.7,1.6,1.7,1.7,0,0,0,1.8-1.6h2.9a.3.3,0,0,0,.3-.3v-3.8c0-.1.1-.2.3-.2s5.7,0,5.7-6.3A.3.3,0,0,0,95.1,170.7Zm-2.8,2.6c-1,.9-2.5,2.1-4,2a.6.6,0,0,0-.8.6v1.7c0,.1-.1.2-.3.2H82.3a.8.8,0,0,1-.8-.7v-1.2c0-.4-.3-.6-.7-.6s-2.8.2-4.8-1.9a.7.7,0,0,1,.5-1.1H91.8C92.4,172.3,92.7,172.9,92.3,173.3Z"/><path class="cls-32" d="M198.5,172.3l-26-1.1c-.2,0-.3.1-.3.2s-.4,5.7,6.1,6.6l.2.2v3.9c0,.1.1.2.3.2l4,.2a1.9,1.9,0,0,0,2.1,1.7,2,2,0,0,0,2.3-1.5h3.6c.2,0,.3-.1.3-.2l.2-3.8c0-.1.1-.2.3-.2s7.1.3,7.3-6C198.9,172.4,198.7,172.3,198.5,172.3Zm-3.6,2.5c-1.2.8-3.1,1.9-5,1.7s-1,.2-1,.6v1.7c0,.1-.1.2-.3.2l-6.1-.3a.8.8,0,0,1-.9-.7v-1.3c.1-.3-.4-.6-.8-.5a7.4,7.4,0,0,1-5.9-2.3c-.4-.4,0-1,.7-1l18.9.8C195.1,173.8,195.4,174.4,194.9,174.8Z"/><path class="cls-33" d="M74.3,480.8a30.9,30.9,0,0,1-17.6-23.7c-3.4-24-8.3-66.6-.3-66.6h149a5.8,5.8,0,0,1,5.9,5.8c.2,18.3.5,74.2-4.4,79.6S160.3,521,74.3,480.8Z"/><path class="cls-33" d="M172.5,391.9s-2.8-8,9.2,97.1"/><path class="cls-33" d="M55.7,406.2h4"/><path class="cls-34" d="M67.3,406.4c17.3.2,51.3.5,84-.2,0,0,32.9-1.2,48.8-2.6"/><path class="cls-33" d="M203.9,403.2a18.4,18.4,0,0,0,3.9-.7"/><path class="cls-35" d="M60.2,229.1S53.1,192.7,47.3,175a56.1,56.1,0,0,1-2.6-19.5c.2-7.4,1.3-16.3,4.2-21.3,0,0-13.4,15.8-3.2,62.3s3,38.1,3,38.1l4.3,8,7.2-10.3Z"/><path class="cls-36" d="M171.8,276.1c2-29.1,13.7-48,21.9-58.1-5.2,1-10.3,1.8-14.8,2.3a37.5,37.5,0,0,1-8.2-.2c-13.5-1.5-61.7-6.5-78-2.4,0,0-46.1,5.3-56.7-6.5,0,0,12,78.7,10.5,88.8s-8,52.6,4,60.6,24.2,13.3,80.6,12.2c0,0,26.2,1.4,49.8.1C164.9,357.4,169.1,315.9,171.8,276.1Z"/><path class="cls-37" d="M193.7,218c-8.2,10.1-19.9,29-21.9,58.1-2.7,39.8-6.9,81.3,9.1,96.8,17.3-1,33.2-3.4,36.4-8.8,0,0,11.8-7.5,9.7-68.8,0,0,1.2-72.6,6.6-82.9C235.8,208.1,213.7,214.2,193.7,218Z"/><path class="cls-22" d="M45.1,283.1a147.1,147.1,0,0,0-2.8-27.8s-16.2-6.2-28.5-5.3c-6.6,11-5.5,31.7-3.9,44.4a24.9,24.9,0,0,0,4.9,12c10.7,14.1,31.8,27.6,46.5,35.9l17.8-19.1L51,296.6A18.7,18.7,0,0,1,45.1,283.1Z"/><path class="cls-38" d="M193,361l-.3.3Z"/><path class="cls-39" d="M179.7,350.5h0Z"/><path class="cls-39" d="M192.7,361.3h0Z"/><path class="cls-40" d="M210.7,323.7c-1.4,1.6-2.8,3.2-4.1,4.9a4.4,4.4,0,0,1-3.5,1.5c-5.9-.4-21.8-1.1-29.2,2.5,0,0-6.5.5-6.6,2.9,0,0-2.5,4.5,15.7,1.3,0,0-6.3,11.5-17.6,12,0,0-11.4-.1-8.3,4.6,0,0,3.1,3.5,13.4,1.2a30,30,0,0,0,7.1-2.2c.6.1.5.3.3.6-1.9,1.2-5.7,2.6-13.4,3.4a2.7,2.7,0,0,0-2.3,1.5c-.5,1.1-.2,2.7,5,3.4,6.9.9,14.7-2.3,17.4-3.6.3.1.2.2.1.4a24.1,24.1,0,0,1-12.1,4.5,1.9,1.9,0,0,0-.7,3.6c1.4.8,4.3.9,9.9-1.1a70.9,70.9,0,0,0,9.8-3.1s.3,0,.1.1-5.1,2.6-9.8,2.8a2.6,2.6,0,0,0-1.5,1.9c.1,1.1,1.6,2.7,7.7.8,7.8-2.3,23.2-14.5,27.6-18.1a7.6,7.6,0,0,1,2.6-1.5c1.2-.5,3.1-1.4,5.5-2.7Z"/><path class="cls-41" d="M156.6,352.1a28,28,0,0,1,8.8-.9,9,9,0,0,0,2.3-.2c3.9-.8,14.9-5.1,17.4-13.9.1-.2,0-.5,0-.7h0a1.5,1.5,0,0,0-1.7-1.2c-3.7.6-13.9,1.8-15.2.7s-.9-.9-.3-1.6-4.1,2.3,2.7,3.8h.3c1.3.1,8.2.7,11.7-1,.1-.1.2.1.1.2-1.3,1.8-6.9,8.5-13.2,10.6a8.5,8.5,0,0,1-3.1.6C163.3,348.5,155.4,348.7,156.6,352.1Z"/><path class="cls-40" d="M122,348.6c13.2-.7,10-5.3,7.4-5.5h-.9s-6.7,2.4-18.7-2.8-1.1-5.9-1.1-5.9c11.7,1.1,7.2-3.5,6.2-4.1-8.7-5.3-15.1-2-17.7-.1a9.8,9.8,0,0,1-5.2,2,9.1,9.1,0,0,1-7.2-3.2,4.9,4.9,0,0,0-1.2-1.3l-4.5-4.4L61.3,342.3c6.7,3.8,12,6.5,14.5,7.8a6.1,6.1,0,0,1,2.4,2.1c11.1,16,30.6,15.2,30.6,15.2,4.7-.2,4.8-1.7,4.2-2.9a3.3,3.3,0,0,0-2.4-1.5c-5.7-.7-8.4-1.7-9.9-2.7s-.1-.7.5-.6,4.6,1.6,11.6,2.5c9.2,1.2,10.2-.7,9.7-2.3a2.8,2.8,0,0,0-2.7-1.8c-8.6.3-11.9-1.7-13.3-3.1s-.5-1,.2-.7a19.9,19.9,0,0,0,15.9,2.2c9.8-2.8,2.1-5.2,2.1-5.2-8.7-.2-12.7-1-14.5-1.7-.2-.2-.6-.7.2-.6S114.8,349,122,348.6Z"/><path class="cls-41" d="M115.9,341.7s-13-2.9-10.8-6c0,0,.9-1.8,7.4-1.1h1c1.4-.2,4.9-1.1,2-3.9,0,0-1.3,2.2-8.6,2.2h-1.5c-2.8.5-11,2.9,7.5,10.5,0,0,9.8,3.9,16.1-.2.1-.1.1-.3-.1-.3-2.1-.1-10.1-.3-13-1.3"/><path class="cls-42" d="M82.5,345.7s3.5,8,11.5,11.9"/><path class="cls-42" d="M87.7,342.8s3.3,6.8,15.6,10.6"/><path class="cls-42" d="M90.2,339.6s4.7,6.2,14.5,7.3"/><path class="cls-42" d="M183.4,350.5s13.1-3.4,18.9-8.9"/><path class="cls-42" d="M189.2,355.8a48.8,48.8,0,0,0,14.4-6.5"/><path class="cls-42" d="M194.2,361a25.1,25.1,0,0,0,13.6-8.9"/><path class="cls-22" d="M264.5,241.9l-.2-.2a113.5,113.5,0,0,0-14.6,1.4,99.9,99.9,0,0,0-15.7,3.4l-4.3,1.5h-.3s8.8,30.1,7.6,46.7a9.7,9.7,0,0,1-3.4,6.6,232.1,232.1,0,0,0-23,22.4l13.1,21.6c14.6-8.2,46.1-30.6,49.1-44.9C276.5,282,273.3,264.3,264.5,241.9Z"/><path class="cls-43" d="M178.5,200s3-11.8,3-16.4a1.3,1.3,0,0,1,1.4-1.3h1.6a1.3,1.3,0,0,1,1.2,1.1c.2,2.4.4,7.8-.6,11.2,0,.3.3.4.4.2,1.4-1.9,3.6-5.5,4-8.2a1,1,0,0,1,1-.7l4.1.8a1.1,1.1,0,0,1,.8,1.5,67.2,67.2,0,0,1-7.7,11.5,5.8,5.8,0,0,1-6.9,1.4Z"/><path class="cls-44" d="M212,200.3s3.4,2.2,10.5-1"/><path class="cls-44" d="M210.9,205.3s6.9,2.3,10.6-1.3"/><path class="cls-44" d="M210.6,210.7a11.3,11.3,0,0,0,8.4-1.4"/><path class="cls-45" d="M153.1,185.5a1.3,1.3,0,0,0-1.4-1,2.5,2.5,0,0,0-2.3,2.9v.3A2.8,2.8,0,0,0,153.1,185.5Z"/><path class="cls-46" d="M157.2,198.7a.3.3,0,0,0-.2-.6h-1.2a3,3,0,0,1-2.1-1l-1-1s1.1-8.1.4-10.5h0a2.8,2.8,0,0,1-3.6,2.2l1.3,7.9-1.5,1.3a2.3,2.3,0,0,1-1.4.4l-2.7-.3a.7.7,0,0,0-.5,1.1l1,1.4a1,1,0,0,1,.1,1.2l-.8,1.8,2.5-.9a.5.5,0,0,1,.7.3l.6,2.3a.5.5,0,0,0,.8.2l1.2-1.2a.6.6,0,0,1,.8.1l1.3,2v-1.2a.5.5,0,0,1,.5-.7l2.2-.2a.8.8,0,0,0,.7-1.2l-.4-.7a1.1,1.1,0,0,1,.1-1.3Z"/><path class="cls-47" d="M145.3,208.6c1.4-.8,3.8-1.3,8.1-.1h.9a7.2,7.2,0,0,0,6.8-3.8.2.2,0,0,1,.4.1c.4,1.5,1.4,7.1-7.9,5.8,0,0-8-1.2-9.9,2.5-1,2.1-.6-.3-.4-1.7A5.3,5.3,0,0,1,145.3,208.6Z"/><rect class="cls-48" x="373.6" y="88.7" width="425.4" height="32.77" rx="15.2" ry="15.2"/><rect class="cls-48" x="414" y="185.9" width="344.6" height="32.77" rx="15.2" ry="15.2"/><rect class="cls-48" x="432.6" y="283.1" width="307.3" height="32.77" rx="15.2" ry="15.2"/><text class="cls-49" transform="translate(377.8 102.4)">신선한 농산물</text><text class="cls-50" transform="translate(405.5 31.6)">개성있는 몬내미들의 신선함을 빠르게 배송해드립니다.</text><text class="cls-49" transform="translate(453.1 200.5)">산지직송</text><rect class="cls-51" x="711.4" y="261.7" width="30.8" height="1.06"/><rect class="cls-51" x="702.8" y="264.1" width="30.8" height="1.06"/><rect class="cls-51" x="702.9" y="299.4" width="30.8" height="1.06"/><polygon class="cls-51" points="714.8 302.8 684 302.8 694.3 301.8 725.1 301.8 714.8 302.8"/><path class="cls-52" d="M465.7,281.6c-3.1,0-5.5-.7-7.1-2.2s-2.4-3.4-2.4-6.1v-21a6.8,6.8,0,0,1,.2-2.1,1.9,1.9,0,0,1,.7-1.2,2.3,2.3,0,0,1,1.3-.6,7.2,7.2,0,0,1,2.2-.2h25.6a4.2,4.2,0,0,1,1.8.3,2.7,2.7,0,0,1,.4,1.5v2.4a2.1,2.1,0,0,1-.4,1.4,3,3,0,0,1-1.8.4H473.5a1.7,1.7,0,0,0-1.9,1.9V270a2.8,2.8,0,0,0,.6,2.1,3.5,3.5,0,0,0,2.4.6,29.2,29.2,0,0,0,7.1-.8,21.5,21.5,0,0,0,6.2-2.1,3.9,3.9,0,0,1,1.4-.5c.3,0,.5.2.7.6l1.4,2.1a3.6,3.6,0,0,1,.4.9c0,.4-.2.6-.6.8a28.7,28.7,0,0,1-5,3,53.3,53.3,0,0,1-6.4,2.5,42,42,0,0,1-7,1.7A34.9,34.9,0,0,1,465.7,281.6ZM484.6,308a99.5,99.5,0,0,1-12-.7,38,38,0,0,1-8.2-2.2,10.7,10.7,0,0,1-4.7-3.7,8.4,8.4,0,0,1-1.5-5.2,8.3,8.3,0,0,1,1.5-5.1,10.7,10.7,0,0,1,4.7-3.7,33,33,0,0,1,8.2-2.2,82.4,82.4,0,0,1,12-.7,84.9,84.9,0,0,1,12.1.7,35.7,35.7,0,0,1,8.2,2.2,11.9,11.9,0,0,1,4.7,3.7,9.8,9.8,0,0,1,1.4,5.1,9.9,9.9,0,0,1-1.4,5.2,11.9,11.9,0,0,1-4.7,3.7,41.6,41.6,0,0,1-8.2,2.2A102.7,102.7,0,0,1,484.6,308Zm0-17.5a27,27,0,0,0-5.4.4,8.5,8.5,0,0,0-3.4,1.1,5,5,0,0,0-1.7,1.9,4.6,4.6,0,0,0-.5,2.3,4.3,4.3,0,0,0,.5,2.4,4.2,4.2,0,0,0,1.7,1.8,10.2,10.2,0,0,0,3.4,1.2,36.6,36.6,0,0,0,10.8,0,12.2,12.2,0,0,0,3.4-1.2,5.2,5.2,0,0,0,1.8-1.8,5.4,5.4,0,0,0,.5-2.4,5.9,5.9,0,0,0-.5-2.3,6.4,6.4,0,0,0-1.8-1.9,9.7,9.7,0,0,0-3.4-1.1A27,27,0,0,0,484.6,290.5ZM510,268.1v10.7a4.8,4.8,0,0,1-.8,3.2,5.6,5.6,0,0,1-3.6.9h-6.5l-2.2-.2a1.9,1.9,0,0,1-1.3-.7,1.5,1.5,0,0,1-.7-1.2,5.6,5.6,0,0,1-.3-2V251.6a5.6,5.6,0,0,1,.3-2,1.9,1.9,0,0,1,.7-1.3,2.3,2.3,0,0,1,1.3-.6l2.2-.2h6.5a6.4,6.4,0,0,1,3.6.8,5.3,5.3,0,0,1,.8,3.3v10.5h6.3a3.4,3.4,0,0,1,1.7.3,2.1,2.1,0,0,1,.5,1.5v2.4a1.7,1.7,0,0,1-.5,1.4,2.5,2.5,0,0,1-1.7.4Z"/><path class="cls-52" d="M540.4,278.6a31.2,31.2,0,0,1-7.7-1,16.5,16.5,0,0,1-6.1-2.9,12.2,12.2,0,0,1-4.1-4.9A14.5,14.5,0,0,1,521,263a15.1,15.1,0,0,1,1.5-6.8,12.6,12.6,0,0,1,4.1-4.8,18.3,18.3,0,0,1,6.1-3,33.4,33.4,0,0,1,15.4,0,19.9,19.9,0,0,1,6.2,3,14.6,14.6,0,0,1,4.1,4.8,16.5,16.5,0,0,1,1.4,6.8,15.9,15.9,0,0,1-1.4,6.8,14,14,0,0,1-4.1,4.9,17.7,17.7,0,0,1-6.2,2.9A31.2,31.2,0,0,1,540.4,278.6ZM580.3,294a2.5,2.5,0,0,1-1,2.4,6.3,6.3,0,0,1-3.5.7H542.2a3.1,3.1,0,0,0-1.3.2c-.3.2-.3.5-.3,1v.8c0,.6,0,1,.3,1.3s.6.3,1.3.3h35.9a4,4,0,0,1,1.8.4,2.1,2.1,0,0,1,.4,1.4v2.3a2.7,2.7,0,0,1-.4,1.5,4.2,4.2,0,0,1-1.8.3H532.3a16.9,16.9,0,0,1-3.5-.3,6.6,6.6,0,0,1-2.2-1.2,5.5,5.5,0,0,1-1.1-2.3,12.3,12.3,0,0,1-.3-3.5v-4a5.9,5.9,0,0,1,.2-2,2.1,2.1,0,0,1,.7-1.3,2.3,2.3,0,0,1,1.3-.6l2.3-.2h33.6a2.3,2.3,0,0,0,1.3-.3q.3-.1.3-.9v-1.1a1.3,1.3,0,0,0-.3-1,2.4,2.4,0,0,0-1.3-.2H527.4a3.4,3.4,0,0,1-1.8-.4c-.3-.2-.4-.7-.4-1.4v-2.3a2.1,2.1,0,0,1,.4-1.5,3.6,3.6,0,0,1,1.8-.3h48.4c1.8,0,3,.2,3.7.8a5.3,5.3,0,0,1,.8,3.3Zm-39.9-40.5a3.6,3.6,0,0,0-3.2,2.1c-.7,1.5-1.1,4-1.1,7.4s.4,6.1,1.1,7.4a3.5,3.5,0,0,0,6.4,0c.7-1.3,1.1-3.8,1.1-7.4s-.4-5.9-1.1-7.4A3.6,3.6,0,0,0,540.4,253.5Zm24.5-1.9a10.3,10.3,0,0,1,.2-2,2.4,2.4,0,0,1,.8-1.3,2,2,0,0,1,1.3-.6l2.2-.2h6.4a6.5,6.5,0,0,1,3.7.8,5.3,5.3,0,0,1,.8,3.3v23.9a4.8,4.8,0,0,1-.8,3.2,5.7,5.7,0,0,1-3.7.9h-6.4l-2.2-.2a2.6,2.6,0,0,1-1.3-.7,2.5,2.5,0,0,1-.8-1.2,10.3,10.3,0,0,1-.2-2Z"/><path class="cls-52" d="M617.3,301.9a5.3,5.3,0,0,1-.8,3.3,6.5,6.5,0,0,1-3.7.8h-3.6a7.3,7.3,0,0,1-3.1-.5,2.4,2.4,0,0,1-1.3-1.8,22.8,22.8,0,0,1-4,1.7,16.1,16.1,0,0,1-4.4.6c-2.8,0-4.8-.7-6.2-2.1s-2.2-3.5-2.2-6.2V251.6a10.3,10.3,0,0,1,.2-2,1.7,1.7,0,0,1,.8-1.3,2,2,0,0,1,1.3-.6l2.2-.2h3.7a6.4,6.4,0,0,1,3.6.8,5.2,5.2,0,0,1,.9,3.3v18.8h4V251.6a5.9,5.9,0,0,1,.2-2,1.9,1.9,0,0,1,.7-1.3,2.6,2.6,0,0,1,1.4-.6l2.2-.2h3.6a6.5,6.5,0,0,1,3.7.8,5.3,5.3,0,0,1,.8,3.3Zm-14.7-4.7a5.4,5.4,0,0,0,2.1-.5V276.4h-4v18a3.9,3.9,0,0,0,.4,2.2A1.8,1.8,0,0,0,602.6,297.2Zm17.7-45.6a10.3,10.3,0,0,1,.2-2,2.4,2.4,0,0,1,.8-1.3,2,2,0,0,1,1.3-.6l2.2-.2h3.8a6.4,6.4,0,0,1,3.6.8,5.2,5.2,0,0,1,.9,3.3v20.1h3.2V251.6a5.9,5.9,0,0,1,.2-2,1.9,1.9,0,0,1,.7-1.3,2.3,2.3,0,0,1,1.3-.6l2.3-.2h3.7a6.1,6.1,0,0,1,3.6.8,4.7,4.7,0,0,1,.9,3.3v51a4.7,4.7,0,0,1-.9,3.3,6.1,6.1,0,0,1-3.6.8h-3.7l-2.3-.2-1.3-.6a2.4,2.4,0,0,1-.7-1.3,5.9,5.9,0,0,1-.2-2V277.8h-3.2v24.8a5.2,5.2,0,0,1-.9,3.3,6.4,6.4,0,0,1-3.6.8h-3.8l-2.2-.2a4,4,0,0,1-1.3-.6,3.5,3.5,0,0,1-.8-1.3,10.3,10.3,0,0,1-.2-2Z"/><path class="cls-52" d="M657.6,282a3,3,0,0,1-1.7-.4c-.4-.2-.5-.7-.5-1.4v-2.4a1.7,1.7,0,0,1,.5-1.5,3.2,3.2,0,0,1,1.7-.3h20.8v-1.9a6.2,6.2,0,0,1,.2-2,1.9,1.9,0,0,1,.7-1.2,2.3,2.3,0,0,1,1.3-.6,7.5,7.5,0,0,1,2.3-.2h6.4c1.7,0,2.9.2,3.6.8a4.9,4.9,0,0,1,.9,3.2V276h60a4.2,4.2,0,0,1,1.8.3,2.7,2.7,0,0,1,.4,1.5v2.4a2.1,2.1,0,0,1-.4,1.4,4,4,0,0,1-1.8.4Zm36-29.5a28.5,28.5,0,0,1-.2,3.1,22.9,22.9,0,0,1-.8,2.8,5.3,5.3,0,0,0,4.4,1.8,10.5,10.5,0,0,0,6.2-2.1,8.8,8.8,0,0,1,2.2-1,6,6,0,0,1,2.2-.4,6.5,6.5,0,0,1,4.6,1.6,5.6,5.6,0,0,1,1.8,4.4,7.7,7.7,0,0,1-2.7,6c-1.9,1.6-4.6,2.4-8.4,2.4a15.3,15.3,0,0,1-8.5-2.1,12.7,12.7,0,0,1-5.3-5.7,24.2,24.2,0,0,1-11.5,5.4,77.6,77.6,0,0,1-17.7,1.7,2.1,2.1,0,0,1-1.5-.4,2.8,2.8,0,0,1-.5-1.1l-.6-2.7a1.3,1.3,0,0,1,.2-1.2c.1-.2.6-.4,1.3-.5,6.8-.5,11.8-1.7,14.9-3.7a9.4,9.4,0,0,0,4.5-8.3v-.9a5.4,5.4,0,0,1,.7-3.3c.4-.5,1.5-.8,3.2-.8h7.7a4.8,4.8,0,0,1,3.2.8,6.4,6.4,0,0,1,.6,3.3ZM685.9,308a107.4,107.4,0,0,1-12.5-.7,35.8,35.8,0,0,1-8.5-2.2,11.4,11.4,0,0,1-4.9-3.6,8.6,8.6,0,0,1,0-10,11.4,11.4,0,0,1,4.9-3.6,35.8,35.8,0,0,1,8.5-2.2,107.4,107.4,0,0,1,12.5-.7,110.1,110.1,0,0,1,12.5.7,38.6,38.6,0,0,1,8.5,2.2,12,12,0,0,1,4.9,3.6,8.6,8.6,0,0,1,0,10,12,12,0,0,1-4.9,3.6,38.6,38.6,0,0,1-8.5,2.2A110.1,110.1,0,0,1,685.9,308Zm0-17a32,32,0,0,0-5.9.4,12.3,12.3,0,0,0-3.7,1.2,4,4,0,0,0-1.9,1.7,4.3,4.3,0,0,0,0,4.4,4,4,0,0,0,1.9,1.7,12.3,12.3,0,0,0,3.7,1.2,32,32,0,0,0,5.9.4,33,33,0,0,0,5.8-.4,13.4,13.4,0,0,0,3.7-1.2,4.2,4.2,0,0,0,0-7.8,13.4,13.4,0,0,0-3.7-1.2A33,33,0,0,0,685.9,291Z"/><rect class="cls-3" x="712.5" y="262" width="2.6" height="0.63"/><rect class="cls-3" x="712.5" y="264.3" width="2.6" height="0.63"/><rect class="cls-3" x="707" y="299" width="2.6" height="0.63"/><rect class="cls-3" x="707" y="301.4" width="2.6" height="0.63"/><path class="cls-1" d="M104.2,288a5.9,5.9,0,0,0-1.6.7c-.3.2,0,.7.3.5a7,7,0,0,1,4-1c2.2,0,3.6,1.5,3.8,4,.3,4.6-3,5.6-6.5,5.6s-5.6-1.9-6.1-5-.3-10.3,0-13.7,1.3-2.9,3.1-2.9,3,.8,3.2,2.9S104.6,286.9,104.2,288Z"/><path class="cls-1" d="M119.7,297.7c.1-1.1.2-4.9.2-8.7H117c0,2.9,0,5.9-.1,7.9s-1.1,3.5-2.7,3.5-2.4-1.2-2.3-3.5c0-5.9.2-12.7-.1-18.6-.1-1.9.9-3.4,2.3-3.4s2.7.5,2.8,3.6c0,1.2.1,3.4.1,5.9h2.9c0-2.5-.1-4.8-.2-6.5s.8-3.6,2.2-3.6,2.7.7,2.8,3.9.3,14.3.1,19.4c-.1,2.2-1.2,3.5-2.7,3.5S119.6,300,119.7,297.7Z"/><path class="cls-1" d="M129.1,294.4c-.1-5.3-.3-9.4-.2-15.8,0-1.5.9-2.2,2.7-2.3,3.6-.1,7.7-.2,11.1,0s2.7.8,2.8,2.9c.2,4.9,0,9.9-.1,15.2,0,2.1-.8,2.8-3.9,3a60.3,60.3,0,0,1-8.5,0C129.9,297.2,129.1,296.5,129.1,294.4Zm5-2.8c0,1,.2,1.1,1.2,1.2h3.9c1-.1,1.2-.2,1.2-1.2s.1-7-.1-10.5c-.1-.5-.2-.6-.7-.7h-4.8c-.6.1-.7.2-.7.7C134,284.8,134.1,289.3,134.1,291.6Zm18-17.2c1.5,0,2.8.8,3,4s.4,14.1.1,19.2c-.1,2.1-.9,3.5-2.6,3.5s-2.7-1.3-2.6-3.5c.2-6,.1-13.9,0-17,0-.9-.1-2.2-.1-3.3S150.4,274.4,152.1,274.4Z"/><path class="cls-1" d="M72.9,292.3c2.1-.3,3.6.1,4.6,1.5a3.2,3.2,0,0,1-.6,4.1c-.3.2,0,.8.3.5,2.8-2.2,6.5-4.7,10.5-4.7,1.9,0,3.6.7,3.9,2.7s-.9,3.7-4,4a73.2,73.2,0,0,1-13.5.2c-3.1-.2-4.7-1.5-4.7-3.8A4.3,4.3,0,0,1,72.9,292.3Z"/><path class="cls-1" d="M65.9,288.8c0-1.1.8-2.3,2.9-2.2s5.6.9,9.1.9v-2.4H73.8c-3.9-.1-4.3-1-4.4-3.4a30.9,30.9,0,0,1,.1-5.3c.1-1.5.8-2.3,2.7-2.3,5.6-.1,11.5-.2,16.5,0,1.9.1,2.6.8,2.8,2.3s.1,3.3.1,5.3-.6,3.2-3.3,3.3l-4.9.2v2.4c3.5,0,6.7-.9,8.7-1s2.9,1,2.9,2.2-.9,2-2.6,2.3c-10.5,1.8-13,1.8-23.5.1C66.9,290.8,65.9,290.2,65.9,288.8Zm9.4-7.9c2.9.1,7.2.1,10.3,0,.7,0,.9-.3.9-.7v-1.4c0-.5-.2-.6-.7-.7-2.4-.1-8.3-.1-10.6,0-.6.1-.8.2-.8.7v1.4C74.4,280.7,74.6,280.9,75.3,280.9Z"/><path class="cls-2" d="M82.6,283.8h-.2l-4.3-2.4L75,283.4h-.6l-7-7.3c-.1-.2-.2-.4-.1-.5a.5.5,0,0,1,.5-.3h.1l10.4,3.5,15.8-6.6h.2a.4.4,0,0,1,.4.3.5.5,0,0,1-.1.6L83,283.6Z"/><path class="cls-3" d="M94.3,272.3a.3.3,0,0,1,.2.5L82.8,283.5h-.3l-4.3-2.4h-.3l-3,2.2h-.4l-6.9-7.3c-.2-.1-.1-.4.2-.4h.1L78.2,279a.1.1,0,0,0,.1.1h.1l15.8-6.6h.1m0-.4H94l-15.7,6.6L68,275.1h-.2a.7.7,0,0,0-.7.4.7.7,0,0,0,.2.7l6.9,7.3.5.2h.4l3-2.1,4.2,2.4h.3l.5-.2,11.6-10.7a.5.5,0,0,0,.2-.7.6.6,0,0,0-.6-.5Z"/><polygon class="cls-3" points="81.7 282.8 93.4 272.8 91.3 273.8 81.3 282.6 81.7 282.8"/></svg>