<svg xmlns="http://www.w3.org/2000/svg" width="84.04" height="82.086" viewBox="0 0 84.04 82.086">
  <g id="그룹_1216" data-name="그룹 1216" transform="translate(-797.001 -1989)">
    <g id="타원_2" data-name="타원 2" transform="translate(798 1989)" fill="none" stroke="#707070" stroke-width="1">
      <circle cx="41" cy="41" r="41" stroke="none"/>
      <circle cx="41" cy="41" r="40.5" fill="none"/>
    </g>
    <g id="그룹_613" data-name="그룹 613" transform="translate(798 1990.5)">
      <ellipse id="타원_2-2" data-name="타원 2" cx="38.996" cy="38.996" rx="38.996" ry="38.996" transform="translate(1.794 0.301)" fill="none" stroke="#707070" stroke-miterlimit="10" stroke-width="2"/>
      <path id="패스_2" data-name="패스 2" d="M369.852,16.445a42.865,42.865,0,0,0-21.8,15.194A45.184,45.184,0,0,0,339.1,56.706a31.5,31.5,0,0,0,.374,6.919c1.051,5.908,4.275,11.194,7.816,16.038a36.859,36.859,0,0,0,5.121,5.915c3.382,3.006,7.605,4.892,11.861,6.429,9.339,3.372,19.979,5.207,29.01,1.082,4.174-1.906,7.711-4.963,10.988-8.176,6.234-6.113,11.93-13.293,13.805-21.82a56.3,56.3,0,0,0,.938-11.142c.08-4.626.13-9.391-1.562-13.7-1.765-4.492-5.261-8.062-8.847-11.292-3.789-3.413-7.859-6.646-12.592-8.545-6.129-2.459-12.918-2.514-19.521-2.535a45.679,45.679,0,0,0-11.551.947c-9.816,2.525-16.762,11.155-22.031,19.813a35.027,35.027,0,0,0-3.963,8.224,29.23,29.23,0,0,0-.957,8.887,55.242,55.242,0,0,0,10.751,31.373,21.936,21.936,0,0,0,6.484,6.26,23.661,23.661,0,0,0,7.949,2.44,120.611,120.611,0,0,0,16.364,1.426c5.846.16,11.782.045,17.4-1.578A22.366,22.366,0,0,0,406,88.87a31.738,31.738,0,0,0,5.129-6.736,61.882,61.882,0,0,0,6.728-13.326,51.905,51.905,0,0,0,2.155-15.128,28.481,28.481,0,0,0-1.347-10.651c-1.367-3.606-3.944-6.6-6.471-9.513-3.855-4.443-7.811-8.971-12.914-11.9-5.166-2.962-11.156-4.081-17.034-5.035-6.955-1.129-13.164.373-20.131,1.421" transform="translate(-337.977 -15.883)" fill="none" stroke="#707070" stroke-miterlimit="10" stroke-width="2"/>
    </g>
  </g>
</svg>
