<?xml version="1.0" encoding="utf-8"?>
<!-- Generator: Adobe Illustrator 22.1.0, SVG Export Plug-In . SVG Version: 6.00 Build 0)  -->
<svg version="1.1" id="Layer_1" xmlns="http://www.w3.org/2000/svg" xmlns:xlink="http://www.w3.org/1999/xlink" x="0px" y="0px"
	 viewBox="0 0 1920 1007" style="enable-background:new 0 0 1920 1007;" xml:space="preserve">
<style type="text/css">
	.st0{fill:#FCF3DA;}
	.st1{fill:#EDAE5E;}
	.st2{fill:#FFFFFF;}
	.st3{fill:#0C0D0D;}
	.st4{fill:#B8292E;}
	.st5{fill:#3B7C3E;}
	.st6{fill:#0F122D;}
	.st7{fill:#DD2A28;}
	.st8{fill:#B82A2E;}
	.st9{fill:#EBAE60;}
	.st10{fill:#E13F2E;}
	.st11{fill:#E24F46;}
	.st12{fill:#E13F2E;stroke:#0C0D0D;stroke-width:4;stroke-miterlimit:10;}
	.st13{fill:none;stroke:#10132E;stroke-width:0.5;stroke-linecap:round;stroke-linejoin:round;stroke-miterlimit:10;}
	.st14{opacity:0.76;}
	.st15{fill:#E3BBD5;}
	.st16{fill:#861B2A;}
	.st17{fill:#E03E2E;}
	.st18{fill:#221F20;}
</style>
<rect class="st0" width="1920" height="1007"/>
<rect x="981.5" y="159.6" class="st1" width="526.1" height="533.6"/>
<g>
	<g>
		<g>
			<g>
				<path class="st2" d="M1409.3,565.7c4.9-5.8-34,29.5-18.2,38.5c0,0,15.4,9.5,18.2-3.4"/>
			</g>
			<g>
				<path class="st3" d="M1401.6,610.2c-5.6,0-11.1-3.3-11.9-3.7c-2.8-1.6-5.9-4.9-4.8-11.3c2.1-12.2,21.4-32.1,24.3-32.6
					c1.1-0.2,2.2,0.3,2.7,1.2c0.9,1.6-0.2,3-0.7,3.5c-0.4,0.5-0.9,0.8-1.5,0.9c-4.9,4.3-20.2,20.7-19.9,29.7
					c0.1,1.9,0.8,3.2,2.5,4.1c2.1,1.3,8,4.1,11.5,2.6c1.5-0.6,2.4-2.1,2.9-4.4c0.3-1.4,1.6-2.3,3-1.9c1.4,0.3,2.2,1.7,1.9,3
					c-1.1,5-3.8,7.1-5.9,8C1404.5,609.9,1403,610.2,1401.6,610.2z"/>
			</g>
		</g>
		<g>
			<g>
				<path class="st4" d="M1087.3,436.4c0,0-47.3-30.2-94-45.9c0,0-6.4,39.6-21.8,57.1c0,0,73.8,12.1,102.7,45.7
					C1074.2,493.2,1066.2,468,1087.3,436.4z"/>
			</g>
			<g>
				<path class="st3" d="M1073.4,496c-0.6-0.2-1.2-0.5-1.6-1c-27.8-32.3-100-44.4-100.7-44.6c-1.1-0.2-2.1-0.9-2.5-1.9
					s-0.3-2.1,0.4-2.9c14.7-16.8,21.1-55.4,21.2-55.8c0.1-0.8,0.7-1.6,1.4-2c0.8-0.4,1.7-0.5,2.6-0.2c46.5,15.7,94.2,46,94.7,46.3
					c1.4,0.9,1.9,2.7,1,4c-20.1,30.2-12.8,54.3-12.8,54.5c0.4,1.3-0.2,2.7-1.5,3.3C1075,496.2,1074.1,496.3,1073.4,496z
					 M1000.4,451.2c21.5,6,50.5,16.6,69.3,33.3c-0.6-10.1,0.8-27.3,13.3-47.3c-10.1-6.2-48.7-29.3-87.2-42.8
					c-1.8,9.3-7.6,35.4-18.8,51.2C982,446.6,990.4,448.5,1000.4,451.2z"/>
			</g>
		</g>
		<g>
			<g>
				<path class="st2" d="M864.1,430.4C866.7,432.5,861.5,428.2,864.1,430.4c32.1,27,60.7,3,60.7,3c-4,22.9,21.5,32.3,21.5,32.3
					c28.8,11.6,43.7-23.6,43.7-23.6c20-51.2,4.8-79.4,4.8-79.4c-7.1-13.5-20.3-17.5-20.3-17.5c-27-9.5-36.7,15.2-36.7,15.2
					c0-3.7-0.6-7.2-1.3-10.2c-1.4-6-4.5-11.5-9.3-15.2c-8.5-6.4-17.1-4.8-21.6-3c-1.7,0.7-3.6-0.2-4.3-1.9
					c-22.5-55.5-49.2-28.3-49.2-28.3c-14.8,12.8-2.2,35,6.6,45l8.5,10.7C867.3,357.4,829.3,402,864.1,430.4z"/>
			</g>
			<g>
				<path class="st3" d="M949.3,469.4c-1.3-0.4-2.6-0.8-4-1.4c-0.2-0.1-23.3-8.9-23.5-29.6c-9.7,5.7-33.7,15.6-59.4-6.1
					c-9.2-7.6-14.4-16.9-15.4-27.8c-1.9-21.1,12.4-41.4,17-47.2l-7.2-9.1c-6.9-7.7-14.7-21.1-13.9-33.1c0.4-6.2,3-11.4,7.6-15.4
					c0.2-0.3,9.3-9.4,21.9-6.9c12.1,2.4,22.6,14.5,31.4,36.1c0.2,0.4,0.6,0.7,1,0.5c3.9-1.5,14-4.2,24.1,3.4
					c5.1,3.8,8.6,9.6,10.3,16.7c0.2,1,0.4,1.9,0.6,2.9c5.5-7.2,16.7-16.3,35.7-9.7c0.5,0.1,14.2,4.4,21.7,18.7
					c0.6,1.2,15.5,29.8-4.7,81.5C992.2,443.5,977.5,477.3,949.3,469.4z M925.5,430.9c0.2,0.1,0.4,0.1,0.6,0.2
					c0.9,0.5,1.4,1.6,1.2,2.6c-3.6,20.5,19.7,29.4,19.9,29.5c26.2,10.5,39.9-20.8,40.5-22.2c19.3-49.5,5.1-77,4.9-77.2
					c-6.5-12.3-18.7-16.2-18.8-16.2c-24.3-8.6-33.2,12.8-33.6,13.7c-0.5,1.1-1.6,1.8-2.8,1.6c-1.3-0.3-2.1-1.3-2.1-2.5
					c0-3-0.4-6.3-1.2-9.6c-1-4.1-3.2-9.9-8.4-13.8c-7.7-5.8-15.3-4.2-19.1-2.7c-2.9,1.1-6.3-0.4-7.6-3.4
					c-8-19.6-17.4-31.1-27.7-33.1c-9.9-1.9-17.3,5.5-17.4,5.6c-3.8,3.3-5.8,7.3-6.1,12c-0.6,9.8,6,21.8,12.8,29.4l8.6,10.8
					c0.8,1,0.7,2.3-0.1,3.2c-0.2,0.2-19.1,22.8-17.1,45.1c0.8,9.2,5.2,17.2,12.9,23.7l0,0l0.2,0.2c0.2,0.1,0.3,0.3,0.5,0.4
					c0.1,0.1,0.3,0.2,0.4,0.4l0.2,0.2l0,0c29.8,24.4,55.7,3.3,56.8,2.4C923.8,430.9,924.7,430.7,925.5,430.9z"/>
			</g>
		</g>
		<g>
			<g>
				<path class="st3" d="M931.2,422.3c-0.3-0.1-0.6-0.2-0.8-0.4c-1.1-0.8-1.4-2.4-0.5-3.6c0.1-0.2,12.1-16.6,7.1-37.4
					c-0.3-1.4,0.5-2.7,1.9-3.1c1.4-0.3,2.7,0.5,3.1,1.9c5.6,23.2-7.4,40.9-7.9,41.7C933.3,422.2,932.2,422.6,931.2,422.3z"/>
			</g>
		</g>
		<g>
			<g>
				<path class="st3" d="M896.2,384.8c-5.2-1.5-9.7-5.5-13.1-11.8c-3.6-6.7-2.9-15.1,1.7-20.8c6.6-8.1,17-13.6,17.5-13.9
					c1.2-0.6,2.8-0.2,3.4,1.1c0.7,1.2,0.2,2.8-1.1,3.4c-0.1,0.1-10,5.3-15.9,12.6c-3.4,4.1-3.8,10.2-1.2,15.2
					c2.1,3.9,5.7,8.8,11.3,9.6c6,0.9,13.2-2.6,21.6-10.7c1-1,2.6-0.9,3.6,0.1s0.9,2.6-0.1,3.6c-9.5,9.2-18.2,13.2-25.9,12
					C897.5,385.1,896.9,385,896.2,384.8z"/>
			</g>
		</g>
		<g>
			<g>
				<path class="st5" d="M1374.9,253.5c1.7-6.8,7.8-11.9,15.2-12c8.7-0.1,15.8,6.9,15.9,15.6c0,4.4-1.7,8.3-4.5,11.2"/>
			</g>
			<g>
				<path class="st6" d="M1404.2,271.1l-5.4-5.4c2.2-2.3,3.5-5.3,3.4-8.5c-0.1-6.6-5.5-11.9-12.1-11.9c-5.5,0-10.2,3.8-11.5,9.1
					l-7.4-1.8c2.1-8.7,9.9-14.8,18.9-14.9c10.8-0.1,19.7,8.6,19.8,19.4C1409.9,262.4,1407.9,267.3,1404.2,271.1z"/>
			</g>
		</g>
		<g>
			<g>
				<path class="st2" d="M1417.8,386.6c0,0,34.7-81.6-27-123.9c0,0-72.6-53.5-118.4,9.7c0,0,28,16.4,63.7,49.7
					C1336.1,322,1390.6,342.8,1417.8,386.6z"/>
			</g>
			<g>
				<path class="st6" d="M1418.5,394.8l-3.9-6.2c-26.3-42.2-79.3-62.8-79.8-63l-0.7-0.3l-0.5-0.5c-35-32.6-62.8-49-63-49.2l-3.6-2.1
					l2.5-3.4c13-17.9,29.3-28.5,48.6-31.5c38.1-5.9,73.7,19.9,75.2,21c63.4,43.5,28.6,127.7,28.2,128.5L1418.5,394.8z M1338.2,318.7
					c6.5,2.6,51.6,21.6,78.6,59.5c6.7-20.1,20.7-78.9-28.2-112.4c-0.4-0.3-34.7-25.1-69.6-19.7c-15.9,2.5-29.7,10.9-41,25.2
					C1286.7,276.8,1309.9,292.4,1338.2,318.7z"/>
			</g>
		</g>
		<g>
			<g>
				<path class="st7" d="M1308.1,277.7c4.4,0.3,7.3,1.9,8.6,5c1.1,2.4,0,6.2-3.1,7.9c-0.8,0.4-0.5,1.6,0.4,1.1
					c6.7-3,15.4-6.3,23.4-4.4c4,0.9,7.1,3.2,6.7,7.4c-0.6,4.6-3.5,6.8-10,6.1c-6.9-0.7-17.6-3-27.5-6c-6.2-1.9-8.9-5.3-7.9-9.8
					C1300.1,279.8,1304,277.4,1308.1,277.7z"/>
			</g>
		</g>
		<g>
			<g>
				<path class="st5" d="M1337.9,323.7c0,0-99.3-99.8-155.8-67.7c0,0-33.1,19,8.9,59.1C1190.9,315.1,1260.1,291.2,1337.9,323.7z"/>
			</g>
			<g>
				<path class="st6" d="M1354.2,334.7l-17.8-7.4c-75.5-31.6-143.5-8.8-144.2-8.6l-2.2,0.8l-1.7-1.6c-16.4-15.6-23.9-30.3-22.3-43.5
					c1.7-14.4,13.6-21.3,14.1-21.6c58.4-33.1,156.3,64.2,160.4,68.3L1354.2,334.7z M1249.4,302.7c20.7-0.2,45.4,2.3,71.8,10.8
					c-28.9-25.4-96.1-77.5-137.3-54.2c-0.3,0.2-9.1,5.4-10.3,16c-1.2,10.2,5.2,22.4,18.4,35.4C1198.8,308.7,1220.1,303,1249.4,302.7
					z"/>
			</g>
		</g>
		<g>
			<g>
				<path class="st6" d="M1367.1,253.2c0,0,55.4,31.8-3,80.1c0,0,37.9,19.9,53.8,53.3C1417.8,386.6,1457.4,294.8,1367.1,253.2z"/>
			</g>
		</g>
		<g>
			<g>
				<path class="st8" d="M1314.6,672.6c-16.8,0.1-100.5-7.1-127.6-9.7c-7.6-0.7-15.1-2.7-21.8-6.3c-14.1-7.6-27.4-23.4,19.8-50
					l39.4,7.1c0,0-54.8,26.7,32.2,25.9l65.6,3.7c0,0,14.3-36.2,45.6-20.2c0,0,28.1,15.2,18.6,45.1c0,0,15.7,89-52.5,96.1
					c0,0-51.8,8.2-57.5,0.5c0,0-19.5-41.8,31.3-49.6c4.9-0.7,10.4-1.2,16.6-1.2c0,0-10.5-2.7-22.6,1.2
					C1301.7,715.1,1311.5,706.7,1314.6,672.6z"/>
			</g>
			<g>
				<path class="st3" d="M1295,770.6c-9.8,0.1-18.1-1-20.6-4.3c-0.1-0.1-0.2-0.3-0.3-0.4c-0.3-0.7-8.5-18.5-0.3-33.9
					c4.5-8.5,13.1-14.4,25.5-17.6c0.1-0.4,0.4-0.8,0.7-1.1c0.1-0.1,8.6-8.1,11.8-38c-22.4-0.5-101.4-7.4-125-9.7
					c-8.5-0.8-16.2-3-22.8-6.6c-9.4-5.1-14.4-11.5-14.5-18.7c-0.1-11.1,11.1-22.8,34.2-35.8c0.5-0.3,1.1-0.4,1.7-0.3l39.4,7.1
					c1.1,0.2,1.9,1.1,2.1,2.2c0.1,1.1-0.4,2.2-1.4,2.6c-7.1,3.4-16.4,10.1-15.5,13.6c0.4,1.8,5.1,7.8,46.6,7.4l64.1,3.6
					c2.2-4.7,9.3-17.6,22-22.4c8.2-3.1,17-2.2,26.4,2.5c0.3,0.2,29.5,16.3,20,47.6c1,5.9,7,49-13.7,76.5
					c-9.6,12.7-23.4,20.1-41.1,21.9C1326.8,767.9,1309.3,770.4,1295,770.6z M1278.6,763.4c3.6,3.8,31.1,2.1,55-1.7
					c16.4-1.7,29-8.4,37.7-19.9c20.5-27.2,12.8-72.7,12.7-73.2c-0.1-0.4,0-0.8,0.1-1.2c8.8-27.6-17.1-42-17.4-42.1
					c-7.9-4.1-15.4-4.8-22.2-2.3c-13.3,5-19.7,21.1-19.8,21.2c-0.4,1-1.4,1.7-2.5,1.6l-65.6-3.7c0,0,0,0-0.1,0
					c-43,0.4-50.1-5.9-51.4-11.4c-1.4-6.1,6-12.1,11.9-15.8l-31.4-5.6c-25.6,14.6-30.9,24.8-30.9,30.9c0.1,6.5,6.5,11.3,11.8,14.2
					c6,3.2,13,5.3,20.8,6c29.7,2.9,111.2,9.8,127.3,9.7c0.7,0,1.4,0.3,1.9,0.8s0.7,1.2,0.7,2c-1.8,20.5-6.2,32.1-9.5,38.2
					c9.6-1.6,17,0.3,17.3,0.4c1.2,0.3,2,1.5,1.9,2.8c-0.2,1.3-1.2,2.2-2.5,2.2c-5.9,0.1-11.4,0.5-16.3,1.2
					c-15.1,2.3-25.1,7.9-29.8,16.6C1271.8,746.5,1277.6,761.2,1278.6,763.4z"/>
			</g>
		</g>
		<g>
			<g>
				<path class="st9" d="M1309.9,688.8c-4.3,20.6-10.9,26.3-10.9,26.3c12.8-4.1,16.9-0.9,16.9-0.9c-6.6,0.1-5.5,0.1-10.6,0.9
					c-53.5,8.2-33,52.2-33,52.2c6.1,8.1,60.6-0.5,60.6-0.5c71.8-7.5,55.3-101.2,55.3-101.2c10-31.6-19.6-47.5-19.6-47.5
					c-21.1-10.8-34.8,1-42,10.9c-1.8,2.4-5.2,2.3-7.3,0.2c-1.7-1.7-4.2-2.7-8-1.5c-4,1.4-7.1,4.6-8.7,8.6
					c-4.6,11.3-17.1,34.8-10.3,43.1c0,0,7.9,13.1,14.3,7.7C1308.1,685.7,1310.3,686.9,1309.9,688.8z"/>
			</g>
			<g>
				<path class="st3" d="M1291.8,773.3c-10.3,0.1-18.9-1-21.6-4.5l-0.3-0.4c-0.4-0.8-8.9-19.5-0.3-35.6c4.7-8.7,13.4-14.9,26-18.3
					l1.6-1.4c0,0,5.8-5.4,9.8-23.3c-1.5,0.9-3.2,1.2-5,1c-6.2-1-11.3-9.2-11.9-10.1c-6.5-7.8,1.5-25.9,7.4-39.1c1-2.3,2-4.4,2.7-6.2
					c2-4.8,5.7-8.5,10.2-10c5.3-1.8,8.7,0.2,10.6,2.1c0.6,0.6,1.3,1,2.1,0.9c0.6,0,1-0.3,1.3-0.8c6.9-9.4,21.9-23.5,45.2-11.6
					c0.4,0.2,31,17.2,21,50c1,6.1,7.4,51.5-14.4,80.5c-10,13.3-24.6,21.1-43.2,23C1325.4,770.5,1306.9,773.2,1291.8,773.3z
					 M1274.5,765.9c3.9,4.1,32.9,2.3,58-1.7c17.3-1.8,30.6-8.9,39.8-21c21.6-28.7,13.5-76.7,13.4-77.2l-0.1-0.6l0.2-0.6
					c9.2-29.1-17.2-43.9-18.4-44.5c-18.9-9.6-31.5,0.2-38.7,10.1c-1.2,1.7-3,2.7-5.1,2.8c-2.2,0.1-4.4-0.7-6.1-2.4
					c-0.8-0.8-2.3-1.9-5.3-0.8c-3.1,1-5.7,3.6-7.1,7.1c-0.7,1.8-1.7,4-2.7,6.3c-4.7,10.6-12.6,28.4-7.9,34.1
					c1.9,3.1,5.6,7.6,8.5,8.1c0.8,0.1,1.4-0.1,2.1-0.7c1.5-1.3,3.6-1.5,5.3-0.5c1.7,1,2.5,2.9,2.1,4.8l0,0
					c-2.2,10.5-5,17.3-7.4,21.6c8.3-1.5,11.7,0.8,12.5,1.3l5.6,4.5l-7.2,0.1c-5.3,0-5.4,0.1-8,0.5l-2.2,0.3
					c-15.9,2.4-26.5,8.4-31.5,17.6C1267.3,748.1,1273.5,763.7,1274.5,765.9z"/>
			</g>
		</g>
		<g>
			<g>
				<path class="st10" d="M1437.4,452.4c-6.1-80.4-88.2-143.5-188.2-142.6c-103.4,0.9-186.5,70-185.8,154.4
					c0.8,84.3,85.2,151.9,188.5,151c93.9-0.8,171.1-58,183.9-131.6c0.5-2.7,2.4-5.1,5-5.7c0.2,0,0.3-0.1,0.5-0.1
					c7.2-1.6,12.9,6.3,9.3,12.7c-4.9,8.9-12.5,19.8-12.5,19.8c29.3-20,70.7,9.6,70.7,9.6C1550,416.3,1477.4,433.4,1437.4,452.4z"/>
			</g>
			<g>
				<path class="st3" d="M1252,617.7c-104.6,0.9-190.3-67.9-191.1-153.5c-0.8-85.6,83.7-156,188.3-156.9
					c99-0.9,181.5,60.5,190.3,140.6c0,0.4,0.4,0.6,0.7,0.5c16.6-7.4,55.7-21.9,74.1-4.6c13.3,12.5,12.3,38.4-3.1,77.1l-1.2,3
					l-2.6-1.9c-0.4-0.3-40.4-28.3-67.8-9.6l-11.5,7.9l8-11.4c0.1-0.1,7.6-10.9,12.4-19.6c1.4-2.5,0.7-5.1-0.5-6.7
					c-1.5-2-3.7-2.8-6.1-2.3c-2,0.5-3.2,1.9-3.5,3.8C1425.3,559.4,1345.1,616.9,1252,617.7z M1249.3,312.3
					c-101.8,0.9-184,69-183.3,151.8s84.2,149.4,186,148.5c90.7-0.8,168.7-56.5,181.4-129.5c0.7-3.9,3.4-6.9,7-7.8l0.5-0.1
					c4.7-1,9.3,1,11.9,5.2c2.2,3.7,1.8,8.3-0.2,12.1c-1.8,3.2-3.9,6.6-5.8,9.6c-0.3,0.4,0.2,0.9,0.7,0.8
					c23.8-7.8,50.7,6.9,59.9,12.7c0.3,0.2,0.7,0,0.8-0.3c13.2-34.5,14.2-57.3,2.9-67.9c-14.1-13.2-46.7-4.9-72.4,7.3l-2.4-0.1
					l-1.2-2C1428.9,373,1347.4,311.4,1249.3,312.3z"/>
			</g>
		</g>
		<path class="st11" d="M1389.1,527.1c-1.1-8-7.4-11.8-7.7-12c-15.3-9-30.9,2-37,9.1c-54.4,61.7-107.6,64.3-127.8,62.5
			c-1.8-0.1-3.2,1-3.5,2.7s0.7,3.3,2.3,3.8c18,5.2,34.8,7.2,50.1,7.1c70.8-0.6,112-47.7,112.4-48.2
			C1386.4,543,1390.2,534.6,1389.1,527.1z"/>
		<g>
			<g>
				<path class="st2" d="M1118.1,379.3c-0.5,0-0.9-0.1-1.4-0.4c-1.2-0.7-1.6-2.3-0.8-3.5c1.2-1.9,30-46.6,126-55.9
					c1.5-0.2,2.6,0.9,2.8,2.3c0.1,1.4-0.9,2.6-2.3,2.8c-93.3,9-121.9,53.1-122.2,53.5C1119.8,378.9,1119,379.3,1118.1,379.3z"/>
			</g>
		</g>
		<g>
			<g>
				<path class="st3" d="M1211.5,451.8L1470.3,342c3.4-1.5,6.3,3,3.5,5.5l-191.5,175.6c-1.1,1-2.6,1.1-3.9,0.4l-69.9-39.4
					c-1.1-0.6-2.5-0.6-3.5,0.2l-49.9,35.3c-1.3,0.9-3.2,0.8-4.3-0.4l-115.1-120.4c-2.4-2.5,0.2-6.5,3.5-5.4l170.1,58.5
					C1209.9,452.1,1210.8,452.1,1211.5,451.8z"/>
			</g>
		</g>
		<g>
			<g>
				<polygon class="st2" points="1265.6,511.7 1443.7,356.2 1419.9,366.4 1258.6,507.9 				"/>
			</g>
		</g>
		<g>
			<g>
				<path class="st2" d="M1410.2,609.1c0,0,3.6,44.6,24.2,18c0,0,7.1,15.3,24.6,9.2c0,0,6.5-3.4,8.2-12c0,0,8,11.9,21.1,8
					c0,0,15.9,0,15.5-21.9l0.3-20.5c-0.1-1.7,1.2-3.6,2.6-5.3c3.6-4.2,5.9-9.4,5.8-14.8c0-12.8-7.9-13.4-7.9-13.4
					c29.6-13.8,5.1-34.5,5.1-34.5c-37.2-27.4-68.5-16.3-68.5-16.3c-42.1,14.9-26.4,40.6-26.4,40.6c-7.6,32.8-7.8,41.2-5.7,54.7
					L1410.2,609.1z"/>
			</g>
			<g>
				<path class="st3" d="M1451.5,640.2c-9,0.1-14.6-5.2-17.3-8.8c-5,5.6-9.5,7.6-13.8,6.3c-10.3-3.1-12.4-25.6-12.6-28.4l-1-8.2
					c-2.2-14.1-1.8-23.1,5.5-54.7c-1.4-2.7-4.6-10.6-1.3-19.7c3.5-10,13.5-18,29.6-23.7c1.3-0.5,33-11.3,70.9,16.7
					c0.6,0.5,11.9,10.2,10.4,21.6c-0.8,5.8-4.6,10.8-11.5,14.9c2.5,2.1,4.8,6.1,4.9,13.5c0,5.8-2.3,11.7-6.5,16.5
					c-1.5,1.7-2,3-2,3.6l-0.3,20.6c0.2,8.3-1.9,14.7-6.2,19.1c-4.5,4.6-9.9,5.2-11.5,5.3c-8.9,2.5-16.2-1.4-20.5-5.5
					c-2.8,6.4-7.9,9.1-8.1,9.2C1457,639.7,1454.1,640.2,1451.5,640.2z M1435,622.3l1.8,3.8c0.2,0.5,6.4,13.1,21.5,7.9l0,0
					c-0.1,0,5.1-3,6.6-10.1l1.2-5.9l3.4,5c0.3,0.4,7.2,10.3,18.3,7l0.4-0.1h0.4c0.2,0,4.7-0.1,8.3-3.9c3.2-3.3,4.8-8.5,4.6-15.4
					l0.3-20.6c-0.1-2,1-4.3,3.2-6.9c3.4-3.9,5.2-8.6,5.2-13.2c0-10.1-5.4-10.9-5.6-10.9l-0.9-2.5l0.1-2.4c8-3.7,12.4-8.2,13.1-13.3
					c1.2-8.7-8.4-16.9-8.5-17c-35.4-26.1-65.7-16-66-15.9c-14.5,5.1-23.4,12-26.4,20.5c-3.1,8.7,1.3,16.3,1.4,16.4l0.5,0.9l-0.2,1
					c-7.7,33.2-7.7,41.1-5.7,53.7l1,8.4c0.7,9.1,4,22.5,9,24c2.6,0.8,6.4-1.8,10.6-7.3L1435,622.3z"/>
			</g>
		</g>
		<g>
			<g>
				<path class="st2" d="M1466.5,594.8c0,0-2.8,9.3-1.9,16"/>
			</g>
			<g>
				<path class="st3" d="M1464.6,613.4c-1.3,0-2.4-0.9-2.5-2.2c-1-7.2,1.8-16.7,2-17.1c0.4-1.3,1.8-2.1,3.2-1.7
					c1.3,0.4,2.1,1.8,1.7,3.2c0,0.1-2.7,8.8-1.8,14.9c0.2,1.4-0.8,2.7-2.2,2.9C1464.9,613.4,1464.8,613.4,1464.6,613.4z"/>
			</g>
		</g>
		<g>
			<g>
				<path class="st2" d="M1436.4,597.3c0,0-2.7,6.1-1.5,11.5"/>
			</g>
			<g>
				<path class="st3" d="M1434.9,611.4c-1.2,0-2.2-0.8-2.5-2c-1.3-6.1,1.5-12.8,1.6-13.1c0.6-1.3,2-1.9,3.3-1.3
					c1.3,0.6,1.9,2.1,1.3,3.3c0,0.1-2.3,5.5-1.3,10c0.3,1.4-0.6,2.7-1.9,3C1435.3,611.4,1435.1,611.4,1434.9,611.4z"/>
			</g>
		</g>
		<g>
			<g>
				<path class="st3" d="M1482.9,559c-0.2,0-0.4-0.1-0.6-0.2c-11.9-6.9-37.4-12.6-52.5-9.6c-0.7,0.1-1.4-0.3-1.5-1s0.3-1.4,1-1.5
					c15.5-3.1,41.9,2.8,54.2,9.9c0.6,0.4,0.8,1.1,0.5,1.7C1483.8,558.8,1483.4,559,1482.9,559z"/>
			</g>
		</g>
		<g>
			<g>
				<path class="st12" d="M1302.8,610l-46.5,85.2c0,0,19.6,7.3,31.1,19.2c20.4,20.9,27.6,50-11.6,55.1c0,0-123.5,8.7-164.4,1
					c-7.7-1.5-13.5-8.1-14.1-15.9c-1.6-21.8,8.3-66.8,118.8-63.7l39.2-75.1C1255.3,615.7,1275.3,614.5,1302.8,610z"/>
			</g>
		</g>
		<g>
			<g>
				<path class="st9" d="M1259.3,690.9l-3,5.5c0,0,19.6,7.3,31.1,19.2c20.4,20.9,27.6,50-11.6,55.1c0,0-123.5,8.7-164.4,1
					c-7.7-1.5-13.5-8.1-14.1-15.9c-1.6-21.8,8.3-66.8,118.8-63.7l0,0c1.1-4.8,2.4-9.6,4.4-14.2c1-2.4,2.4-4.2,5.8-4.9
					c6.4-1.3,21.1,2.1,27.9,4.7C1259.7,679.6,1262,685.8,1259.3,690.9z"/>
			</g>
			<g>
				<path class="st3" d="M1175.5,777.3c-25.7,0.2-50-0.5-64.5-3.2c-8.8-1.7-15.5-9.2-16.2-18.2c-0.8-10.5,1-25.7,13.7-39.1
					c18.5-19.4,54-28.6,105.6-27.4c1.1-4.7,2.5-8.8,4.1-12.6c1-2.5,2.9-5.4,7.7-6.4c7.2-1.4,22.7,2.3,29.3,4.8c3.3,1.2,5.8,3.8,7,7
					s0.9,6.8-0.7,9.9l-1.6,3c5.9,2.5,20,9.1,29.4,18.7c13.9,14.2,20.1,30.1,16.1,41.5c-2.3,6.7-9.3,15.2-29.2,17.8
					C1272.8,773.4,1222,776.9,1175.5,777.3z M1202.2,694.4c-43.7,0.4-74,9.1-90,25.9c-11.5,12-13,25.8-12.3,35.2
					c0.5,6.8,5.4,12.4,12,13.6c40.1,7.5,162.6-1,163.8-1c13.5-1.8,22.2-6.8,24.9-14.4c3.3-9.6-2.4-23.5-14.9-36.3
					c-11.1-11.3-30-18.5-30.2-18.6l-2.8-1l4.4-8.1c1-1.8,1.1-3.8,0.4-5.7s-2.1-3.3-4-4c-6.9-2.5-20.9-5.7-26.6-4.5
					c-2.4,0.5-3.2,1.5-4,3.4c-1.7,4-3.1,8.5-4.2,13.8l-0.4,2.1l-2.1-0.1C1211.3,694.5,1206.7,694.4,1202.2,694.4z"/>
			</g>
		</g>
		<g>
			<g>
				<path class="st3" d="M1206.5,437.9c-0.3,0-0.5,0-0.8-0.1c-1.3-0.4-2.1-1.8-1.7-3.2c0-0.1,2.6-8.8-1.2-15.4
					c-2-3.6-5.7-6-10.7-7.2c-5.7-1.3-10.3-0.9-13.6,1.5c-4.6,3.3-5.3,9.4-5.3,9.4c-0.1,1.4-1.3,2.4-2.8,2.3
					c-1.4-0.1-2.4-1.4-2.3-2.8c0-0.3,0.8-8.4,7.3-13.1c4.5-3.2,10.5-4,17.8-2.3c6.5,1.5,11.2,4.8,14,9.6c4.9,8.6,1.7,19,1.6,19.4
					C1208.6,437.2,1207.6,437.9,1206.5,437.9z"/>
			</g>
		</g>
		<g>
			<g>
				<path class="st9" d="M1222,695.4c0,0,9.9-3,22.6,3.9"/>
			</g>
			<g>
				<path class="st3" d="M1244.6,700.5c-0.2,0-0.4,0-0.6-0.2c-12-6.5-21.5-3.8-21.6-3.8c-0.7,0.2-1.4-0.2-1.6-0.9s0.2-1.4,0.8-1.6
					c0.4-0.1,10.6-3.1,23.6,4c0.6,0.3,0.8,1.1,0.5,1.7C1245.5,700.3,1245,700.5,1244.6,700.5z"/>
			</g>
		</g>
		<g>
			<g>
				<path class="st9" d="M1315.6,681.5c0,0,9.6-18.7,8.8-36.9"/>
			</g>
			<g>
				<path class="st3" d="M1315.6,682.7c-0.2,0-0.4,0-0.6-0.1c-0.6-0.3-0.9-1.1-0.5-1.7c0.1-0.2,9.5-18.6,8.7-36.3
					c0-0.7,0.5-1.3,1.2-1.3c0.8,0,1.3,0.5,1.3,1.2c0.8,18.4-8.5,36.8-8.9,37.6C1316.5,682.5,1316,682.7,1315.6,682.7z"/>
			</g>
		</g>
		<g>
			<g>
				<path class="st13" d="M997.7,522.9"/>
			</g>
		</g>
		<g>
			<g>
				<path class="st6" d="M1213.5,559.5c-6.6,0.1-11.9-8.1-12-18.6s5-18.8,11.7-18.8s11.9,8.1,12,18.6
					C1225.2,551.1,1220.1,559.4,1213.5,559.5z M1213.2,527.1c-3.2,0-6.7,5.7-6.6,13.7s3.7,13.6,6.9,13.6c3.2,0,6.7-5.7,6.6-13.7
					C1220,532.6,1216.4,527.1,1213.2,527.1z"/>
			</g>
		</g>
		<g>
			<g>
				<path class="st6" d="M1215.5,577.7c-11.5,0.1-21-8.2-21.1-18.5c0-1.4,1.1-2.6,2.5-2.6s2.6,1.1,2.6,2.5
					c0.1,7.5,7.2,13.6,15.9,13.5c8.7-0.1,15.8-6.3,15.7-13.8c0-1.4,1.1-2.6,2.5-2.6s2.6,1.1,2.6,2.5
					C1236.3,569.1,1227,577.6,1215.5,577.7z"/>
			</g>
		</g>
		<g>
			<g>
				<path class="st6" d="M1231.1,524.9c-1.4,0-2.6-1.1-2.6-2.5c-0.1-7.5-7.2-13.6-15.9-13.5c-8.7,0.1-15.7,6.3-15.7,13.8
					c0,1.4-1.1,2.6-2.5,2.6s-2.6-1.1-2.6-2.5c-0.1-10.3,9.2-18.8,20.7-18.9c11.5-0.1,21,8.2,21.1,18.5
					C1233.7,523.7,1232.6,524.8,1231.1,524.9z"/>
			</g>
		</g>
		<g>
			<g>
				<path class="st2" d="M1190.1,482.1c-0.6,0-1.3-0.2-1.8-0.7c-16-15.3-38.7-23.9-62.2-23.7c-4.1,0-8.2,0.3-12.2,0.9
					c-1.4,0.2-2.7-0.8-2.9-2.2c-0.2-1.4,0.8-2.7,2.2-2.9c4.2-0.6,8.5-0.9,12.8-0.9c24.8-0.2,48.8,8.9,65.7,25.1c1,1,1.1,2.6,0.1,3.6
					C1191.4,481.8,1190.7,482.1,1190.1,482.1z"/>
			</g>
		</g>
		<g>
			<g>
				<circle class="st6" cx="1264.1" cy="540.2" r="2.5"/>
			</g>
		</g>
		<g>
			<g>
				<circle class="st6" cx="1252.2" cy="540.5" r="3"/>
			</g>
		</g>
		<g>
			<g>
				<circle class="st6" cx="1258.6" cy="530.6" r="2.5"/>
			</g>
		</g>
		<g>
			<g>
				<path class="st6" d="M1252.6,558.9c-7.2,0.1-16.4-2.9-20.3-14.5c-2-5.8-1.8-11,0.6-15.4c3.8-7,11.9-9.2,12.2-9.3
					c1.4-0.4,2.7,0.5,3.1,1.8c0.4,1.4-0.5,2.7-1.8,3.1c-0.1,0-6.3,1.7-9.1,6.8c-1.6,3.1-1.7,6.9-0.2,11.3
					c5,14.6,19.7,10.5,20.3,10.3c1.4-0.4,2.8,0.4,3.2,1.7c0.4,1.4-0.4,2.8-1.7,3.2C1257.1,558.5,1255,558.8,1252.6,558.9z"/>
			</g>
		</g>
		<g class="st14">
			<g>
				
					<ellipse transform="matrix(1 -8.983661e-03 8.983661e-03 1 -4.7502 10.1447)" class="st15" cx="1126.8" cy="533.8" rx="86.4" ry="75.2"/>
			</g>
		</g>
		<g>
			<g>
				<path class="st16" d="M1127.5,611.5c-49,0.4-89.3-34.8-89.7-78.6c-0.3-35,24.5-65.7,61.8-76.4c1.4-0.4,2.8,0.4,3.1,1.7
					c0.4,1.4-0.4,2.8-1.7,3.1c-35.1,10.1-58.4,38.8-58.2,71.5c0.4,41,38.3,74,84.5,73.6s83.6-34.1,83.2-75.1
					c-0.1-15.7-5.7-30.7-16.2-43.3c-0.9-1.1-0.7-2.7,0.3-3.6c1.1-0.9,2.7-0.8,3.6,0.3c11.2,13.5,17.2,29.6,17.3,46.5
					C1216.1,575,1176.6,611,1127.5,611.5z"/>
			</g>
		</g>
	</g>
</g>
<g>
	<g>
		<g>
			<path class="st17" d="M1056,651.5c-1,0.3-1.8,0.7-2.4,1.1c-0.5,0.3-0.1,0.9,0.4,0.6c1.4-0.9,3.5-1.4,5.9-1.4
				c3.2,0,5.3,2.2,5.5,5.9c0.6,6.8-4.3,8.3-9.5,8.3c-5.6,0-8.4-2.8-9.1-7.4c-0.8-5.1-0.5-15.2,0.1-20.2c0.4-3.2,1.8-4.2,4.6-4.2
				s4.4,1.1,4.7,4.3C1056.5,641.6,1056.5,649.8,1056,651.5z"/>
		</g>
		<g>
			<path class="st17" d="M1078.9,665.9c0.1-1.6,0.3-7.3,0.3-12.8c-1.2,0.1-2.9,0.1-4.3,0.1c0,4.3-0.1,8.7-0.2,11.7
				c-0.1,3.2-1.8,5.2-4,5.2c-2.3,0-3.6-1.9-3.5-5.2c0.1-8.8,0.4-18.8-0.1-27.5c-0.2-2.8,1.3-5.1,3.4-5.1c2,0,4,0.8,4.1,5.4
				c0,1.8,0.2,5,0.2,8.8c1.3-0.1,3-0.1,4.3-0.1c-0.1-3.7-0.2-7.2-0.4-9.6c-0.3-3.6,1.3-5.4,3.4-5.4s3.9,1.1,4,5.7
				c0.1,4.7,0.5,21.3,0.1,28.8c-0.1,3.2-1.7,5.2-4,5.2C1080.1,671.1,1078.7,669.2,1078.9,665.9z"/>
		</g>
	</g>
	<g>
		<g>
			<path class="st17" d="M1092.7,660.9c-0.2-7.8-0.4-13.9-0.3-23.4c0-2.2,1.3-3.3,4-3.4c5.3-0.2,11.5-0.3,16.5,0
				c2.7,0.2,3.9,1.2,4.1,4.3c0.3,7.3,0.1,14.6-0.1,22.4c-0.1,3.2-1.3,4.2-5.8,4.5c-4,0.3-8.6,0.3-12.6,0
				C1094,665.1,1092.7,664,1092.7,660.9z M1100.1,656.9c0,1.4,0.3,1.6,1.8,1.7c1.4,0.1,4.5,0.1,5.7,0c1.5-0.1,1.8-0.3,1.8-1.7
				c0.2-3.5,0.1-10.5-0.2-15.6c-0.1-0.8-0.2-1-1.1-1c-1.9-0.1-5.4-0.1-7.1,0c-0.9,0-1.1,0.3-1.1,1
				C1100,646.8,1100.1,653.4,1100.1,656.9z M1126.7,631.4c2.3,0,4.2,1.3,4.6,5.9c0.5,5.7,0.5,20.9,0.1,28.4
				c-0.1,3.2-1.4,5.2-3.9,5.2s-4-1.9-3.9-5.2c0.3-8.8,0.2-20.5,0-25.1c0-1.4-0.1-3.3-0.2-4.9
				C1123.3,632.9,1124.3,631.4,1126.7,631.4z"/>
		</g>
	</g>
	<g>
		<g>
			<path class="st17" d="M1009.6,657.9c3.1-0.5,5.3,0.2,6.8,2.1c1.1,1.5,1,4.4-0.8,6.1c-0.5,0.4-0.1,1.2,0.5,0.7
				c4.1-3.2,9.6-7,15.5-7c2.9,0,5.4,1.1,5.8,4.1c0.3,3.3-1.3,5.4-5.9,5.9c-4.9,0.7-12.6,0.7-19.9,0.3c-4.6-0.3-7-2.3-7-5.7
				C1004.4,660.7,1006.7,658.4,1009.6,657.9z"/>
		</g>
		<g>
			<path class="st17" d="M999.3,652.7c0-1.7,1.1-3.5,4.3-3.4c3.4,0.1,8.3,1.4,13.5,1.4c0-1.2,0-2.4,0-3.6c-2.1,0-4.2,0-6-0.1
				c-5.9-0.2-6.4-1.6-6.6-5.2c-0.1-2.6-0.1-5.4,0.1-7.9c0.2-2.2,1.3-3.3,4-3.4c8.4-0.1,17.1-0.4,24.5,0c2.7,0.1,3.8,1.2,4,3.4
				c0.2,2.5,0.2,5,0.2,7.9c0,3.1-0.8,4.8-4.8,5c-2.3,0.2-4.8,0.2-7.3,0.3v3.6c5.1,0,9.9-1.4,12.8-1.5c3.4-0.1,4.3,1.5,4.4,3.3
				c0.1,2.3-1.4,3-3.9,3.4c-15.4,2.6-19.2,2.6-34.7,0.1C1000.6,655.6,999.3,654.8,999.3,652.7z M1013.1,641c4.4,0.1,10.7,0.2,15.4,0
				c1.1-0.1,1.3-0.4,1.3-1.1v-2.1c0-0.8-0.2-0.9-1.1-1c-3.5-0.3-12.2-0.2-15.7,0c-0.9,0.1-1.1,0.3-1.1,1v2.1
				C1011.9,640.7,1012.1,640.9,1013.1,641z"/>
		</g>
		<g>
			<g>
				<path class="st18" d="M1024,645.1c-0.1,0-0.2,0-0.3-0.1l-6.3-3.6h-0.1c-0.1,0-0.1,0-0.1,0l-4.5,3.2c-0.1,0.1-0.2,0.1-0.3,0.1
					c-0.2,0-0.3-0.1-0.4-0.2l-10.3-10.8c-0.2-0.2-0.2-0.4-0.1-0.6c0.1-0.2,0.3-0.4,0.5-0.4c0.1,0,0.1,0,0.2,0l15.3,5.3h0.1h0.1
					l23.4-9.9c0.1,0,0.2,0,0.2,0c0.2,0,0.5,0.2,0.5,0.4c0.1,0.2,0,0.5-0.2,0.6l-17.2,15.8C1024.3,645,1024.1,645.1,1024,645.1z"/>
			</g>
			<g>
				<path class="st2" d="M1041.2,628.3c0.3,0,0.6,0.5,0.3,0.7l-17.2,15.8c-0.1,0.1-0.2,0.1-0.3,0.1c-0.1,0-0.1,0-0.2-0.1l-6.3-3.6
					c-0.1,0-0.1-0.1-0.2-0.1c-0.1,0-0.2,0-0.2,0.1l-4.5,3.2c-0.1,0.1-0.2,0.1-0.2,0.1c-0.1,0-0.2,0-0.3-0.1l-10.3-10.8
					c-0.3-0.3,0-0.7,0.3-0.7h0.1l15.3,5.3h0.1c0.1,0,0.1,0,0.2,0L1041.2,628.3C1041.1,628.3,1041.2,628.3,1041.2,628.3 M1041.2,628
					c-0.1,0-0.2,0-0.3,0.1l-23.4,9.9l-0.2,0.3l0.1-0.3l-15.3-5.3c-0.1,0-0.2,0-0.3,0c-0.3,0-0.6,0.2-0.7,0.5
					c-0.1,0.3-0.1,0.6,0.1,0.8l10.3,10.8c0.1,0.1,0.3,0.2,0.5,0.2s0.3,0,0.4-0.1l4.5-3.2c0,0,0,0,0.1,0l0,0l6.3,3.6
					c0.1,0.1,0.2,0.1,0.4,0.1s0.4-0.1,0.5-0.2l17.2-15.8c0.2-0.2,0.3-0.5,0.2-0.8C1041.8,628.2,1041.5,628,1041.2,628L1041.2,628z"
					/>
			</g>
		</g>
		<g>
			<polygon class="st2" points="1022.7,643.8 1040,629.1 1036.8,630.5 1022,643.5 			"/>
		</g>
	</g>
</g>
<g>
	<path d="M700.7,244.1c-2.6,1.6-4.6,3.2-5.8,4.7c-1.3,1.5-2.2,3.1-2.7,4.9c0.7-0.4,1.4-0.6,2.2-0.6c0.9,0,1.6,0.3,2.1,0.8
		s0.7,1.2,0.7,2s-0.2,1.5-0.5,2.2s-0.8,1.2-1.4,1.7c-0.6,0.5-1.2,0.8-1.9,1.1c-0.7,0.3-1.5,0.4-2.3,0.4c-2.4,0-3.6-1.2-3.6-3.7
		c0-1.5,0.2-2.9,0.7-4.2c0.4-1.3,1.2-2.5,2.1-3.7c1-1.2,2.2-2.4,3.8-3.6c1.5-1.2,3.4-2.5,5.5-3.8L700.7,244.1z M714.1,244.1
		c-2.6,1.6-4.6,3.2-5.8,4.7c-1.3,1.5-2.2,3.1-2.7,4.9c0.7-0.4,1.4-0.6,2.2-0.6c0.9,0,1.6,0.3,2.1,0.8s0.7,1.2,0.7,2
		s-0.2,1.5-0.5,2.2s-0.8,1.2-1.4,1.7c-0.6,0.5-1.2,0.8-1.9,1.1c-0.7,0.3-1.5,0.4-2.3,0.4c-2.4,0-3.6-1.2-3.6-3.7
		c0-1.5,0.2-2.9,0.7-4.2c0.4-1.3,1.2-2.5,2.1-3.7c1-1.2,2.2-2.4,3.8-3.6c1.5-1.2,3.4-2.5,5.5-3.8L714.1,244.1z"/>
	<path d="M718.1,277.2c0.7-1.8,1.1-3.3,1.4-4.4c0.3-1.1,0.4-2,0.4-2.7s-0.1-1.1-0.3-1.3s-0.4-0.3-0.7-0.3c-0.5,0-1.1,0.2-1.7,0.7
		c-0.6,0.5-1.2,1.1-1.8,1.7c-0.6,0.7-1.1,1.3-1.6,2s-0.8,1.2-1,1.5l-2-1.3c0.6-1,1.3-2.2,2.3-3.4c1-1.3,2.1-2.4,3.4-3.5
		c1.3-1.1,2.6-2,3.9-2.7s2.6-1.1,3.9-1.1c1.2,0,2,0.3,2.6,1s0.9,1.9,0.9,3.7c0,1.4-0.4,3.2-1.2,5.5s-1.9,5.2-3.2,8.8l-2.6,7.1
		c-0.1,0.2-0.2,0.6-0.4,1.1s-0.3,1-0.5,1.5s-0.3,1.1-0.4,1.6c-0.1,0.5-0.2,0.9-0.2,1.3s0.1,0.8,0.4,1.1c0.2,0.3,0.6,0.5,1.1,0.5
		c0.7,0,1.4-0.3,2.2-0.9c0.7-0.6,1.5-1.3,2.2-2.1c0.7-0.8,1.3-1.6,1.9-2.4c0.6-0.8,1-1.5,1.3-1.9l2.1,1.2c-0.6,1.1-1.3,2.4-2.3,3.7
		c-1,1.4-2,2.6-3.3,3.7c-1.2,1.1-2.5,2.1-4,2.9c-1.4,0.8-2.9,1.2-4.5,1.2c-1.4,0-2.4-0.4-3-1.1c-0.7-0.7-1-1.9-1-3.5
		c0-1.4,0.2-2.8,0.7-4.4c0.4-1.6,1.1-3.5,1.9-5.9L718.1,277.2z M728.4,251c-1.2,0-2.2-0.4-3-1.2c-0.9-0.8-1.3-1.8-1.3-3.1
		c0-1.3,0.4-2.3,1.3-3.2c0.8-0.9,1.9-1.3,3.1-1.3c1.3,0,2.4,0.4,3.2,1.3s1.3,1.9,1.3,3.2c0,1.2-0.4,2.2-1.3,3.1
		C730.6,250.6,729.6,251,728.4,251z"/>
	<path d="M762.7,266.1c-1.1,0-2.4,0.6-3.8,1.7c-1.4,1.1-2.9,2.7-4.3,4.5c-1.5,1.9-2.9,4-4.2,6.5c-1.4,2.4-2.5,4.9-3.4,7.4l-5.2,14
		h-6.2l5.2-16c0.8-2.6,1.5-4.8,2.1-6.6c0.6-1.8,1-3.3,1.4-4.6c0.3-1.2,0.6-2.2,0.7-3c0.1-0.8,0.2-1.4,0.2-1.9c0-1.3-0.4-1.9-1.2-1.9
		c-0.5,0-1.1,0.3-1.8,1s-1.4,1.5-2.1,2.6c-0.7,1-1.4,2.3-2.1,3.6c-0.7,1.4-1.2,2.7-1.7,4.1l-2.1-1c1.6-4.8,3.5-8.4,5.5-10.6
		c2-2.3,4.4-3.4,7-3.4c1.5,0,2.6,0.4,3.2,1.3s0.9,2.3,0.9,4.3c0,2.4-0.4,4.5-1.2,6.4l0.2,0.2c2.4-4.2,4.8-7.3,7.2-9.2
		c2.5-1.9,5.1-2.9,8-2.9c2.1,0,3.6,0.5,4.7,1.5c1.1,1,1.6,2.4,1.6,4.2c0,0.6-0.1,1.3-0.2,2c-0.1,0.7-0.3,1.6-0.6,2.7
		s-0.7,2.3-1.2,3.7c-0.5,1.4-1.1,3.2-1.8,5.3c-1.1,3.2-2,5.8-2.7,8c-0.7,2.1-1,3.7-1,4.5c0,0.7,0.2,1.1,0.7,1.1
		c0.7,0,1.6-0.5,2.9-1.6c1.3-1.1,3-2.8,5.1-5.2l1.8,1c-0.7,1.4-1.7,2.8-2.9,4.1c-1.2,1.3-2.4,2.5-3.7,3.6s-2.6,1.9-3.8,2.6
		s-2.4,1-3.3,1c-1.2,0-2.1-0.5-2.8-1.5s-1-2.4-1-4.1c0-0.7,0.1-1.3,0.2-2c0.1-0.7,0.4-1.6,0.7-2.9c0.4-1.3,0.9-3,1.6-5.1
		c0.7-2.1,1.7-4.9,3-8.4c0.4-1.2,0.8-2.2,1-3.1c0.3-0.8,0.5-1.6,0.7-2.2s0.3-1.2,0.4-1.6c0.1-0.5,0.1-0.9,0.1-1.3
		C764.6,267,764,266.1,762.7,266.1z"/>
	<path d="M809.6,251.8c0.4-1.3,0.7-2.3,0.8-3.1c0.2-0.8,0.3-1.4,0.3-1.8c0-0.7-0.5-1.2-1.4-1.5s-2.6-0.4-5-0.4l0.8-2.8h13.5
		l-7.8,28.4c-1,3.6-1.8,6.7-2.5,9.3c-0.7,2.6-1.2,4.7-1.6,6.5s-0.7,3.2-0.8,4.3s-0.2,2.1-0.2,2.8c0,1.1,0.2,1.8,0.5,2.2
		c0.3,0.4,0.7,0.6,1.3,0.6c1,0,2.1-0.9,3.3-2.6s2.3-4,3.2-6.8l2.7,0.6c-1.6,4.6-3.3,8-5.2,10.2s-4,3.3-6.4,3.3c-1.7,0-3-0.5-3.9-1.6
		s-1.4-2.6-1.4-4.6c0-0.5,0-1,0.1-1.6s0.2-1.1,0.4-1.6l-0.6-0.1c-1.8,3.1-3.9,5.4-6.4,7.1s-4.9,2.5-7.2,2.5c-1.2,0-2.3-0.3-3.4-0.8
		c-1-0.5-1.9-1.3-2.7-2.2c-0.7-1-1.3-2.1-1.8-3.4s-0.7-2.8-0.7-4.4c0-2,0.3-4.1,0.9-6.3s1.5-4.3,2.6-6.3s2.4-4,3.8-5.8
		c1.4-1.8,3-3.4,4.6-4.8s3.3-2.5,5-3.3s3.4-1.2,5-1.2s2.8,0.3,3.6,0.9s1.6,1.6,2.4,2.9L809.6,251.8z M800.1,266.2
		c-1.2,0-2.4,0.4-3.7,1.2c-1.2,0.8-2.4,1.8-3.6,3.1c-1.2,1.3-2.3,2.8-3.3,4.4c-1,1.7-1.9,3.4-2.6,5.3c-0.7,1.8-1.3,3.7-1.8,5.5
		s-0.7,3.6-0.7,5.3c0,1.7,0.4,3,1.3,4c0.8,1,2,1.5,3.4,1.5c1.1,0,2.2-0.4,3.3-1.3s2.2-2,3.3-3.4s2.1-3,3-4.8c1-1.8,1.8-3.6,2.5-5.5
		s1.3-3.8,1.7-5.6s0.6-3.5,0.6-5c0-1.4-0.3-2.6-0.8-3.4C802.2,266.6,801.3,266.2,800.1,266.2z"/>
	<path d="M827.9,277.2c0.7-1.8,1.1-3.3,1.4-4.4c0.3-1.1,0.4-2,0.4-2.7s-0.1-1.1-0.3-1.3s-0.4-0.3-0.7-0.3c-0.5,0-1.1,0.2-1.7,0.7
		c-0.6,0.5-1.2,1.1-1.8,1.7c-0.6,0.7-1.1,1.3-1.6,2s-0.8,1.2-1,1.5l-2-1.3c0.6-1,1.3-2.2,2.3-3.4c1-1.3,2.1-2.4,3.4-3.5
		c1.3-1.1,2.6-2,3.9-2.7s2.6-1.1,3.9-1.1c1.2,0,2,0.3,2.6,1s0.9,1.9,0.9,3.7c0,1.4-0.4,3.2-1.2,5.5s-1.9,5.2-3.2,8.8l-2.6,7.1
		c-0.1,0.2-0.2,0.6-0.4,1.1s-0.3,1-0.5,1.5s-0.3,1.1-0.4,1.6c-0.1,0.5-0.2,0.9-0.2,1.3s0.1,0.8,0.4,1.1c0.2,0.3,0.6,0.5,1.1,0.5
		c0.7,0,1.4-0.3,2.2-0.9c0.7-0.6,1.5-1.3,2.2-2.1c0.7-0.8,1.3-1.6,1.9-2.4c0.6-0.8,1-1.5,1.3-1.9l2.1,1.2c-0.6,1.1-1.3,2.4-2.3,3.7
		c-1,1.4-2,2.6-3.3,3.7c-1.2,1.1-2.5,2.1-4,2.9c-1.4,0.8-2.9,1.2-4.5,1.2c-1.4,0-2.4-0.4-3-1.1c-0.7-0.7-1-1.9-1-3.5
		c0-1.4,0.2-2.8,0.7-4.4c0.4-1.6,1.1-3.5,1.9-5.9L827.9,277.2z M838.2,251c-1.2,0-2.2-0.4-3-1.2c-0.9-0.8-1.3-1.8-1.3-3.1
		c0-1.3,0.4-2.3,1.3-3.2c0.8-0.9,1.9-1.3,3.1-1.3c1.3,0,2.4,0.4,3.2,1.3s1.3,1.9,1.3,3.2c0,1.2-0.4,2.2-1.3,3.1
		C840.5,250.6,839.4,251,838.2,251z"/>
	<path d="M874.5,275.3c0-0.9-0.1-1.8-0.2-2.6c-0.2-0.8-0.4-1.5-0.6-2.2s-0.4-1.4-0.6-2c-0.2-0.7-0.2-1.3-0.2-2c0-2.7,1.2-4,3.6-4
		c1.4,0,2.5,0.5,3.1,1.5s0.9,2.7,0.9,5.1c0,2.5-0.3,5-0.9,7.5c-0.6,2.5-1.4,5-2.5,7.3c-1.1,2.4-2.3,4.6-3.8,6.6
		c-1.4,2.1-3,3.8-4.6,5.4c-1.6,1.5-3.3,2.8-5.1,3.6c-1.8,0.9-3.5,1.3-5.2,1.3c-1.3,0-2.4-0.2-3.5-0.7s-2-1.2-2.8-2.1
		s-1.4-1.9-1.9-3.1c-0.4-1.2-0.7-2.5-0.7-3.9c0-2.7,0.7-5.8,2.2-9.4s3.5-7.3,6.2-11.1l-0.1-0.2c-1.3,0-2.3-0.2-3.2-0.6
		c-0.8-0.4-1.6-0.8-2.1-1.3c-0.6-0.5-1.1-0.9-1.5-1.3s-0.9-0.6-1.4-0.6c-0.8,0-1.2,0.4-1.2,1.2c0,0.4,0.1,0.8,0.4,1.1
		c0.3,0.3,0.5,0.7,0.8,1s0.6,0.7,0.8,1.1c0.3,0.4,0.4,0.9,0.4,1.4c0,0.8-0.3,1.5-1,2.1c-0.7,0.5-1.5,0.8-2.5,0.8
		c-1.2,0-2.1-0.4-2.8-1.1s-1-1.8-1-3.1c0-1.2,0.2-2.3,0.7-3.3s1.1-2,1.9-2.8c0.8-0.8,1.7-1.4,2.8-1.9s2.2-0.7,3.3-0.7
		c0.9,0,1.7,0.2,2.4,0.5s1.3,0.7,1.8,1.1s1.1,0.7,1.6,1s1.2,0.5,1.9,0.5c0.9,0,1.7-0.4,2.4-1c1-0.9,1.6-1.4,2-1.6
		c0.3-0.2,0.8-0.3,1.4-0.3c0.9,0,1.4,0.4,1.4,1.2c0,0.2,0,0.4-0.1,0.5c0,0.1-0.2,0.3-0.3,0.6c-0.2,0.3-0.4,0.7-0.8,1.1
		c-0.4,0.5-0.9,1.1-1.6,2c-1.1,1.3-2.1,2.8-2.9,4.4c-0.9,1.6-1.7,3.3-2.3,5.1c-0.7,1.8-1.2,3.6-1.5,5.4c-0.4,1.8-0.6,3.5-0.6,5.1
		c0,2.5,0.4,4.5,1.3,6.1c0.9,1.5,2,2.3,3.3,2.3s2.7-0.7,4.2-2.1s2.9-3.1,4.2-5.2s2.4-4.3,3.3-6.8
		C874.1,279.7,874.5,277.4,874.5,275.3z"/>
	<path d="M891.9,277.2c0.7-1.8,1.1-3.3,1.4-4.4c0.3-1.1,0.4-2,0.4-2.7s-0.1-1.1-0.3-1.3s-0.4-0.3-0.7-0.3c-0.5,0-1.1,0.2-1.7,0.7
		c-0.6,0.5-1.2,1.1-1.8,1.7c-0.6,0.7-1.1,1.3-1.6,2s-0.8,1.2-1,1.5l-2-1.3c0.6-1,1.3-2.2,2.3-3.4c1-1.3,2.1-2.4,3.4-3.5
		c1.3-1.1,2.6-2,3.9-2.7s2.6-1.1,3.9-1.1c1.2,0,2,0.3,2.6,1s0.9,1.9,0.9,3.7c0,1.4-0.4,3.2-1.2,5.5s-1.9,5.2-3.2,8.8l-2.6,7.1
		c-0.1,0.2-0.2,0.6-0.4,1.1s-0.3,1-0.5,1.5s-0.3,1.1-0.4,1.6c-0.1,0.5-0.2,0.9-0.2,1.3s0.1,0.8,0.4,1.1c0.2,0.3,0.6,0.5,1.1,0.5
		c0.7,0,1.4-0.3,2.2-0.9c0.7-0.6,1.5-1.3,2.2-2.1c0.7-0.8,1.3-1.6,1.9-2.4c0.6-0.8,1-1.5,1.3-1.9l2.1,1.2c-0.6,1.1-1.3,2.4-2.3,3.7
		c-1,1.4-2,2.6-3.3,3.7c-1.2,1.1-2.5,2.1-4,2.9c-1.4,0.8-2.9,1.2-4.5,1.2c-1.4,0-2.4-0.4-3-1.1c-0.7-0.7-1-1.9-1-3.5
		c0-1.4,0.2-2.8,0.7-4.4c0.4-1.6,1.1-3.5,1.9-5.9L891.9,277.2z M902.2,251c-1.2,0-2.2-0.4-3-1.2c-0.9-0.8-1.3-1.8-1.3-3.1
		c0-1.3,0.4-2.3,1.3-3.2c0.8-0.9,1.9-1.3,3.1-1.3c1.3,0,2.4,0.4,3.2,1.3s1.3,1.9,1.3,3.2c0,1.2-0.4,2.2-1.3,3.1
		C904.4,250.6,903.4,251,902.2,251z"/>
	<path d="M939.6,251.8c0.4-1.3,0.7-2.3,0.8-3.1c0.2-0.8,0.3-1.4,0.3-1.8c0-0.7-0.5-1.2-1.4-1.5s-2.6-0.4-5-0.4l0.8-2.8h13.5
		l-7.8,28.4c-1,3.6-1.8,6.7-2.5,9.3c-0.7,2.6-1.2,4.7-1.6,6.5s-0.7,3.2-0.8,4.3s-0.2,2.1-0.2,2.8c0,1.1,0.2,1.8,0.5,2.2
		c0.3,0.4,0.7,0.6,1.3,0.6c1,0,2.1-0.9,3.3-2.6s2.3-4,3.2-6.8l2.7,0.6c-1.6,4.6-3.3,8-5.2,10.2s-4,3.3-6.4,3.3c-1.7,0-3-0.5-3.9-1.6
		s-1.4-2.6-1.4-4.6c0-0.5,0-1,0.1-1.6s0.2-1.1,0.4-1.6l-0.6-0.1c-1.8,3.1-3.9,5.4-6.4,7.1s-4.9,2.5-7.2,2.5c-1.2,0-2.3-0.3-3.4-0.8
		c-1-0.5-1.9-1.3-2.7-2.2c-0.7-1-1.3-2.1-1.8-3.4s-0.7-2.8-0.7-4.4c0-2,0.3-4.1,0.9-6.3s1.5-4.3,2.6-6.3s2.4-4,3.8-5.8
		c1.4-1.8,3-3.4,4.6-4.8s3.3-2.5,5-3.3s3.4-1.2,5-1.2s2.8,0.3,3.6,0.9s1.6,1.6,2.4,2.9L939.6,251.8z M930,266.2
		c-1.2,0-2.4,0.4-3.7,1.2c-1.2,0.8-2.4,1.8-3.6,3.1c-1.2,1.3-2.3,2.8-3.3,4.4c-1,1.7-1.9,3.4-2.6,5.3c-0.7,1.8-1.3,3.7-1.8,5.5
		s-0.7,3.6-0.7,5.3c0,1.7,0.4,3,1.3,4c0.8,1,2,1.5,3.4,1.5c1.1,0,2.2-0.4,3.3-1.3s2.2-2,3.3-3.4s2.1-3,3-4.8c1-1.8,1.8-3.6,2.5-5.5
		s1.3-3.8,1.7-5.6s0.6-3.5,0.6-5c0-1.4-0.3-2.6-0.8-3.4C932.1,266.6,931.2,266.2,930,266.2z"/>
	<path d="M960.5,295.9c0.7,0,1.7-0.5,2.9-1.6s2.5-2.5,3.9-4.2c1.4-1.8,2.7-3.7,4-6c1.3-2.2,2.4-4.6,3.3-7l5.2-14h6.5l-5.2,16
		c-0.7,2.3-1.4,4.3-1.9,6s-0.9,3.1-1.3,4.2c-0.3,1.1-0.6,2.1-0.7,2.8c-0.1,0.7-0.2,1.3-0.2,1.7c0,1.2,0.4,1.8,1.3,1.8
		c0.5,0,1-0.2,1.7-0.7s1.3-1.1,2-1.8c0.7-0.8,1.3-1.6,2-2.6c0.6-1,1.2-2,1.6-3l2.1,1c-0.6,1.5-1.4,3-2.4,4.5s-2,2.8-3.2,4
		c-1.1,1.2-2.3,2.1-3.6,2.8c-1.3,0.7-2.5,1.1-3.7,1.1c-1.4,0-2.4-0.5-2.9-1.5s-0.8-2.5-0.8-4.4c0-0.8,0-1.6,0.1-2.6
		c0.1-0.9,0.2-1.8,0.4-2.7l-0.2-0.2c-1.3,2.2-2.5,4.1-3.7,5.5s-2.3,2.6-3.5,3.5c-1.1,0.9-2.2,1.5-3.3,1.9c-1.1,0.3-2.1,0.5-3.1,0.5
		c-2.2,0-3.7-0.6-4.6-1.8c-0.9-1.2-1.3-2.7-1.3-4.5c0-2,0.4-4.1,1.1-6.5c0.7-2.4,1.5-4.6,2.4-6.7c0.8-2.1,1.6-3.9,2.1-5.3
		c0.6-1.4,1-2.7,1.4-3.6c0.4-1,0.6-1.8,0.8-2.4s0.2-1.1,0.2-1.5c0-0.2,0-0.4-0.1-0.5c-0.1-0.2-0.2-0.2-0.5-0.2
		c-0.6,0-1.5,0.5-2.6,1.6s-2.7,2.8-4.7,5.2l-1.8-1c0.7-1.4,1.6-2.7,2.7-4.1c1.1-1.4,2.2-2.6,3.4-3.6c1.2-1.1,2.5-1.9,3.8-2.6
		s2.5-1,3.6-1c2.3,0,3.5,1.4,3.5,4.1c0,1.6-0.5,3.7-1.4,6.3s-2.1,5.7-3.5,9.3c-0.9,2.3-1.7,4.3-2.3,6.2c-0.6,1.8-0.9,3.5-0.9,5
		c0,1,0.1,1.7,0.4,2.1C959.7,295.7,960.1,295.9,960.5,295.9z"/>
	<path d="M1020.6,263.2h5.8l-4,10.7c-0.7,1.8-1.3,3.7-1.9,5.7c-0.6,2-1.2,3.9-1.7,5.8s-0.9,3.6-1.2,5.1s-0.4,2.7-0.4,3.4
		c0,1.4,0.4,2,1.3,2c0.7,0,1.6-0.7,2.8-2c1.2-1.4,2.6-3.1,4.2-5.3l1.8,1.5c-2,3.5-4.1,6.1-6.3,8c-2.3,1.9-4.4,2.8-6.5,2.8
		c-1.1,0-1.9-0.4-2.5-1.2c-0.6-0.8-0.9-2.2-0.9-4c0-0.4,0-0.9,0-1.5s0.1-1.3,0.2-2.2l-0.3-0.1c-0.7,1.3-1.5,2.5-2.5,3.6
		s-2,2.1-3.1,2.9s-2.3,1.4-3.5,1.9c-1.2,0.4-2.4,0.7-3.6,0.7c-2.4,0-4.2-0.9-5.6-2.7c-1.3-1.8-2-4.3-2-7.5s0.7-6.5,2-9.9
		c1.4-3.4,3.1-6.4,5.3-9.1c2.1-2.7,4.5-5,7.1-6.7c2.6-1.8,5.2-2.6,7.7-2.6c1.5,0,2.8,0.4,3.8,1.1s1.8,1.9,2.4,3.5L1020.6,263.2z
		 M1013.4,266.1c-1.8,0-3.6,0.8-5.5,2.5c-1.9,1.6-3.6,3.7-5.1,6.1s-2.8,5.1-3.8,7.9s-1.5,5.4-1.5,7.9c0,1.7,0.4,3,1.1,4
		c0.7,1,1.7,1.5,2.9,1.5c1.1,0,2.2-0.4,3.4-1.3s2.3-2,3.4-3.4c1.1-1.4,2.1-3,3.1-4.9c1-1.8,1.8-3.7,2.6-5.6c0.7-1.9,1.3-3.8,1.8-5.7
		c0.4-1.9,0.6-3.5,0.6-5c0-1.2-0.3-2.2-0.8-2.9C1015,266.5,1014.3,266.1,1013.4,266.1z"/>
	<path d="M1042.9,251.9c0.2-0.8,0.5-1.7,0.7-2.6s0.4-1.5,0.4-1.9c0-1.6-1.8-2.4-5.3-2.4l0.6-2.1l12.8-0.6l-12.5,46
		c-0.4,1.3-0.7,2.4-0.8,3.3c-0.2,1-0.3,1.8-0.3,2.4c0,0.4,0.1,0.8,0.4,1.1c0.2,0.3,0.6,0.5,1.1,0.5c0.7,0,1.5-0.3,2.4-0.9
		c0.8-0.6,1.6-1.4,2.4-2.2c0.8-0.9,1.5-1.8,2.1-2.7s1-1.6,1.3-2.1l2.1,1.2c-0.7,1.6-1.6,3.1-2.7,4.6s-2.3,2.8-3.6,3.9
		c-1.3,1.1-2.5,2-3.8,2.7s-2.5,1-3.5,1c-1.6,0-2.8-0.4-3.6-1.1c-0.8-0.7-1.2-1.9-1.2-3.5c0-0.9,0.1-2.2,0.4-3.8
		c0.3-1.6,0.8-3.8,1.5-6.5L1042.9,251.9z"/>
	<path d="M1061.2,277.2c0.7-1.8,1.1-3.3,1.4-4.4s0.4-2,0.4-2.7s-0.1-1.1-0.3-1.3s-0.4-0.3-0.7-0.3c-0.5,0-1.1,0.2-1.7,0.7
		s-1.2,1.1-1.8,1.7c-0.6,0.7-1.1,1.3-1.6,2s-0.8,1.2-1,1.5l-2-1.3c0.6-1,1.3-2.2,2.3-3.4c1-1.3,2.1-2.4,3.4-3.5s2.6-2,3.9-2.7
		s2.6-1.1,3.9-1.1c1.2,0,2,0.3,2.6,1s0.9,1.9,0.9,3.7c0,1.4-0.4,3.2-1.2,5.5c-0.8,2.3-1.9,5.2-3.2,8.8l-2.6,7.1
		c-0.1,0.2-0.2,0.6-0.4,1.1c-0.2,0.5-0.3,1-0.5,1.5s-0.3,1.1-0.4,1.6s-0.2,0.9-0.2,1.3s0.1,0.8,0.4,1.1c0.2,0.3,0.6,0.5,1.1,0.5
		c0.7,0,1.4-0.3,2.2-0.9c0.7-0.6,1.5-1.3,2.2-2.1c0.7-0.8,1.3-1.6,1.9-2.4s1-1.5,1.3-1.9l2.1,1.2c-0.6,1.1-1.3,2.4-2.3,3.7
		c-1,1.4-2,2.6-3.3,3.7c-1.2,1.1-2.5,2.1-4,2.9c-1.4,0.8-2.9,1.2-4.5,1.2c-1.4,0-2.4-0.4-3-1.1c-0.7-0.7-1-1.9-1-3.5
		c0-1.4,0.2-2.8,0.7-4.4c0.4-1.6,1.1-3.5,1.9-5.9L1061.2,277.2z M1071.4,251c-1.2,0-2.2-0.4-3-1.2c-0.9-0.8-1.3-1.8-1.3-3.1
		c0-1.3,0.4-2.3,1.3-3.2c0.8-0.9,1.9-1.3,3.1-1.3c1.3,0,2.4,0.4,3.2,1.3c0.8,0.9,1.3,1.9,1.3,3.2c0,1.2-0.4,2.2-1.3,3.1
		C1073.7,250.6,1072.7,251,1071.4,251z"/>
	<path d="M1092.5,269l-5.8,19.3c-0.8,2.5-1.2,4.4-1.3,5.7c0,0.4,0.1,0.8,0.3,1.1c0.2,0.3,0.6,0.5,1.1,0.5c0.8,0,1.7-0.3,2.7-0.9
		c0.9-0.6,1.8-1.4,2.7-2.2c0.9-0.9,1.6-1.8,2.3-2.7c0.7-0.9,1.2-1.6,1.5-2.1l2,1.2c-0.8,1.6-1.8,3.1-3,4.6s-2.5,2.8-3.8,3.9
		c-1.4,1.1-2.7,2-4.1,2.7s-2.6,1-3.7,1c-1.6,0-2.8-0.4-3.5-1.1s-1.1-1.9-1.1-3.5c0-0.9,0.2-2.2,0.5-3.8c0.3-1.6,0.9-3.8,1.7-6.5
		l5.2-17.1h-6l0.9-3.2h6.1l3.6-12h6.4l-3.6,12h7.6l-1,3.2h-7.7L1092.5,269L1092.5,269z"/>
	<path d="M1112.9,279.8c-0.7-3.8-1.5-6.5-2.3-7.9c-0.8-1.5-1.6-2.2-2.4-2.2c-0.9,0-1.7,0.7-2.4,2c-0.7,1.3-1.5,3.4-2.2,6.3l-2.6-0.7
		c0.5-2.1,1.1-4.1,1.9-6c0.8-1.8,1.6-3.4,2.5-4.7c0.9-1.3,1.9-2.4,2.9-3.1s2.1-1.1,3.1-1.1c0.9,0,1.6,0.3,2.3,1
		c0.6,0.7,1.3,1.9,1.9,3.6c0.6,1.5,1.2,3.5,1.9,5.9c0.7,2.5,1.3,5.3,2,8.4l2.4,11.3h0.3c0.9-1.1,1.8-2.4,2.7-3.8
		c0.9-1.4,1.7-2.9,2.5-4.5c0.7-1.6,1.4-3.1,1.8-4.8c0.5-1.6,0.7-3.1,0.7-4.5c0-0.5,0-1.1-0.1-1.8c0-0.7-0.1-1.5-0.2-2.2
		s-0.1-1.5-0.2-2.1c0-0.7-0.1-1.2-0.1-1.6c0-1.7,0.4-2.9,1.3-3.7c0.8-0.8,1.7-1.2,2.7-1.2c1.2,0,2.1,0.5,2.7,1.5s0.8,2.2,0.8,3.6
		c0,1.9-0.5,4.4-1.5,7.4s-2.4,6.2-4.1,9.6s-3.6,6.9-5.8,10.5c-2.2,3.6-4.5,6.8-6.8,9.8c-3.5,4.6-6.8,8-9.8,10.3
		c-3,2.2-5.8,3.3-8.4,3.3c-2,0-3.5-0.5-4.7-1.6c-1.1-1.1-1.7-2.4-1.7-3.9c0-1.2,0.3-2.1,1-2.8c0.7-0.7,1.5-1.1,2.6-1.1
		c0.9,0,1.6,0.3,2.1,0.8c0.4,0.5,0.8,1.1,1.1,1.8c0.3,0.7,0.6,1.3,0.9,1.8s0.8,0.8,1.4,0.8c0.9,0,2-0.5,3.4-1.5s2.7-2.2,4.1-3.7
		s2.6-3.1,3.8-4.8c1.2-1.7,2-3.3,2.6-4.8L1112.9,279.8z"/>
	<path d="M1146,259.3c2.6-1.6,4.6-3.2,5.8-4.7c1.3-1.5,2.2-3.1,2.7-4.9c-0.7,0.4-1.4,0.6-2.2,0.6c-0.9,0-1.6-0.2-2.1-0.7
		s-0.7-1.2-0.7-2c0-0.7,0.2-1.5,0.5-2.1c0.4-0.7,0.8-1.2,1.4-1.7s1.2-0.8,1.9-1.1c0.7-0.3,1.5-0.4,2.3-0.4c2.4,0,3.6,1.2,3.6,3.7
		c0,1.5-0.2,3-0.7,4.2c-0.4,1.3-1.2,2.5-2.1,3.7c-1,1.2-2.2,2.4-3.8,3.6c-1.5,1.2-3.4,2.4-5.5,3.7L1146,259.3z M1159.4,259.3
		c2.6-1.6,4.6-3.2,5.8-4.7c1.3-1.5,2.2-3.1,2.7-4.9c-0.7,0.4-1.4,0.6-2.2,0.6c-0.9,0-1.6-0.2-2.1-0.7s-0.7-1.2-0.7-2
		c0-0.7,0.2-1.5,0.5-2.1c0.3-0.7,0.8-1.2,1.4-1.7s1.2-0.8,1.9-1.1c0.7-0.3,1.5-0.4,2.3-0.4c2.4,0,3.6,1.2,3.6,3.7
		c0,1.5-0.2,3-0.7,4.2c-0.4,1.3-1.2,2.5-2.1,3.7c-1,1.2-2.2,2.4-3.8,3.6c-1.5,1.2-3.4,2.4-5.5,3.7L1159.4,259.3z"/>
</g>
<g>
	<path d="M520.5,166.4c0,4-0.4,7.4-1.3,10.2c-0.9,2.8-2.2,5.1-4,7c-1.8,1.8-4.2,3.1-7,4c-2.9,0.8-6.3,1.3-10.3,1.3
		c-7.5,0-13-1.6-16.5-4.7c-3.5-3.1-5.2-8.2-5.2-15.1v-19.2c0-1.8,0-3.3-0.1-4.6c0-1.2-0.1-2.3-0.2-3.1s-0.2-1.5-0.4-2.1
		c-0.2-0.5-0.4-1-0.6-1.4c-0.4-0.7-1-1.1-1.8-1.3s-2-0.4-3.6-0.4v-2.8h25.1v2.8c-2,0-3.4,0.1-4.3,0.3s-1.7,0.6-2.2,1.2
		c-0.3,0.4-0.6,0.8-0.8,1.4c-0.2,0.5-0.4,1.2-0.5,2.1c-0.1,0.9-0.2,1.9-0.2,3.2s-0.1,2.8-0.1,4.6v18.3c0,5.3,1.1,9.3,3.4,11.8
		s5.8,3.8,10.5,3.8c9.6,0,14.4-5.3,14.4-16v-16.2c0-2,0-3.6-0.1-5s-0.2-2.6-0.4-3.6s-0.4-1.8-0.6-2.5c-0.3-0.7-0.6-1.2-0.9-1.6
		c-0.7-0.7-1.5-1.1-2.5-1.4c-1-0.3-2.5-0.5-4.3-0.5v-2.8h22.7v2.8c-1.7,0-3.1,0.1-4,0.4c-0.9,0.3-1.7,0.7-2.2,1.4
		c-0.4,0.4-0.7,1-0.9,1.6c-0.2,0.7-0.4,1.5-0.6,2.5c-0.1,1-0.2,2.2-0.3,3.6c-0.1,1.4-0.1,3.1-0.1,5v15L520.5,166.4L520.5,166.4z"/>
	<path d="M559.2,188.8c-4.2,0-8-0.6-11.4-1.9c-3.4-1.2-6.3-3-8.6-5.3c-2.4-2.3-4.2-5.1-5.5-8.4c-1.3-3.3-1.9-7-1.9-11.1
		c0-4.2,0.7-8.1,2.1-11.7c1.4-3.5,3.3-6.5,5.8-9.1c2.5-2.5,5.4-4.5,8.9-5.8c3.5-1.4,7.3-2.1,11.5-2.1c2.9,0,5.6,0.4,8.3,1.2
		c2.6,0.8,5.4,2.1,8.5,3.8l1.3-4.3h2.5v17.7h-3.5c-0.9-4.4-2.8-7.8-5.6-10.2s-6.4-3.6-10.6-3.6c-5.4,0-9.5,2.1-12.5,6.2
		c-3,4.1-4.4,9.9-4.4,17.3c0,7.3,1.4,12.9,4.3,16.7c2.9,3.9,7.1,5.8,12.6,5.8c4,0,7.1-1,9.3-3s3.3-4.8,3.3-8.4
		c0-2.1-0.6-3.7-1.7-4.7c-1.1-1-3-1.6-5.7-1.9v-2.8h22.7v2.8c-2.3,0-3.9,0.5-4.8,1.5c-0.9,1-1.3,2.8-1.3,5.4v9.3c-1,0-1.9,0-2.6,0.1
		s-1.4,0.2-2.1,0.4c-0.7,0.2-1.4,0.5-2.3,1c-0.8,0.5-1.9,1.1-3.2,1.8C569,187.8,564.6,188.8,559.2,188.8z"/>
	<path d="M640.5,188.1h-48.2v-2.8c1.5,0,2.8-0.2,3.8-0.4s1.7-0.6,2.2-1.2c0.5-0.6,0.9-1.4,1-2.4s0.3-2.4,0.3-4V145
		c0-1.6-0.1-3-0.2-4c-0.2-1-0.5-1.8-0.9-2.4c-0.5-0.6-1.1-1-2-1.2s-2-0.4-3.4-0.5v-2.8h24.2v2.8c-1.6,0-2.9,0.2-3.8,0.4
		c-1,0.2-1.7,0.7-2.2,1.3s-0.9,1.4-1,2.5c-0.2,1.1-0.2,2.5-0.2,4.3v29.3c0,2,0.2,3.6,0.6,4.8s1.1,2.2,2.1,2.9s2.3,1.1,3.9,1.4
		c1.6,0.3,3.7,0.4,6.1,0.4c2.7,0,5-0.2,6.8-0.5s3.3-0.9,4.6-1.9s2.2-2.1,3-3.7c0.7-1.5,1.4-3.5,1.9-6h2.8L640.5,188.1z"/>
	<path d="M643.7,143.1c-0.7-1.2-1.3-2.2-1.9-3c-0.6-0.8-1.2-1.4-1.8-1.9c-0.6-0.4-1.3-0.7-2-0.9s-1.5-0.2-2.4-0.2v-2.8h23.5v2.8
		c-2,0-3.3,0.2-4.1,0.6c-0.8,0.4-1.2,0.9-1.2,1.7c0,0.5,0.1,1,0.4,1.7c0.3,0.7,0.7,1.5,1.3,2.7l10,19.1h0.3l8.8-14.7
		c1.5-2.6,2.6-4.6,3.2-5.8c0.6-1.3,0.9-2.3,0.9-3c0-0.8-0.4-1.3-1.1-1.6c-0.7-0.3-2.1-0.5-4-0.5v-2.8h17.6v2.8c-1,0-2,0.2-2.8,0.5
		s-1.7,1-2.6,1.9c-0.9,1-1.9,2.3-3.1,4c-1.1,1.7-2.5,3.9-4.1,6.7l-10.2,17.5v7.1c0,2.3,0.1,4.2,0.3,5.6c0.2,1.4,0.6,2.5,1.1,3.2
		s1.3,1.2,2.2,1.4s2.1,0.4,3.6,0.4v2.8h-24.9v-2.8c1.4,0,2.6-0.1,3.6-0.4c1-0.2,1.7-0.7,2.3-1.4s0.9-1.7,1.2-3
		c0.2-1.3,0.3-3.1,0.3-5.3v-6.4L643.7,143.1z"/>
	<path d="M733.2,188.1h-25v-2.8c1.6,0,2.9-0.2,3.8-0.5c1-0.3,1.7-0.7,2.2-1.4s0.9-1.7,1-3c0.2-1.3,0.3-3,0.3-5.2v-28.1
		c0-2-0.1-3.6-0.2-4.9c-0.2-1.3-0.5-2.3-0.9-3c-0.5-0.7-1.1-1.3-2-1.6s-2-0.5-3.5-0.6v-2.8h23.6v2.8c-1.4,0.1-2.6,0.3-3.5,0.6
		s-1.5,0.8-2,1.6c-0.5,0.7-0.8,1.8-0.9,3c-0.2,1.3-0.2,2.9-0.2,4.9v28.1c0,2.2,0.1,3.9,0.2,5.2c0.2,1.3,0.5,2.3,1,3s1.3,1.2,2.2,1.4
		c1,0.3,2.2,0.4,3.8,0.5v2.8H733.2z"/>
	<path d="M739.5,170.3h2.7c0.7,4.4,2.4,7.9,5.3,10.5c2.9,2.5,6.5,3.8,10.7,3.8c1.7,0,3.3-0.2,4.8-0.6c1.4-0.4,2.7-1,3.7-1.8
		s1.8-1.7,2.4-2.7c0.6-1.1,0.8-2.2,0.8-3.5c0-1.1-0.2-2.1-0.5-2.9c-0.3-0.8-1-1.6-2-2.4c-1-0.8-2.3-1.6-4-2.3
		c-1.7-0.8-3.9-1.7-6.6-2.7c-5.5-2.1-9.5-4.5-12.1-7.3s-3.9-6.1-3.9-9.8c0-2.2,0.4-4.2,1.3-6s2-3.4,3.5-4.7s3.3-2.3,5.5-3
		c2.1-0.7,4.5-1.1,7-1.1c2.4,0,4.6,0.4,6.7,1.1c2.1,0.7,4.2,1.9,6.2,3.4l1.3-3.5h1.7l0.8,15.1H772c-1.1-3.8-2.9-6.8-5.3-8.8
		s-5.1-3-8.3-3c-2.9,0-5.2,0.7-7,2.1c-1.8,1.4-2.7,3.3-2.7,5.5c0,1,0.2,1.9,0.5,2.6c0.3,0.8,0.9,1.5,1.8,2.2
		c0.9,0.7,2.1,1.4,3.6,2.1c1.5,0.7,3.5,1.5,6,2.4c3.3,1.3,6.1,2.5,8.4,3.8c2.3,1.3,4.2,2.7,5.7,4.1c1.5,1.5,2.6,3,3.3,4.7
		c0.7,1.6,1,3.4,1,5.4c0,2.4-0.5,4.5-1.5,6.5s-2.5,3.6-4.3,5s-4,2.5-6.6,3.3c-2.5,0.8-5.4,1.2-8.4,1.2c-2.8,0-5.3-0.4-7.6-1.2
		c-2.2-0.8-4.5-2-6.9-3.7l-1.4,4.2h-1.7L739.5,170.3z"/>
</g>
</svg>
