<svg xmlns="http://www.w3.org/2000/svg" width="86.598" height="95.779" viewBox="0 0 86.598 95.779"><g transform="translate(-384.855 -38.021)"><path d="M419.8,91.724l-32.5-33.185a6.782,6.782,0,0,1-1.133-8.151c1.513-2.543,4.583-3.776,10.8,2.536l14.852,16.337-9.561-24.32s-1.939-11.51,4.413-3.777a29.256,29.256,0,0,1,3.873,6.219L423.517,75.2l.928-31.374s1.49-9.21,6.089-3.913a10.493,10.493,0,0,1,2.46,7.444l-2.237,42.51Z" transform="translate(0)" fill="#b6ca64" stroke="#000" stroke-linecap="round" stroke-linejoin="round" stroke-width="0.5"/><path d="M388.244,115.737,435.1,143.261a8.409,8.409,0,0,0,11.708-3.345l23.336-44.5a8.3,8.3,0,0,0-.19-8.16c-3.457-5.684-12.507-12.645-34.76,2.4a8.3,8.3,0,0,1-6.492,1.269c-4.169-.961-12.025-1.022-20.5,7.939a8.333,8.333,0,0,1-4.02,2.395c-6.539,1.637-23.845,6.712-17.533,13.261A7.37,7.37,0,0,0,388.244,115.737Z" transform="translate(0 -10.895)" fill="#fce02d" stroke="#000" stroke-linecap="round" stroke-linejoin="round" stroke-width="0.5"/></g></svg>