<svg xmlns="http://www.w3.org/2000/svg" width="121.541" height="119.379" viewBox="0 0 121.541 119.379"><g transform="translate(-1508.642 -1808.184)"><path d="M40.886,1.561S-7.367-12.038.968,41.041c0,0-6.58,52.2,45.4,48.034s46.06-39.7,46.06-39.7S102.957,2.168,53.826,0Z" transform="matrix(0.921, 0.391, -0.391, 0.921, 1543.896, 1808.53)" fill="#ef5541" stroke="#000" stroke-linecap="round" stroke-linejoin="round" stroke-width="0.5"/><path d="M5.847,7.643C6.241,7.95-8.712,18.5,7.738,12.085c0,0,1.645,14.229,3.619.822,0,0,8.8,6.744,4.524-2.632,0,0,8.718,1.809.247-3.454,0,0,6.58-8.883-3.29-2.385,0,0-1.645-10.034-4.935.082C7.9,4.518-3.827.1,5.847,7.643Z" transform="matrix(0.921, 0.391, -0.391, 0.921, 1576.369, 1814.971)" fill="#bed15f" stroke="#000" stroke-linecap="round" stroke-linejoin="round" stroke-width="0.5"/></g></svg>