<svg xmlns="http://www.w3.org/2000/svg" width="156.138" height="165.53" viewBox="0 0 156.138 165.53"><g transform="matrix(0.995, 0.105, -0.105, 0.995, -10.411, -16.39)" fill="#0e6629" stroke-linecap="round" stroke-linejoin="round"><path d="M 143.9267578125 164.822998046875 L 111.7035140991211 122.1376113891602 L 111.6464538574219 122.06201171875 L 111.5536117553711 122.043212890625 C 111.4449157714844 122.0211944580078 100.568115234375 119.8417510986328 90.57857513427734 119.8417510986328 C 81.06185150146484 119.8417510986328 75.43549346923828 121.7641296386719 73.85577392578125 125.5554504394531 L 73.82614898681641 125.6265335083008 L 73.84165191650391 125.7019882202148 C 74.14472961425781 127.1758499145508 74.2650146484375 128.9374847412109 73.94167327880859 129.3343353271484 C 73.90237426757812 129.382568359375 73.86951446533203 129.3924713134766 73.832275390625 129.3924865722656 C 73.68767547607422 129.392578125 73.23779296875 129.2390747070312 72.18545532226562 127.8153305053711 L 72.05583190917969 127.6399536132812 L 71.86449432373047 127.7445678710938 C 71.80901336669922 127.7748947143555 70.49177551269531 128.5052642822266 69.25697326660156 130.06884765625 C 68.11695098876953 131.5124359130859 66.84367370605469 133.9652252197266 67.25191497802734 137.4524536132812 L 67.27500915527344 137.6497497558594 L 67.47249603271484 137.6718444824219 C 68.13353729248047 137.7458038330078 68.72360992431641 137.9535980224609 68.78397369384766 138.0798034667969 C 68.77332305908203 138.1102905273438 68.672119140625 138.3164367675781 67.82577514648438 138.66357421875 L 67.72203063964844 138.7061157226562 L 67.68479156494141 138.8119049072266 C 67.20963287353516 140.1620483398438 66.42545318603516 141.6076507568359 66.01547241210938 141.607666015625 C 65.96697235107422 141.6076965332031 65.53471374511719 141.5426483154297 65.29608917236328 139.2889709472656 L 65.27363586425781 139.0768585205078 L 65.06061553955078 139.0656280517578 C 60.92945098876953 138.8482055664062 48.96499252319336 138.1417541503906 48.202392578125 137.7606048583984 L 48.07627105712891 137.6975708007812 L 47.95707321166992 137.7728881835938 C 47.93463134765625 137.7870483398438 45.67299270629883 139.1943359375 43.09911346435547 139.1946258544922 C 41.30953216552734 139.19482421875 39.79245376586914 138.5235290527344 38.59001159667969 137.1993865966797 C 37.02277374267578 135.4734954833984 35.9885139465332 132.6389312744141 35.51597213745117 128.7744293212891 L 35.50493240356445 128.6841888427734 L 35.43849182128906 128.6221160888672 C 35.41751098632812 128.6024322509766 33.30791091918945 126.5979309082031 31.63313293457031 122.6198883056641 C 30.6497917175293 120.2842102050781 30.00627326965332 117.7346115112305 29.7204532623291 115.0419311523438 C 29.36289215087891 111.6733703613281 29.56721305847168 108.0694274902344 30.32773208618164 104.3301696777344 L 30.32963180541992 104.3208312988281 L 30.33081245422363 104.3113479614258 C 30.3740119934082 103.9658126831055 31.37253189086914 95.79775238037109 29.97041320800781 91.38185119628906 L 29.9639720916748 91.36154937744141 L 29.95413208007812 91.34255218505859 C 29.93699264526367 91.30943298339844 28.23881149291992 87.97727203369141 28.08941268920898 83.40554809570312 C 28.00191307067871 80.72823333740234 28.45511245727539 78.15402984619141 29.4364128112793 75.75440979003906 C 30.66385269165039 72.7529296875 32.72719192504883 70.01421356201172 35.569091796875 67.61431121826172 L 35.66253280639648 67.53540802001953 L 35.6575927734375 67.41316986083984 C 35.65585327148438 67.37049102783203 35.50147247314453 63.08164978027344 36.92403411865234 57.59921264648438 C 37.75829315185547 54.38399124145508 38.96385192871094 51.39295196533203 40.50723266601562 48.70912933349609 C 42.43403244018555 45.35855102539062 44.89633178710938 42.47941207885742 47.82573318481445 40.15169143676758 L 47.88507080078125 40.10453033447266 L 47.90825271606445 40.03232955932617 C 47.92565155029297 39.97817230224609 49.69599151611328 34.55559158325195 53.97399139404297 29.20761108398438 C 56.48081207275391 26.07381057739258 59.34625244140625 23.57779121398926 62.49069213867188 21.78889083862305 C 66.41673278808594 19.55533027648926 70.79457092285156 18.42283058166504 75.50259399414062 18.42283058166504 C 77.27088928222656 18.42283058166504 79.11429595947266 18.58369064331055 80.98159027099609 18.90095138549805 L 81.08364868164062 18.91829109191895 L 81.16817474365234 18.85835075378418 C 81.17974853515625 18.85015106201172 82.34737396240234 18.02855110168457 84.28699493408203 17.21811103820801 C 86.07292938232422 16.47189140319824 88.89852905273438 15.582350730896 92.21755218505859 15.582350730896 C 96.0323486328125 15.582350730896 99.69283294677734 16.73319053649902 103.0972900390625 19.00293159484863 L 103.2676315307617 19.11649131774902 L 103.4125518798828 18.97189140319824 C 103.4254531860352 18.95905113220215 104.739013671875 17.66367149353027 107.1122894287109 16.38585090637207 C 109.298713684082 15.20865058898926 112.859130859375 13.80537128448486 117.4044723510742 13.80537128448486 C 121.600212097168 13.80537128448486 125.9411926269531 14.98189067840576 130.3067932128906 17.30227088928223 C 135.6428680419922 20.13847160339355 141.0641479492188 24.71515083312988 146.4200592041016 30.90517044067383 L 146.4695892333984 30.96243095397949 L 146.5426177978516 30.98259162902832 C 146.5746917724609 30.99143028259277 149.7915496826172 31.89215087890625 153.4816589355469 34.00051116943359 C 155.6439514160156 35.2359504699707 157.54345703125 36.63835144042969 159.1274108886719 38.16876983642578 C 161.1011657714844 40.07579040527344 162.5876312255859 42.18819046020508 163.5455474853516 44.44733047485352 C 165.9228057861328 50.05381011962891 165.1014862060547 56.61219024658203 161.1043548583984 63.94023132324219 L 161.0846252441406 63.97640991210938 L 161.0775299072266 64.01708984375 C 161.0703125 64.05857086181641 160.3236694335938 68.21328735351562 157.6754455566406 72.30825042724609 C 156.1262512207031 74.70377349853516 154.2379455566406 76.61138916015625 152.06298828125 77.97813415527344 C 149.3468170166016 79.68498992919922 146.1685791015625 80.55061340332031 142.6165771484375 80.55097198486328 C 142.2417907714844 80.55098724365234 141.8565368652344 80.54125213623047 141.471435546875 80.52201080322266 L 141.2553253173828 80.51119232177734 L 141.2136383056641 80.72353363037109 L 136.6941070556641 103.7415542602539 L 136.6727752685547 103.8502502441406 L 136.7389526367188 103.939094543457 L 168.5410308837891 146.6208343505859 L 143.9267578125 164.822998046875 Z" stroke="none"/><path d="M 143.9771423339844 164.4747924804688 L 168.1906433105469 146.5690002441406 L 136.5384979248047 104.0884704589844 C 136.4541778564453 103.9753189086914 136.4216156005859 103.8318252563477 136.4488067626953 103.6933822631836 L 140.9683227539062 80.67534637451172 C 141.0161895751953 80.43155670166016 141.2357940673828 80.260009765625 141.4839324951172 80.27230072021484 C 141.8640747070312 80.29129791259766 142.2443542480469 80.30094909667969 142.6165618896484 80.30094909667969 C 146.1171875 80.30059051513672 149.2478942871094 79.44961547851562 151.9217681884766 77.77163696289062 C 154.0648345947266 76.42673492431641 155.9270172119141 74.54759216308594 157.45654296875 72.1864013671875 C 160.0817718505859 68.13373565673828 160.8240814208984 64.01522064208984 160.8312225341797 63.97434234619141 C 160.8405914306641 63.92046737670898 160.8587188720703 63.86850738525391 160.8849182128906 63.82052993774414 C 164.8430328369141 56.56392669677734 165.6611175537109 50.07950973510742 163.3164367675781 44.54736328125 C 162.372802734375 42.32092666625977 160.9071960449219 40.23751068115234 158.9603424072266 38.35498809814453 C 157.3929748535156 36.83938598632812 155.5119934082031 35.44967651367188 153.3697052001953 34.2244873046875 C 149.7050933837891 32.12867736816406 146.5079345703125 31.23236274719238 146.4761962890625 31.22361373901367 C 146.3809661865234 31.19734191894531 146.2956390380859 31.14346694946289 146.2310180664062 31.06875991821289 C 140.8953704833984 24.90213394165039 135.4981994628906 20.34469604492188 130.1894683837891 17.52302932739258 C 125.8603668212891 15.22205066680908 121.5588684082031 14.05536365509033 117.4044723510742 14.05536365509033 C 112.9199295043945 14.05536365509033 109.4060974121094 15.43736362457275 107.2480545043945 16.5966968536377 C 104.9012451171875 17.85744667053223 103.6016159057617 19.13644599914551 103.5891189575195 19.14886283874512 C 103.4205551147461 19.31705093383789 103.15673828125 19.34303092956543 102.9586181640625 19.2109260559082 C 99.59595489501953 16.96907234191895 95.98211669921875 15.83234214782715 92.21753692626953 15.83234214782715 C 88.94632720947266 15.83234214782715 86.15940856933594 16.70817565917969 84.39749145507812 17.44290542602539 C 82.47934722900391 18.24275970458984 81.32418060302734 19.05421829223633 81.31305694580078 19.06209182739258 C 81.20487213134766 19.13894653320312 81.07053375244141 19.16964912414551 80.93972015380859 19.14742660522461 C 79.08620452880859 18.83250999450684 77.25688934326172 18.67282104492188 75.50260162353516 18.67282104492188 C 70.84182739257812 18.67282104492188 66.50840759277344 19.79271697998047 62.62272262573242 22.00140571594238 C 59.50695419311523 23.77244758605957 56.66622161865234 26.24519729614258 54.17947387695312 29.35096740722656 C 49.92586898803711 34.66338348388672 48.16359710693359 40.05492401123047 48.14634704589844 40.10861206054688 C 48.11616134643555 40.20278167724609 48.05870056152344 40.28588485717773 47.98128509521484 40.34740447998047 C 45.07918167114258 42.65342712402344 42.63911819458008 45.50576019287109 40.72888946533203 48.82517623901367 C 39.19684982299805 51.48738479614258 37.99949264526367 54.45523834228516 37.17009735107422 57.64630126953125 C 35.75374221801758 63.09565353393555 35.90570068359375 67.36067962646484 35.90739059448242 67.40294647216797 C 35.91368103027344 67.55719757080078 35.84836959838867 67.70571899414062 35.73041152954102 67.80534362792969 C 32.92341232299805 70.17573547363281 30.88532638549805 72.87800598144531 29.67274475097656 75.83705139160156 C 28.7039737701416 78.20111083984375 28.25511932373047 80.73788452148438 28.33861923217773 83.37692260742188 C 28.48161888122559 87.89656829833984 30.15928649902344 91.19499206542969 30.17603492736816 91.22742462158203 C 30.18914031982422 91.25269317626953 30.2000560760498 91.279052734375 30.20868110656738 91.30619812011719 C 31.62724494934082 95.77375793457031 30.62236976623535 103.9945907592773 30.57891082763672 104.3423614501953 C 30.57732772827148 104.3549880981445 30.57526397705078 104.3675308227539 30.57272338867188 104.3799896240234 C 29.81882667541504 108.0866546630859 29.61499404907227 111.6581954956055 29.96693229675293 114.9954223632812 C 30.24801445007324 117.6608810424805 30.88236808776855 120.1845474243164 31.85236930847168 122.4963226318359 C 33.50495147705078 126.4347991943359 35.58882904052734 128.4203033447266 35.60918045043945 128.4394226074219 C 35.69501495361328 128.5196380615234 35.74984741210938 128.6274871826172 35.76411819458008 128.7440643310547 C 36.23024368286133 132.5562438964844 37.2432861328125 135.3444671630859 38.77509689331055 137.0313262939453 C 39.92816162109375 138.3010864257812 41.38297271728516 138.94482421875 43.09909820556641 138.9446411132812 C 45.59640884399414 138.9443359375 47.80197143554688 137.5751342773438 47.82351303100586 137.5615692138672 C 47.96949768066406 137.4692840576172 48.15264511108398 137.458984375 48.30789947509766 137.5339202880859 C 48.52087783813477 137.6181488037109 49.80464935302734 137.8636322021484 57.06928634643555 138.3412322998047 C 61.10028457641602 138.6062316894531 65.03449249267578 138.8139190673828 65.07374572753906 138.8159942626953 C 65.31918334960938 138.8289031982422 65.51882934570312 139.0182647705078 65.54470062255859 139.2626495361328 C 65.70439147949219 140.7708435058594 65.94692993164062 141.2154235839844 66.03939819335938 141.3341369628906 C 66.146484375 141.2606201171875 66.43827056884766 140.9914245605469 66.89007568359375 140.0598907470703 C 67.21543121337891 139.3890991210938 67.44670104980469 138.7354125976562 67.44895172119141 138.7289733886719 C 67.49630737304688 138.5943603515625 67.59889221191406 138.4864044189453 67.73091125488281 138.4322662353516 C 68.04372406005859 138.303955078125 68.241455078125 138.1996612548828 68.36504364013672 138.1227416992188 C 68.13266754150391 138.0396881103516 67.77024078369141 137.9569396972656 67.44495391845703 137.9203186035156 C 67.21366119384766 137.8945922851562 67.03067779541016 137.7126770019531 67.00361633300781 137.4815368652344 C 66.58541107177734 133.9093475341797 67.89149475097656 131.39453125 69.06078338623047 129.9139099121094 C 70.32680511474609 128.3108062744141 71.68728637695312 127.5565338134766 71.74457550048828 127.5252151489258 C 71.96384429931641 127.4053344726562 72.23796844482422 127.4657592773438 72.38651275634766 127.6667404174805 C 73.22267150878906 128.7980194091797 73.63663482666016 129.0625 73.77632904052734 129.1240081787109 C 73.83492279052734 128.9892425537109 73.95274353027344 128.5561676025391 73.83809661865234 127.3759078979492 C 73.75634765625 126.534049987793 73.59836578369141 125.7600479125977 73.59678649902344 125.7523193359375 C 73.57659912109375 125.654052734375 73.58641052246094 125.5519027709961 73.62499237060547 125.4592971801758 C 75.24726104736328 121.5658874511719 80.95126342773438 119.5917587280273 90.57855987548828 119.5917587280273 C 100.5928726196289 119.5917587280273 111.4942855834961 121.7761154174805 111.6032257080078 121.7981948852539 C 111.7228469848633 121.8224258422852 111.8294906616211 121.8895721435547 111.9030380249023 121.9869918823242 L 143.9771423339844 164.4747924804688 M 143.8763732910156 165.1711730957031 L 111.5039749145508 122.2882385253906 C 111.5039749145508 122.2882385253906 78.29074859619141 115.5615234375 74.08653259277344 125.651611328125 C 74.08653259277344 125.6516189575195 75.55796813964844 132.7987518310547 71.98442840576172 127.9639282226562 C 71.98442840576172 127.9639282226562 66.72916412353516 130.8370971679688 67.50022125244141 137.4233856201172 C 67.50022125244141 137.4233856201172 70.65336608886719 137.7740325927734 67.92063903808594 138.8948669433594 C 67.92063140869141 138.8948669433594 65.67812347412109 145.2714233398438 65.04747009277344 139.3153076171875 C 65.04747009277344 139.3153076171875 49.07147216796875 138.4744415283203 48.09064102172852 137.9842376708984 C 48.09064102172852 137.9842529296875 37.22991561889648 144.8509826660156 35.26780700683594 128.8047637939453 C 35.26780700683594 128.8047637939453 26.71938896179199 120.8167572021484 30.08276557922363 104.2803421020508 C 30.08276557922363 104.2803421020508 31.1338062286377 95.87192535400391 29.73211860656738 91.45751190185547 C 29.73211860656738 91.45751190185547 22.79518127441406 78.07425689697266 35.40780639648438 67.42332458496094 C 35.40780639648438 67.42332458496094 34.70738983154297 50.25625991821289 47.67022323608398 39.95594787597656 C 47.67022323608398 39.95594787597656 54.65464782714844 18.17282295227051 75.50258636474609 18.17282295227051 C 77.24542999267578 18.17282295227051 79.08280181884766 18.32475662231445 81.02347564697266 18.65448760986328 C 81.02347564697266 18.65448760986328 91.67442321777344 11.0869312286377 103.235969543457 18.7949047088623 C 103.235969543457 18.7949047088623 108.487419128418 13.55535697937012 117.4044647216797 13.55535697937012 C 124.8751831054688 13.55535697937012 134.9179840087891 17.22971153259277 146.6091156005859 30.74159240722656 C 146.6091156005859 30.74159240722656 175.1977233886719 38.62448883056641 161.3238525390625 64.05994415283203 C 161.3238525390625 64.05994415283203 158.4147644042969 80.79937744140625 142.6166076660156 80.80094909667969 C 142.2374572753906 80.80098724365234 141.8531036376953 80.7913818359375 141.4589538574219 80.77167510986328 L 136.9394378662109 103.7897186279297 L 168.8914031982422 146.6726531982422 L 143.8763732910156 165.1711730957031 Z" stroke="none" fill="#231815"/></g></svg>