<svg xmlns="http://www.w3.org/2000/svg" width="2616" height="86" viewBox="0 0 2616 86"><g transform="translate(28 -2174)"><text transform="translate(-28 2231)" fill="#fff" font-size="50" font-family="OTTtangsbudaejjigaeB, Ttangsbudaejjigae OTF"><tspan x="0" y="0">SAVE 몬내미</tspan></text><text transform="translate(1290 2231)" fill="#fff" font-size="50" font-family="OTTtangsbudaejjigaeB, Ttangsbudaejjigae OTF"><tspan x="0" y="0">SAVE 몬내미</tspan></text><text transform="translate(397 2231.5)" fill="none" stroke="#fff" stroke-width="2" font-size="50" font-family="OTTtangsbudaejjigaeB, Ttangsbudaejjigae OTF"><tspan x="0" y="0">지구 살리기 캠페인</tspan></text><text transform="translate(1715 2231.5)" fill="none" stroke="#fff" stroke-width="2" font-size="50" font-family="OTTtangsbudaejjigaeB, Ttangsbudaejjigae OTF"><tspan x="0" y="0">지구 살리기 캠페인</tspan></text><path d="M2246.5,74V40.622l-23.6,23.6-2.121-2.121,23.6-23.6H2211v-3h33.466l-23.247-24.073,2.157-2.084L2246.5,33.287V0h3V33.379l23.6-23.6,2.121,2.121-23.6,23.6H2285v3h-33.466l23.247,24.073-2.158,2.084L2249.5,40.712V74Z" transform="translate(-1910 2180)" fill="#fff"/><path d="M2246.5,74V40.622l-23.6,23.6-2.121-2.121,23.6-23.6H2211v-3h33.466l-23.247-24.073,2.157-2.084L2246.5,33.287V0h3V33.379l23.6-23.6,2.121,2.121-23.6,23.6H2285v3h-33.466l23.247,24.073-2.158,2.084L2249.5,40.712V74Z" transform="translate(-592 2180)" fill="#fff"/><path d="M2246.5,74V40.622l-23.6,23.6-2.121-2.121,23.6-23.6H2211v-3h33.466l-23.247-24.073,2.157-2.084L2246.5,33.287V0h3V33.379l23.6-23.6,2.121,2.121-23.6,23.6H2285v3h-33.466l23.247,24.073-2.158,2.084L2249.5,40.712V74Z" transform="translate(-1015 2180)" fill="#fff"/><g transform="translate(-164 -19.853)"><g transform="translate(1005 2193.853)" fill="none"><path d="M259.042,73.257a43.4,43.4,0,0,1-61.442,0,43.4,43.4,0,0,1-61.821-.386,43.4,43.4,0,0,1-61.821.386A43.12,43.12,0,1,1,43.237,0,43.22,43.22,0,0,1,73.958,12.742a43.4,43.4,0,0,1,61.821.386,43.4,43.4,0,0,1,61.821-.386,43.4,43.4,0,0,1,61.442,0A43.12,43.12,0,1,1,289.763,86,43.22,43.22,0,0,1,259.042,73.257Z" stroke="none"/><path d="M 289.7633056640625 84 C 295.3324890136719 84 300.7339477539062 82.91572570800781 305.8175659179688 80.77722930908203 C 310.72802734375 78.71163940429688 315.1383361816406 75.7542724609375 318.9259338378906 71.98731994628906 C 322.7127990722656 68.22113800048828 325.6855773925781 63.83627319335938 327.76171875 58.95449829101562 C 329.910400390625 53.90213775634766 330.9999084472656 48.53413772583008 330.9999084472656 42.99968338012695 C 330.9999084472656 37.46522903442383 329.910400390625 32.09727096557617 327.76171875 27.04495429992676 C 325.6855773925781 22.16327285766602 322.7127990722656 17.7784538269043 318.9259948730469 14.01236343383789 C 315.1383361816406 10.24549961090088 310.7280883789062 7.288227081298828 305.8175659179688 5.222636222839355 C 300.7339477539062 3.084272623062134 295.33251953125 2 289.7633056640625 2 C 284.1588439941406 2 278.7259521484375 3.097500085830688 273.6155700683594 5.26200008392334 C 268.6789855957031 7.352863788604736 264.2526550292969 10.34436321258545 260.4595336914062 14.15345478057861 L 259.0423583984375 15.5765905380249 L 257.6251525878906 14.15345478057861 C 253.8320770263672 10.34436321258545 249.40576171875 7.352863788604736 244.4691619873047 5.26200008392334 C 239.3587646484375 3.097500085830688 233.9258422851562 2 228.3213958740234 2 C 222.716796875 2 217.2838439941406 3.097500085830688 212.1734313964844 5.26200008392334 C 207.2368469238281 7.352863788604736 202.8105316162109 10.34436321258545 199.0173950195312 14.15345478057861 L 197.6002044677734 15.57663631439209 L 196.1830291748047 14.15345478057861 C 192.3900299072266 10.34436321258545 187.9637603759766 7.352863788604736 183.0272064208984 5.26200008392334 C 177.9168090820312 3.097500085830688 172.4838409423828 2 166.8792572021484 2 C 161.1838073730469 2 155.6697540283203 3.13209080696106 150.4902954101562 5.364909172058105 C 145.4866638183594 7.521909236907959 141.0198059082031 10.60249996185303 137.2138519287109 14.5211820602417 L 135.7791595458984 15.99836349487305 L 134.344482421875 14.52122688293457 C 130.5384368896484 10.60254573822021 126.071533203125 7.521909236907959 121.0678482055664 5.364909172058105 C 115.8883514404297 3.132136344909668 110.3743057250977 2 104.6788482666016 2 C 99.07439422607422 2 93.64148712158203 3.097500085830688 88.53107452392578 5.26200008392334 C 83.594482421875 7.352863788604736 79.16816711425781 10.34436321258545 75.37507629394531 14.15345478057861 L 73.95789337158203 15.57663631439209 L 72.54071044921875 14.15345478057861 C 68.74761962890625 10.34436321258545 64.32125854492188 7.352863788604736 59.38466644287109 5.26200008392334 C 54.27425765991211 3.097500085830688 48.84134674072266 2 43.23680114746094 2 C 37.66757583618164 2 32.26616668701172 3.084272623062134 27.18252944946289 5.222636222839355 C 22.2719841003418 7.288227081298828 17.86166572570801 10.24549961090088 14.07402992248535 14.01236343383789 C 10.28716659545898 17.7784538269043 7.314348220825195 22.16327285766602 5.238211631774902 27.04495429992676 C 3.089484453201294 32.09727096557617 1.999984383583069 37.46522903442383 1.999984383583069 42.99968338012695 C 1.999984383583069 48.53413772583008 3.089484453201294 53.90213775634766 5.238211631774902 58.95449829101562 C 7.314348220825195 63.83627319335938 10.28716659545898 68.22113800048828 14.07402992248535 71.98731994628906 C 17.8617115020752 75.7542724609375 22.27202987670898 78.71163940429688 27.18252944946289 80.77722930908203 C 32.26616668701172 82.91572570800781 37.66762161254883 84 43.23680114746094 84 C 48.84130096435547 84 54.27425765991211 82.90245819091797 59.38466644287109 80.73790740966797 C 64.32125854492188 78.64700317382812 68.74757385253906 75.65541076660156 72.54071044921875 71.84622955322266 L 73.95789337158203 70.42304229736328 L 75.37507629394531 71.84622955322266 C 79.168212890625 75.65541076660156 83.59452819824219 78.64700317382812 88.53112030029297 80.73790740966797 C 93.64153289794922 82.90245819091797 99.07439422607422 84 104.6788482666016 84 C 110.3743057250977 84 115.8883514404297 82.86786651611328 121.0678024291992 80.63500213623047 C 126.0714874267578 78.47795104980469 130.5383911132812 75.39722442626953 134.344482421875 71.47845458984375 L 135.7791595458984 70.00122833251953 L 137.2138977050781 71.47845458984375 C 141.0198516845703 75.39722442626953 145.4867095947266 78.47795104980469 150.4903411865234 80.63500213623047 C 155.6697540283203 82.86786651611328 161.1838073730469 84 166.8792572021484 84 C 172.4838409423828 84 177.9168090820312 82.90245819091797 183.0271606445312 80.73790740966797 C 187.9637603759766 78.64700317382812 192.3899841308594 75.65541076660156 196.1829833984375 71.84622955322266 L 197.6002044677734 70.42299652099609 L 199.0173950195312 71.84622955322266 C 202.8105316162109 75.65541076660156 207.2368469238281 78.64700317382812 212.1734313964844 80.73790740966797 C 217.2838897705078 82.90245819091797 222.7168426513672 84 228.3213958740234 84 C 233.9258422851562 84 239.3587188720703 82.90245819091797 244.4691162109375 80.73790740966797 C 249.4057159423828 78.64700317382812 253.83203125 75.65541076660156 257.6251525878906 71.84622955322266 L 259.0423583984375 70.42304229736328 L 260.4595336914062 71.84622955322266 C 264.2527160644531 75.65541076660156 268.6790161132812 78.64700317382812 273.6155700683594 80.73790740966797 C 278.7259826660156 82.90245819091797 284.1588439941406 84 289.7633056640625 84 M 289.7633056640625 86 C 277.7481689453125 86 266.8780822753906 81.12627410888672 259.0423583984375 73.25745391845703 C 251.2066650390625 81.12627410888672 240.3365325927734 86 228.3213958740234 86 C 216.3060302734375 86 205.4358978271484 81.12627410888672 197.6002044677734 73.25745391845703 C 189.7647552490234 81.12627410888672 178.8946685791016 86 166.8792572021484 86 C 154.6688079833984 86 143.6412506103516 80.96700286865234 135.7791595458984 72.87186431884766 C 127.9168930053711 80.96700286865234 116.8893051147461 86 104.6788482666016 86 C 92.66371154785156 86 81.7935791015625 81.12627410888672 73.95789337158203 73.25745391845703 C 66.12221527099609 81.12627410888672 55.2520751953125 86 43.23680114746094 86 C 19.357666015625 86 -1.558061012474354e-05 66.74781799316406 -1.558061012474354e-05 42.99968338012695 C -1.558061012474354e-05 19.25149917602539 19.357666015625 0 43.23680114746094 0 C 55.2520751953125 0 66.12221527099609 4.87354564666748 73.95789337158203 12.74222755432129 C 81.7935791015625 4.87354564666748 92.66371154785156 0 104.6788482666016 0 C 116.8893051147461 0 127.9168930053711 5.03281831741333 135.7791595458984 13.12777233123779 C 143.6412506103516 5.03281831741333 154.6688079833984 0 166.8792572021484 0 C 178.8946685791016 0 189.7647552490234 4.87354564666748 197.6002044677734 12.74222755432129 C 205.4358978271484 4.87354564666748 216.3060302734375 0 228.3213958740234 0 C 240.3365325927734 0 251.2066650390625 4.87354564666748 259.0423583984375 12.74222755432129 C 266.8780822753906 4.87354564666748 277.7481689453125 0 289.7633056640625 0 C 313.6424865722656 0 332.9999084472656 19.25149917602539 332.9999084472656 42.99968338012695 C 332.9999084472656 66.74781799316406 313.6424865722656 86 289.7633056640625 86 Z" stroke="none" fill="#fff"/></g><text transform="translate(1164 2230.853)" fill="#fff" font-size="10" font-family="NotoSansKR-Medium, Noto Sans KR" font-weight="500"><tspan x="-82.7" y="0">푸드 리퍼브로 저렴하게 채소도 구매하고</tspan><tspan x="-108.54" y="21">버려지는 음식물 쓰레기를 줄여 환경보호도 함께해요!</tspan></text></g><path d="M2246.5,74V40.622l-23.6,23.6-2.121-2.121,23.6-23.6H2211v-3h33.466l-23.247-24.073,2.157-2.084L2246.5,33.287V0h3V33.379l23.6-23.6,2.121,2.121-23.6,23.6H2285v3h-33.466l23.247,24.073-2.158,2.084L2249.5,40.712V74Z" transform="translate(303 2180)" fill="#fff"/><g transform="translate(1154 -19.853)"><g transform="translate(1005 2193.853)" fill="none"><path d="M259.042,73.257a43.4,43.4,0,0,1-61.442,0,43.4,43.4,0,0,1-61.821-.386,43.4,43.4,0,0,1-61.821.386A43.12,43.12,0,1,1,43.237,0,43.22,43.22,0,0,1,73.958,12.742a43.4,43.4,0,0,1,61.821.386,43.4,43.4,0,0,1,61.821-.386,43.4,43.4,0,0,1,61.442,0A43.12,43.12,0,1,1,289.763,86,43.22,43.22,0,0,1,259.042,73.257Z" stroke="none"/><path d="M 289.7633056640625 84 C 295.3324890136719 84 300.7339477539062 82.91572570800781 305.8175659179688 80.77722930908203 C 310.72802734375 78.71163940429688 315.1383361816406 75.7542724609375 318.9259338378906 71.98731994628906 C 322.7127990722656 68.22113800048828 325.6855773925781 63.83627319335938 327.76171875 58.95449829101562 C 329.910400390625 53.90213775634766 330.9999084472656 48.53413772583008 330.9999084472656 42.99968338012695 C 330.9999084472656 37.46522903442383 329.910400390625 32.09727096557617 327.76171875 27.04495429992676 C 325.6855773925781 22.16327285766602 322.7127990722656 17.7784538269043 318.9259948730469 14.01236343383789 C 315.1383361816406 10.24549961090088 310.7280883789062 7.288227081298828 305.8175659179688 5.222636222839355 C 300.7339477539062 3.084272623062134 295.33251953125 2 289.7633056640625 2 C 284.1588439941406 2 278.7259521484375 3.097500085830688 273.6155700683594 5.26200008392334 C 268.6789855957031 7.352863788604736 264.2526550292969 10.34436321258545 260.4595336914062 14.15345478057861 L 259.0423583984375 15.5765905380249 L 257.6251525878906 14.15345478057861 C 253.8320770263672 10.34436321258545 249.40576171875 7.352863788604736 244.4691619873047 5.26200008392334 C 239.3587646484375 3.097500085830688 233.9258422851562 2 228.3213958740234 2 C 222.716796875 2 217.2838439941406 3.097500085830688 212.1734313964844 5.26200008392334 C 207.2368469238281 7.352863788604736 202.8105316162109 10.34436321258545 199.0173950195312 14.15345478057861 L 197.6002044677734 15.57663631439209 L 196.1830291748047 14.15345478057861 C 192.3900299072266 10.34436321258545 187.9637603759766 7.352863788604736 183.0272064208984 5.26200008392334 C 177.9168090820312 3.097500085830688 172.4838409423828 2 166.8792572021484 2 C 161.1838073730469 2 155.6697540283203 3.13209080696106 150.4902954101562 5.364909172058105 C 145.4866638183594 7.521909236907959 141.0198059082031 10.60249996185303 137.2138519287109 14.5211820602417 L 135.7791595458984 15.99836349487305 L 134.344482421875 14.52122688293457 C 130.5384368896484 10.60254573822021 126.071533203125 7.521909236907959 121.0678482055664 5.364909172058105 C 115.8883514404297 3.132136344909668 110.3743057250977 2 104.6788482666016 2 C 99.07439422607422 2 93.64148712158203 3.097500085830688 88.53107452392578 5.26200008392334 C 83.594482421875 7.352863788604736 79.16816711425781 10.34436321258545 75.37507629394531 14.15345478057861 L 73.95789337158203 15.57663631439209 L 72.54071044921875 14.15345478057861 C 68.74761962890625 10.34436321258545 64.32125854492188 7.352863788604736 59.38466644287109 5.26200008392334 C 54.27425765991211 3.097500085830688 48.84134674072266 2 43.23680114746094 2 C 37.66757583618164 2 32.26616668701172 3.084272623062134 27.18252944946289 5.222636222839355 C 22.2719841003418 7.288227081298828 17.86166572570801 10.24549961090088 14.07402992248535 14.01236343383789 C 10.28716659545898 17.7784538269043 7.314348220825195 22.16327285766602 5.238211631774902 27.04495429992676 C 3.089484453201294 32.09727096557617 1.999984383583069 37.46522903442383 1.999984383583069 42.99968338012695 C 1.999984383583069 48.53413772583008 3.089484453201294 53.90213775634766 5.238211631774902 58.95449829101562 C 7.314348220825195 63.83627319335938 10.28716659545898 68.22113800048828 14.07402992248535 71.98731994628906 C 17.8617115020752 75.7542724609375 22.27202987670898 78.71163940429688 27.18252944946289 80.77722930908203 C 32.26616668701172 82.91572570800781 37.66762161254883 84 43.23680114746094 84 C 48.84130096435547 84 54.27425765991211 82.90245819091797 59.38466644287109 80.73790740966797 C 64.32125854492188 78.64700317382812 68.74757385253906 75.65541076660156 72.54071044921875 71.84622955322266 L 73.95789337158203 70.42304229736328 L 75.37507629394531 71.84622955322266 C 79.168212890625 75.65541076660156 83.59452819824219 78.64700317382812 88.53112030029297 80.73790740966797 C 93.64153289794922 82.90245819091797 99.07439422607422 84 104.6788482666016 84 C 110.3743057250977 84 115.8883514404297 82.86786651611328 121.0678024291992 80.63500213623047 C 126.0714874267578 78.47795104980469 130.5383911132812 75.39722442626953 134.344482421875 71.47845458984375 L 135.7791595458984 70.00122833251953 L 137.2138977050781 71.47845458984375 C 141.0198516845703 75.39722442626953 145.4867095947266 78.47795104980469 150.4903411865234 80.63500213623047 C 155.6697540283203 82.86786651611328 161.1838073730469 84 166.8792572021484 84 C 172.4838409423828 84 177.9168090820312 82.90245819091797 183.0271606445312 80.73790740966797 C 187.9637603759766 78.64700317382812 192.3899841308594 75.65541076660156 196.1829833984375 71.84622955322266 L 197.6002044677734 70.42299652099609 L 199.0173950195312 71.84622955322266 C 202.8105316162109 75.65541076660156 207.2368469238281 78.64700317382812 212.1734313964844 80.73790740966797 C 217.2838897705078 82.90245819091797 222.7168426513672 84 228.3213958740234 84 C 233.9258422851562 84 239.3587188720703 82.90245819091797 244.4691162109375 80.73790740966797 C 249.4057159423828 78.64700317382812 253.83203125 75.65541076660156 257.6251525878906 71.84622955322266 L 259.0423583984375 70.42304229736328 L 260.4595336914062 71.84622955322266 C 264.2527160644531 75.65541076660156 268.6790161132812 78.64700317382812 273.6155700683594 80.73790740966797 C 278.7259826660156 82.90245819091797 284.1588439941406 84 289.7633056640625 84 M 289.7633056640625 86 C 277.7481689453125 86 266.8780822753906 81.12627410888672 259.0423583984375 73.25745391845703 C 251.2066650390625 81.12627410888672 240.3365325927734 86 228.3213958740234 86 C 216.3060302734375 86 205.4358978271484 81.12627410888672 197.6002044677734 73.25745391845703 C 189.7647552490234 81.12627410888672 178.8946685791016 86 166.8792572021484 86 C 154.6688079833984 86 143.6412506103516 80.96700286865234 135.7791595458984 72.87186431884766 C 127.9168930053711 80.96700286865234 116.8893051147461 86 104.6788482666016 86 C 92.66371154785156 86 81.7935791015625 81.12627410888672 73.95789337158203 73.25745391845703 C 66.12221527099609 81.12627410888672 55.2520751953125 86 43.23680114746094 86 C 19.357666015625 86 -1.558061012474354e-05 66.74781799316406 -1.558061012474354e-05 42.99968338012695 C -1.558061012474354e-05 19.25149917602539 19.357666015625 0 43.23680114746094 0 C 55.2520751953125 0 66.12221527099609 4.87354564666748 73.95789337158203 12.74222755432129 C 81.7935791015625 4.87354564666748 92.66371154785156 0 104.6788482666016 0 C 116.8893051147461 0 127.9168930053711 5.03281831741333 135.7791595458984 13.12777233123779 C 143.6412506103516 5.03281831741333 154.6688079833984 0 166.8792572021484 0 C 178.8946685791016 0 189.7647552490234 4.87354564666748 197.6002044677734 12.74222755432129 C 205.4358978271484 4.87354564666748 216.3060302734375 0 228.3213958740234 0 C 240.3365325927734 0 251.2066650390625 4.87354564666748 259.0423583984375 12.74222755432129 C 266.8780822753906 4.87354564666748 277.7481689453125 0 289.7633056640625 0 C 313.6424865722656 0 332.9999084472656 19.25149917602539 332.9999084472656 42.99968338012695 C 332.9999084472656 66.74781799316406 313.6424865722656 86 289.7633056640625 86 Z" stroke="none" fill="#fff"/></g><text transform="translate(1164 2230.853)" fill="#fff" font-size="10" font-family="NotoSansKR-Medium, Noto Sans KR" font-weight="500"><tspan x="-82.7" y="0">푸드 리퍼브로 저렴하게 채소도 구매하고</tspan><tspan x="-108.54" y="21">버려지는 음식물 쓰레기를 줄여 환경보호도 함께해요!</tspan></text></g></g></svg>