<svg xmlns="http://www.w3.org/2000/svg" width="167.042" height="164.596" viewBox="0 0 167.042 164.596"><g transform="translate(-459.349 392.22) rotate(-39)"><path d="M611.7,76.586S593.48,24.369,585.5,24.022l13.1-.694S619.849,52.3,616.032,75.372c0,0,5.2-2.6,2.255-25.415,0,0-4.857-18.129-4.51-27.5,0,0,.52-6.419-1.041-6.939h7.633S618.3,21.94,624.018,35.3c0,0,7.118,29.145,0,41.288,0,0,8.321-6.419,8.842-27.757,0,0-.173-16.307-1.908-21.858,0,0-3.99-12.664-2.082-14.4h5.551s-1.908,6.419,5.9,19.43c0,0,7.98,30.532-5.9,44.584s-21.685,5.2-21.685,5.2Z" transform="translate(-4.393 0)" fill="#00b272" stroke="#000" stroke-miterlimit="10" stroke-width="0.5"/><path d="M594.554,103.576c14.538-4.306,41.033-8.82,62.763,5.909a20.437,20.437,0,0,1,7.224,8.665c4.758,10.768,11.884,34.188-22.833,53.784a2.892,2.892,0,0,1-.285.142c-1.125.482-12.9,2.576-16.6,1.536-1.6-.45,2.241,9.495,3.555,10.509a30.425,30.425,0,0,0,11.171,4.991,2.757,2.757,0,0,1,.736.305,21.506,21.506,0,0,1,2,1.376,2.729,2.729,0,0,1-2.395,4.785c-.069-.019-.139-.039-.209-.057a2.8,2.8,0,0,0-.536-.085c-2.545-.16-23.317-2.057-24.659-21.35a2.707,2.707,0,0,0-2.352-2.485c-9.507-1.267-45.234-8.125-40.565-39.3a38.555,38.555,0,0,1,2.286-9.438A31.541,31.541,0,0,1,594.554,103.576Z" transform="translate(0 -26.571)" fill="#fefefe" stroke="#000" stroke-miterlimit="10" stroke-width="0.5"/></g></svg>