<svg id="Layer_1" data-name="Layer 1" xmlns="http://www.w3.org/2000/svg" viewBox="0 0 948.1 1341.5"><defs><style>.cls-1{fill:#231815;}.cls-2{fill:#be9a42;}.cls-10,.cls-11,.cls-13,.cls-14,.cls-15,.cls-16,.cls-17,.cls-18,.cls-2,.cls-25,.cls-3,.cls-4,.cls-5,.cls-6{stroke:#040000;}.cls-10,.cls-11,.cls-14,.cls-15,.cls-16,.cls-18,.cls-19,.cls-2,.cls-23,.cls-26,.cls-3,.cls-4,.cls-5,.cls-6{stroke-miterlimit:10;}.cls-10,.cls-11,.cls-12,.cls-13,.cls-14,.cls-15,.cls-16,.cls-17,.cls-19,.cls-2,.cls-23,.cls-25,.cls-26,.cls-3,.cls-4,.cls-5,.cls-6{stroke-width:3px;}.cls-3{fill:#3d586b;}.cls-4{fill:#349560;}.cls-5{fill:#6d6a68;}.cls-6{fill:#ee3c2c;}.cls-7{fill:#ef4e46;}.cls-10,.cls-8{fill:#fff;}.cls-9{fill:#0c0d0d;}.cls-11{fill:#ffe3c7;}.cls-12,.cls-13,.cls-19{fill:none;}.cls-12,.cls-19,.cls-26{stroke:#231815;}.cls-12,.cls-13,.cls-17,.cls-25{stroke-linecap:round;stroke-linejoin:round;}.cls-14{fill:#bf9944;}.cls-15{fill:#d0ac54;}.cls-16{fill:#3c4d6b;}.cls-17{fill:#d0ae4d;}.cls-18{fill:#4c5e74;stroke-width:2px;}.cls-20{fill:#990700;}.cls-21{fill:#3b803e;}.cls-22{fill:#fff6db;}.cls-23{fill:#a01d17;stroke:#000;}.cls-24{fill:#d8d8d8;}.cls-25{fill:#eaeaea;}.cls-26{fill:#964e36;}</style></defs><title>main_event_popup_poster3</title><rect class="cls-1" width="948.1" height="1343.06"/><path class="cls-2" d="M288.5,355.7s59-73,185.7-82c0,0,134.7-6,223,78.4,0,0,36.3,112.3,39.7,134.6s-222-82.6-222-82.6L303.2,371.7Z"/><path class="cls-3" d="M726.9,453.1c-36.6-32-73.5-56-109.5-73.8,16.6,33-34.5,28.4-34.5,28.4,98,59.4-21.4,98-21.4,98-2.6,65.4-83.3,58.2-83.3,58.2-222.5-53-328.5,18-353.1,38.2-1.1,60.6,15.1,56.2,15.1,56.2L554.8,761.7s-14.6,127.4,67.6,107.6S772.2,707.7,772.2,707.7l8.7-128Z"/><path class="cls-4" d="M478.2,563.9s80.7,7.2,83.3-58.2c0,0,119.4-38.6,21.4-98,0,0,51.1,4.6,34.5-28.4-173.5-85.6-327-27.6-327-27.6C142,404.4,126.2,579.1,126.2,579.1c-.6,8.5-.9,16.1-1.1,23C149.7,581.9,255.7,510.9,478.2,563.9Z"/><circle class="cls-5" cx="119.4" cy="856.8" r="46"/><path class="cls-6" d="M620.8,756.4c-8.7-115.1-126.6-204.2-268.5-203C205,554.8,86,653.3,87.1,773.1S208.9,989.2,356.2,987.9c131.2-1.2,244-81.7,262.4-187.4a17.6,17.6,0,0,1,1.5-4.4l2.3-37Z"/><path class="cls-7" d="M554.6,864.1a25.8,25.8,0,0,0-11.1-17.3c-22.1-13-44.7,2.9-53.5,13.2-78.7,89.3-155.6,93-185,90.4a4.8,4.8,0,0,0-5.1,3.9,4.9,4.9,0,0,0,3.4,5.5A253,253,0,0,0,375.8,970c102.5-.9,162-69,162.6-69.7C550.7,887.2,556.1,875,554.6,864.1Z"/><path class="cls-8" d="M162.5,650.4a3.6,3.6,0,0,1-2-.6,3.7,3.7,0,0,1-1.2-5c1.7-2.8,43.5-67.5,182.4-80.9a3.6,3.6,0,0,1,4,3.3,3.7,3.7,0,0,1-3.3,4C207.5,584.2,166,648,165.6,648.7A3.7,3.7,0,0,1,162.5,650.4Z"/><path class="cls-9" d="M297.6,755.2,672,596.5c5-2.1,9.1,4.3,5.1,7.9l-277,254a4.8,4.8,0,0,1-5.6.6L293.3,802a4.7,4.7,0,0,0-5.1.3L216,853.4a4.9,4.9,0,0,1-6.3-.6L43.1,678.6a4.8,4.8,0,0,1,5.1-7.8l246,84.5A4.5,4.5,0,0,0,297.6,755.2Z"/><polygon class="cls-8" points="375.9 842 633.5 617 599.2 631.6 365.8 836.4 375.9 842"/><path class="cls-9" d="M290.4,735.1a2.2,2.2,0,0,1-1.1-.2,3.6,3.6,0,0,1-2.4-4.6c0-.1,3.8-12.7-1.7-22.2-3-5.2-8.2-8.7-15.6-10.4s-14.9-1.3-19.6,2.1c-6.7,4.8-7.6,13.6-7.7,13.7a3.6,3.6,0,0,1-4,3.3,3.7,3.7,0,0,1-3.3-4c.1-.5,1.2-12.1,10.6-18.9,6.6-4.7,15.2-5.9,25.7-3.4s16.3,6.9,20.3,13.9c7.1,12.5,2.5,27.5,2.3,28.1A3.6,3.6,0,0,1,290.4,735.1Z"/><path d="M303.4,937.4c-16.7.2-30.4-11.9-30.5-26.8a3.7,3.7,0,0,1,7.4-.1c.1,10.9,10.4,19.7,23,19.6s22.8-9.1,22.7-20a3.7,3.7,0,1,1,7.4,0C333.5,925,320.1,937.3,303.4,937.4Z"/><path d="M326,861a3.8,3.8,0,0,1-3.7-3.7c-.1-10.9-10.4-19.6-23-19.5s-22.8,9-22.7,19.9a3.7,3.7,0,0,1-7.4.1c-.1-15,13.3-27.2,30-27.4s30.4,11.9,30.5,26.8A3.8,3.8,0,0,1,326,861Z"/><circle cx="373.7" cy="883.2" r="3.6"/><circle cx="356.5" cy="883.5" r="4.4"/><circle cx="365.8" cy="869.3" r="3.6"/><path d="M357.1,910.2c-10.5.1-23.7-4.3-29.4-21-2.9-8.4-2.6-15.9.8-22.3,5.5-10.2,17.2-13.3,17.7-13.4a3.7,3.7,0,0,1,4.5,2.7,3.8,3.8,0,0,1-2.6,4.5c-.1,0-9.2,2.4-13.1,9.8-2.4,4.4-2.5,9.9-.3,16.4,7.1,21.1,28.5,15.2,29.4,14.9a3.7,3.7,0,0,1,2,7.1A37.3,37.3,0,0,1,357.1,910.2Z"/><path d="M300.4,911c-9.6.1-17.2-11.7-17.3-26.9s7.2-27.2,16.9-27.3,17.2,11.8,17.4,27S310.1,910.9,300.4,911Zm-.4-46.8c-4.6,0-9.7,8.2-9.6,19.8s5.4,19.7,10,19.7,9.7-8.2,9.6-19.9S304.7,864.2,300,864.2Z"/><circle class="cls-10" cx="576.4" cy="879.6" r="46"/><path class="cls-11" d="M568.5,843.6c-1.8,1.4-3.3,4-.9,7.8a12.4,12.4,0,0,0,6.5,5c10.7,3.8,46.1,18.2,23,39.4,0,0-5,3.3,1.3,7.8,0,0,8.3,3.4,14.2-9.8a34.1,34.1,0,0,0-.4-28.3c-5.5-11.9-17.4-24.6-38.7-23.7A8.3,8.3,0,0,0,568.5,843.6Z"/><path class="cls-12" d="M392.5,472.6s136-11.5,215,98"/><path class="cls-13" d="M161.5,489.8s143.5-50.2,76-6.7-85,60-85,60"/><path class="cls-13" d="M378.9,384.4s165.1-33.3,265.3,66"/><path class="cls-14" d="M790.5,947.3c16.6-12.5-6.8-39,52.2-14.5,36.6,15.2,50.8-2.6,56.3-18.4-2.8-38.7-6.1-67.9-6.1-67.9,2.3-68-39-250.7-39-250.7-12-45.8-41.2-141.2-41.2-141.2-11-30.1-41.1-93.1-41.1-93.1-10.3-33.9-39-61.3-67.8-81.4,0,0-140.2-23.7-164.4-19.4s-18.7-6.2-18.7-6.2c-21.9,5.9-21.1-3.9-21.1-3.9s-31.5,12.5-83.5,12.5c-23.9,0-16.8-17.4-2.2-36.1-41.9,28.6-43.3,70.7-43.3,70.7,111.2-50.9,219.4-6.5,219.4-6.5,85.9,32.8,105.6,60.6,105.6,60.6,73.6,270.3,53.6,285,65,357,5.6,35.9,3.7,140.5.4,236.4C768,950,779.8,955.3,790.5,947.3Z"/><path class="cls-15" d="M416.1,263.1c52,0,83.5-12.5,83.5-12.5s-.8,9.8,21.1,3.9c0,0-5.4,10.5,18.7,6.2s164.4,19.4,164.4,19.4a367.6,367.6,0,0,0-72.9-39c-21.7-33.3-85.7-28.3-85.7-28.3-6.3-18.3-63.6-9.7-63.6-9.7-29.9,4-51.7,13-67.7,23.9C399.3,245.7,392.2,263.1,416.1,263.1Z"/><path class="cls-16" d="M899,914.4c-5.5,15.8-19.7,33.6-56.3,18.4-59-24.5-35.6,2-52.2,14.5-10.7,8-22.5,2.7-29.5-2.1-3.3,96.5-8.1,184.1-8.1,184.1,28.5,24.5,39.7,6,39.7,6l-.7-33.8c51,9.3,53,12.6,90.7-1.4C907.1,1091,904.1,986.4,899,914.4Z"/><path class="cls-13" d="M542,220.6s-42,1.5-47,42.5"/><path class="cls-13" d="M632.5,241.4s-113-14.2-126.5,32.2"/><path class="cls-13" d="M518.5,275.9s17-22,48.5-19.4"/><path class="cls-13" d="M613.2,300.1s80.8-31.5,138.3,28"/><path class="cls-13" d="M601,295.1s4.3-22,37.2-17"/><path class="cls-17" d="M800.5,1103s-10.4-355.7-17.2-496.6c-.3-5,7.1-6.1,8.3-1.2,22.4,92.2,70.9,320.5,49.9,504.5"/><path class="cls-18" d="M843.2,932.8c-52.1-20.7-35.9,2.8-51.9,14.9-.2.2,4.5-4.9,4.3-4.8,2.2,69.9-1,134-.2,159.5,20.2,3.8,37.1,6.3,47.1,7.1C848,1052,847.7,992.6,843.2,932.8Z"/><path class="cls-19" d="M697.2,352.1s12.3-47.6,76.3,26.9l14.2,17"/><path class="cls-19" d="M695.6,351.8s10-58.9,76,9.7"/><path class="cls-20" d="M285,867.6s3.1-12,15.2-12.2c0,0,8.1-1.8,13.7,9.6a4.9,4.9,0,0,0,5.4,2.7,1.6,1.6,0,0,0,.9-.3s1.8-.6,1.9-5.5a9.7,9.7,0,0,0-.2-2.4c-1.1-4.9-6.5-22.8-26.6-19.9S277.4,864,277.4,864s.7,5.2,3.6,5.6A3.8,3.8,0,0,0,285,867.6Z"/><path class="cls-20" d="M286.7,903.3s3.2,9,14.4,9c0,0,10.7-.9,13.6-11.1,2.2-7.9,7-6.4,7-6.4s4.3.1,3.4,8.1-.4,26.4-25.3,25.1c-16.7-.8-18.8-20.8-18.8-20.8s-1.8-5.6,1.9-7S286.7,903.3,286.7,903.3Z"/><path class="cls-9" d="M646.4,294.4,676.1,329a2.4,2.4,0,0,1,.7,2.2,2.1,2.1,0,0,1-.9,1.6l-16.7,11.8a8.5,8.5,0,0,0-3.6,7.9,8.9,8.9,0,0,0,5.2,7.4,9,9,0,0,0,3.2.9l36.9,2.4,1.3.4a3.7,3.7,0,0,1,1.9,1.8l14.4,33.8a8.8,8.8,0,0,0,4.4,4.5,9.1,9.1,0,0,0,8.2-.2,8.4,8.4,0,0,0,4.2-5.8L744,377v-.4h.2l41.1,9.5a8.7,8.7,0,0,0,10.3-2.8,8.9,8.9,0,0,0-.5-11.2l-.2-.2-.2-.2-30.2-27.6a3.3,3.3,0,0,1,.2-4.6L788.2,319a6.7,6.7,0,0,0,2.5-5.9,7.1,7.1,0,0,0-3.9-5.5,6.7,6.7,0,0,0-3.1-.7l-45.2.5-31.9-44a6.7,6.7,0,0,0-2.7-2.3,6.8,6.8,0,0,0-7.1.8,6.7,6.7,0,0,0-2.5,5.9l-1.1,30-36.8-17.4H656a8.9,8.9,0,0,0-10.3,3.3A9,9,0,0,0,646.4,294.4Zm1.4-9.5a6.3,6.3,0,0,1,7.6-2.2L694.3,301a1.3,1.3,0,0,0,1.1-.1,1.4,1.4,0,0,0,.2-1v-.3l1.2-31.9a4,4,0,0,1,1.5-3.9,4.5,4.5,0,0,1,4.6-.5,4.1,4.1,0,0,1,1.7,1.5L737,309.9l46.7-.5a4.5,4.5,0,0,1,2,.4,4.3,4.3,0,0,1,2.5,3.6,3.9,3.9,0,0,1-1.5,3.7l-23.5,20.6a5.8,5.8,0,0,0-.5,8l30.7,28.1a6.3,6.3,0,0,1,.3,8.1,6.2,6.2,0,0,1-7.6,2l-41.5-9.6-.2-.2a2,2,0,0,0-1.7.1,1.4,1.4,0,0,0-.8,1.2v.3L733,397a6,6,0,0,1-3.1,4.3,6.5,6.5,0,0,1-9.2-3.2l-14.3-33.6a6.2,6.2,0,0,0-3.1-3.1,8.6,8.6,0,0,0-2.3-.6l-36.8-2.5a5,5,0,0,1-2.4-.6,6.7,6.7,0,0,1-3.8-5.4,6.3,6.3,0,0,1,2.6-5.7l16.7-11.9a4.2,4.2,0,0,0,1.9-3.2,5,5,0,0,0-1.2-4.1l-29.7-34.6A6.3,6.3,0,0,1,647.8,284.9Z"/><path class="cls-21" d="M655.4,282.7,694.3,301a1.3,1.3,0,0,0,1.1-.1,1.4,1.4,0,0,0,.2-1v-.3l1.2-31.9a4,4,0,0,1,1.5-3.9,4.5,4.5,0,0,1,4.6-.5,4.1,4.1,0,0,1,1.7,1.5L737,309.9l46.7-.5a4.5,4.5,0,0,1,2,.4,4.3,4.3,0,0,1,2.5,3.6,3.9,3.9,0,0,1-1.5,3.7l-23.5,20.6a5.8,5.8,0,0,0-.5,8l30.7,28.1a6.3,6.3,0,0,1,.3,8.1,6.2,6.2,0,0,1-7.6,2l-41.5-9.6-.2-.2a2,2,0,0,0-1.7.1,1.4,1.4,0,0,0-.8,1.2v.3L733,397a6,6,0,0,1-3.1,4.3,6.5,6.5,0,0,1-9.2-3.2l-14.3-33.6a6.2,6.2,0,0,0-3.1-3.1,8.6,8.6,0,0,0-2.3-.6l-36.8-2.5a5,5,0,0,1-2.4-.6,6.7,6.7,0,0,1-3.8-5.4,6.3,6.3,0,0,1,2.6-5.7l16.7-11.9a4.2,4.2,0,0,0,1.9-3.2,5,5,0,0,0-1.2-4.1l-29.7-34.6a6.3,6.3,0,0,1-.5-7.9A6.3,6.3,0,0,1,655.4,282.7Z"/><ellipse class="cls-22" cx="719.8" cy="334.9" rx="12.3" ry="25.7" transform="translate(45.6 754.2) rotate(-56.8)"/><path class="cls-23" d="M271.7,1196.1c-1.5.1-37,3.9-63.7-13.3-7,6.1-30.1,23-81.7,36l-3.5,2.6c19.7,32.9,68.4,73.5,180.1,82.1l-30.8-110.6h-.8Z"/><path class="cls-24" d="M128.3,1222.7s-47.1,7.5-53.8-30.6c0,0-7-33.2,19.8-44.1,0,0-46-.2-38.7-52.1a38.3,38.3,0,0,1,4-11.8c4.5-9.4,14.8-23.9,35.4-28.4,2-.4,2.8-3,1.6-4.7-8.2-12.4-33.2-54.6-.3-64.9,0,0,32.2-14.2,42.3,34.6a1.9,1.9,0,0,0,3.6.3c4.6-16,19.8-43.9,43.1-36.8,0,0,46.4,10.2,2.7,70.7a4,4,0,0,0,.8,5.8,27.5,27.5,0,0,1,11.1,24.8c-.7,7.6-4.6,14.5-9.9,20a60.7,60.7,0,0,1-10,8.1s32.6-6.2,40.4,28.6a46.6,46.6,0,0,1-5.1,33S195.6,1209.9,128.3,1222.7Z"/><path class="cls-9" d="M119.3,1225.8c-14.7,0-42.2-4-47.4-33.3,0-.2-5.7-28.8,14.2-42.9-6.9-1.5-16.7-5-24.1-13.5s-11.4-23.3-8.9-40.5a42.4,42.4,0,0,1,4.1-12.7c4.5-9,15.2-24.9,37.2-29.7a.8.8,0,0,0,.1-.8c-6.9-10.3-22.1-36.2-15.8-53.9,2.6-7.2,8.2-12.1,16.8-14.8a29.9,29.9,0,0,1,24.2,1c9.9,5.1,16.9,16.2,20.8,32.9,4.1-12.1,12.6-27.2,24.7-33.8a26.3,26.3,0,0,1,20.9-2.1c.4.1,15.8,3.6,21.3,18.2s-.4,33.2-17.3,56.5a1.6,1.6,0,0,0,.2,2.3,29.8,29.8,0,0,1,12.1,27.1c-.7,7.7-4.3,15.1-10.6,21.5l-3.6,3.4c10.9.7,29.1,5.7,34.7,31a48.4,48.4,0,0,1-5.3,34.8c-.8,1.4-21.1,35.8-88.9,48.7h0A55.8,55.8,0,0,1,119.3,1225.8Zm9-3.1ZM106.7,986.8a25.5,25.5,0,0,0-9.3,1.7c-7.4,2.3-11.8,6.1-13.8,11.7-5.7,16,10.2,41.8,15.2,49.3a6.3,6.3,0,0,1,.5,5.5,5.2,5.2,0,0,1-3.8,3.2c-19.8,4.4-29.6,18.8-33.6,27a35.2,35.2,0,0,0-3.7,11.1c-2.2,15.7.4,27.9,7.7,36.4,10.8,12.5,28.3,12.7,28.4,12.7a2.5,2.5,0,0,1,2.5,2.1,2.6,2.6,0,0,1-1.5,2.9c-24.5,10-18.4,40.9-18.3,41.2,6.2,35,48.5,28.9,50.8,28.5,65.2-12.4,85.1-45.8,85.3-46.2,8.9-15.2,4.8-30.8,4.8-31-7.2-32-36.2-27-37.4-26.8a2.6,2.6,0,0,1-2.9-1.6,2.7,2.7,0,0,1,1-3.1,52.4,52.4,0,0,0,9.5-7.8c3.8-3.8,8.4-10,9.2-18.3a24.7,24.7,0,0,0-10.1-22.5,6.8,6.8,0,0,1-1.3-9.4c15.6-21.5,21.3-39.4,16.7-51.6s-17.7-15.1-17.8-15.1a22.3,22.3,0,0,0-17.2,1.6c-10.8,5.9-19.3,21-22.9,33.4a4.4,4.4,0,0,1-4.4,3.2,4.5,4.5,0,0,1-4.2-3.6c-3.5-16.6-9.8-27.3-18.7-32A23.7,23.7,0,0,0,106.7,986.8Z"/><path class="cls-9" d="M115.9,1148.5h-2.8a2,2,0,0,1-1.7-2.1,1.8,1.8,0,0,1,2-1.8c.3,0,26.1,1.9,45.3-17.7a1.9,1.9,0,0,1,2.7,0,1.8,1.8,0,0,1,0,2.7C144.5,1146.9,123.3,1148.5,115.9,1148.5Z"/><path class="cls-9" d="M158.2,1106.2h-.5c-15.6-3.9-25.4-10.2-29-18.7-2.8-6.6-1.8-14.5,2.9-22.8a22.3,22.3,0,0,1,21.9-11.3c12.7,1.5,25.2,8.8,25.7,9.1a1.9,1.9,0,1,1-1.9,3.3c-.1,0-12.4-7.1-24.3-8.6a18.7,18.7,0,0,0-18,9.4c-2.9,5-5.7,12.5-2.7,19.4s12,12.9,26.3,16.5a1.8,1.8,0,0,1,1.4,2.3A1.9,1.9,0,0,1,158.2,1106.2Z"/><path class="cls-25" d="M310,1037.6s56.5-119,203-97l15.9,3.9a7.9,7.9,0,0,1,5.6,10L527,978.6l-217,69.5Z"/><path class="cls-26" d="M277,1100.6s60.5-165.5,257-136l28,7.9a15.9,15.9,0,0,1,11.2,18.7L552,1086.1s15.6,39.1-76.5-31C475.5,1055.1,354,987.6,277,1100.6Z"/><path class="cls-26" d="M187,1343.1s33.6-312.4,211.1-308c0,0,75.9-23.8,150.4,10.8,66.5,30.9,134.1,112.5,142.8,295.6Z"/><path class="cls-26" d="M514,1088s15.9-42.9,30.8-34.6a5.5,5.5,0,0,1,2.1,7.2c-7.3,13.9-30.8,61.2,13.2,9.2a5.3,5.3,0,0,1,7.2-.9c3.5,2.7,4.6,10.1-13.9,30.3a5.5,5.5,0,0,0-1.4,3.2c-.4,4.4,1.4,12.6,28-13.7a5.2,5.2,0,0,1,5.4-1.3c4.6,1.5,10,6-13.2,19.8-25,14.9,29.3.5,29.3.5"/></svg>