<svg xmlns="http://www.w3.org/2000/svg" width="220.241" height="369.971" viewBox="0 0 220.241 369.971">
  <defs>
    <style>
      .cls-1 {
        fill: #306f26;
      }

      .cls-2 {
        fill: #1b1617;
      }

      .cls-3 {
        fill: #f7aa3c;
      }

      .cls-4 {
        fill: #080304;
      }

      .cls-5 {
        fill: #fff;
      }

      .cls-6 {
        fill: #df1c13;
      }

      .cls-7 {
        fill: #0f0c0c;
      }

      .cls-8 {
        fill: #e12f2a;
      }

      .cls-9 {
        fill: #f38729;
      }

      .cls-10 {
        fill: #98c361;
      }

      .cls-11 {
        fill: #de1d39;
      }

      .cls-12 {
        fill: #abcd7c;
      }
    </style>
  </defs>
  <g id="그룹_1257" data-name="그룹 1257" transform="translate(-262.419 -2646.966)">
    <g id="그룹_868" data-name="그룹 868" transform="matrix(0.946, -0.326, 0.326, 0.946, -162.014, 2560.234)">
      <g id="그룹_867" data-name="그룹 867">
        <g id="그룹_830" data-name="그룹 830">
          <rect id="사각형_13" data-name="사각형 13" class="cls-1" width="18.568" height="31.552" rx="6.171" transform="translate(397.017 248.414) rotate(0.179)"/>
          <path id="패스_377" data-name="패스 377" class="cls-2" d="M409.552,280.706l-6.7-.021a6.64,6.64,0,0,1-6.612-6.653l.062-19.688a6.64,6.64,0,0,1,6.653-6.612l6.7.021a6.64,6.64,0,0,1,6.612,6.654l-.062,19.687A6.639,6.639,0,0,1,409.552,280.706Zm-6.605-31.573a5.238,5.238,0,0,0-5.248,5.216l-.061,19.688a5.237,5.237,0,0,0,5.215,5.247l6.7.021a5.237,5.237,0,0,0,5.247-5.215l.062-19.688a5.238,5.238,0,0,0-5.215-5.248Z"/>
        </g>
        <g id="그룹_831" data-name="그룹 831">
          <rect id="사각형_14" data-name="사각형 14" class="cls-1" width="18.568" height="31.552" rx="6.252" transform="translate(415.585 248.472) rotate(0.179)"/>
          <path id="패스_378" data-name="패스 378" class="cls-2" d="M428.12,280.764l-6.7-.021a6.64,6.64,0,0,1-6.612-6.653l.062-19.688a6.64,6.64,0,0,1,6.653-6.612l6.7.021a6.64,6.64,0,0,1,6.612,6.653l-.062,19.688A6.64,6.64,0,0,1,428.12,280.764Zm-6.6-31.573a5.238,5.238,0,0,0-5.248,5.216l-.062,19.687a5.238,5.238,0,0,0,5.216,5.248l6.7.021a5.237,5.237,0,0,0,5.247-5.215l.061-19.688a5.237,5.237,0,0,0-5.215-5.248Z"/>
        </g>
        <g id="그룹_832" data-name="그룹 832">
          <rect id="사각형_15" data-name="사각형 15" class="cls-1" width="18.568" height="31.552" rx="5.164" transform="translate(434.153 248.53) rotate(0.179)"/>
          <path id="패스_379" data-name="패스 379" class="cls-2" d="M446.688,280.822l-6.7-.021a6.64,6.64,0,0,1-6.612-6.653l.061-19.688a6.64,6.64,0,0,1,6.654-6.612l6.7.021a6.639,6.639,0,0,1,6.611,6.653l-.061,19.688A6.64,6.64,0,0,1,446.688,280.822Zm-6.606-31.573a5.237,5.237,0,0,0-5.247,5.215l-.062,19.688a5.238,5.238,0,0,0,5.215,5.248l6.7.021a5.238,5.238,0,0,0,5.248-5.215L452,254.518a5.237,5.237,0,0,0-5.215-5.248Z"/>
        </g>
        <g id="그룹_835" data-name="그룹 835">
          <g id="그룹_833" data-name="그룹 833">
            <path id="패스_380" data-name="패스 380" class="cls-1" d="M428.835,514.192l-.309-27.7-26.994.529s-1.774,5.426-10.37,6.479l0,0c-18.071.8-32.329,10.022-32.364,21.334a14.139,14.139,0,0,0,1.765,6.8,10.322,10.322,0,0,0,9.065,5.4l46.734.146A12.341,12.341,0,0,0,428.839,515.9q.027-.42.029-.843C428.869,514.768,428.853,514.479,428.835,514.192Z"/>
            <path id="패스_381" data-name="패스 381" class="cls-2" d="M416.362,527.884l-46.733-.146a11.008,11.008,0,0,1-9.68-5.769,14.83,14.83,0,0,1-1.849-7.132c.036-11.516,14.5-21.181,32.95-22.027l.027,0c8-.981,9.721-5.8,9.79-6.005l.158-.466.493-.014,27.7-.542.317,28.386c.019.3.034.595.034.894s-.012.593-.031.887A13.013,13.013,0,0,1,416.362,527.884Zm-24.008-33.851.076.114-1.234.059c-17.739.787-31.661,9.851-31.694,20.636a13.424,13.424,0,0,0,1.681,6.462,9.6,9.6,0,0,0,8.45,5.033l46.734.145a11.609,11.609,0,0,0,11.773-10.627c.017-.266.026-.531.027-.8s-.015-.548-.031-.821l0-.035-.3-26.992-25.83.507C401.371,489.064,399.032,492.863,392.354,494.033Z"/>
          </g>
          <g id="그룹_834" data-name="그룹 834">
            <path id="패스_382" data-name="패스 382" class="cls-1" d="M429.249,514.193l.482-27.7,26.99.7s1.74,5.437,10.33,6.543l0,.005c18.066.914,32.266,10.223,32.231,21.535a14.149,14.149,0,0,1-1.807,6.786,10.325,10.325,0,0,1-9.1,5.343l-46.733-.145a12.341,12.341,0,0,1-12.4-11.36q-.025-.42-.024-.843C429.212,514.769,429.23,514.481,429.249,514.193Z"/>
            <path id="패스_383" data-name="패스 383" class="cls-2" d="M488.37,528.108l-46.734-.146a13.012,13.012,0,0,1-13.1-12.018c-.017-.295-.026-.59-.025-.887s.019-.6.039-.894l.494-28.384,28.194.729.152.474c.066.2,1.754,5.032,9.751,6.062l.028,0c18.442.961,32.847,10.717,32.811,22.233a14.837,14.837,0,0,1-1.893,7.12A11.01,11.01,0,0,1,488.37,528.108Zm-57.951-40.892-.471,27.024c-.018.273-.035.546-.036.821s.007.534.022.8a11.61,11.61,0,0,0,11.707,10.7l46.733.146a9.609,9.609,0,0,0,8.482-4.979,13.447,13.447,0,0,0,1.721-6.453c.034-10.784-13.831-19.935-31.565-20.832l-1.236-.063.079-.118c-6.67-1.212-8.986-5.025-9.609-6.378Z"/>
          </g>
        </g>
        <g id="그룹_836" data-name="그룹 836">
          <path id="패스_384" data-name="패스 384" class="cls-3" d="M464.119,491.01l-70.067-.218a8.434,8.434,0,0,1-8.382-8.435L365.379,275.733a8.262,8.262,0,0,1,8.352-9.221l112.107.349a8.441,8.441,0,0,1,8.215,6.745,8.338,8.338,0,0,1,.079,2.528L472.553,482.628A8.432,8.432,0,0,1,464.119,491.01Z"/>
          <path id="패스_385" data-name="패스 385" class="cls-4" d="M464.116,492.061l-70.067-.218a9.47,9.47,0,0,1-9.43-9.434L364.333,275.836a9.331,9.331,0,0,1,.112-2.846,9.5,9.5,0,0,1,9.289-7.529l112.107.349a9.5,9.5,0,0,1,9.243,7.587,9.369,9.369,0,0,1,.094,2.846L473.6,482.686A9.47,9.47,0,0,1,464.116,492.061Zm-90.389-224.5a7.389,7.389,0,0,0-7.225,5.858,7.288,7.288,0,0,0-.077,2.209l20.3,206.677v.054a7.366,7.366,0,0,0,7.334,7.38l70.067.218a7.364,7.364,0,0,0,7.38-7.334l.006-.106,21.579-206.494a7.3,7.3,0,0,0-.063-2.21,7.39,7.39,0,0,0-7.189-5.9Z"/>
        </g>
        <g id="그룹_837" data-name="그룹 837">
          <path id="패스_386" data-name="패스 386" class="cls-4" d="M395.486,320.357a.715.715,0,0,1-.321-.079.7.7,0,0,1-.3-.946c.238-.457,5.894-11.172,11.736-10.511,2.991.34,5.38,3.545,7.108,9.53,3.25-3.244,13.688-13.032,18.881-10.453,2.389,1.185,3.224,4.559,2.537,10.3,4.416-3.26,18.275-12.766,25.3-9.28,2.8,1.391,4.176,4.61,4.083,9.567a.693.693,0,0,1-.713.687.7.7,0,0,1-.688-.714c.082-4.368-1.03-7.155-3.3-8.285-7.46-3.7-24.992,10.019-25.168,10.158a.7.7,0,0,1-1.126-.659c.932-5.917.4-9.553-1.539-10.515-4.179-2.072-14.489,7.269-18.108,11.043a.7.7,0,0,1-1.184-.309c-1.565-6.042-3.72-9.387-6.233-9.674-4.081-.466-8.838,6.893-10.334,9.767A.7.7,0,0,1,395.486,320.357Z"/>
        </g>
        <g id="그룹_838" data-name="그룹 838">
          <path id="패스_387" data-name="패스 387" class="cls-5" d="M437.857,361.975c-.02,6.279-4.3,3.577-4.3,3.577-4.618,1.679-3.768-3.562-3.768-3.562a4.786,4.786,0,0,1,4.012-1.751S437.861,360.763,437.857,361.975Z"/>
          <path id="패스_388" data-name="패스 388" class="cls-4" d="M435.455,366.829a4.625,4.625,0,0,1-1.967-.514,3.377,3.377,0,0,1-3.322-.323c-1.49-1.233-1.119-3.823-1.071-4.114a.7.7,0,0,1,.127-.3,5.537,5.537,0,0,1,4.625-2.035c1.787.23,4.716.845,4.711,2.437-.008,2.36-.607,3.884-1.78,4.529A2.694,2.694,0,0,1,435.455,366.829Zm-1.9-1.978a.7.7,0,0,1,.371.108,2.526,2.526,0,0,0,2.178.318c.677-.375,1.04-1.5,1.05-3.266-.237-.358-1.888-.875-3.448-1.077a4.025,4.025,0,0,0-3.253,1.346c-.068.66-.066,2.08.607,2.635.555.456,1.532.24,2.253-.021A.693.693,0,0,1,433.557,364.851Z"/>
        </g>
        <g id="그룹_839" data-name="그룹 839">
          <path id="패스_389" data-name="패스 389" class="cls-4" d="M433.987,377.042l-.47,0a5.786,5.786,0,0,1-5.762-5.8l.02-6.316a5.787,5.787,0,0,1,5.8-5.763l.469,0a5.787,5.787,0,0,1,5.763,5.8l-.02,6.316A5.787,5.787,0,0,1,433.987,377.042Zm-.418-16.478a4.385,4.385,0,0,0-4.393,4.366l-.02,6.316a4.384,4.384,0,0,0,4.366,4.393l.469,0a4.385,4.385,0,0,0,4.393-4.366l.019-6.316a4.383,4.383,0,0,0-4.365-4.393Z"/>
        </g>
        <g id="그룹_841" data-name="그룹 841">
          <g id="그룹_840" data-name="그룹 840">
            <path id="패스_390" data-name="패스 390" class="cls-6" d="M368.512,310.77c-.152-1-3.6-24.744,7.641-37.767,4.7-5.45,11.264-8.2,19.507-8.174l66.769.208c1.607-.185,16.33-1.578,25.35,8.453,6.979,7.762,8.508,20.093,4.545,36.652l-3.407-.815c3.676-15.358,2.422-26.621-3.727-33.476-8.1-9.03-22.294-7.342-22.435-7.325l-.229.014-66.877-.208c-7.174-.023-12.841,2.319-16.843,6.959-10.2,11.817-6.865,34.725-6.83,34.955Z"/>
            <path id="패스_391" data-name="패스 391" class="cls-4" d="M367.924,311.568l-.105-.693c-.154-1.017-3.636-25.071,7.8-38.33,4.841-5.612,11.583-8.443,20.04-8.417l66.728.208c1.874-.209,16.744-1.508,25.91,8.686,7.142,7.943,8.726,20.487,4.706,37.283l-.163.682-4.77-1.142.163-.681c3.619-15.121,2.419-26.171-3.568-32.845-7.757-8.649-21.261-7.165-21.831-7.1l-.267.019-66.923-.207c-6.96-.022-12.448,2.237-16.311,6.715-9.981,11.569-6.7,34.166-6.667,34.393l.1.693Zm27.734-46.039c-8.029-.025-14.413,2.644-18.975,7.931-10.106,11.715-8.093,32.389-7.573,36.511l2.083-.315c-.474-3.97-2.307-23.94,7.082-34.822,4.143-4.8,9.989-7.226,17.376-7.2l66.877.209.183-.013c.564-.066,14.764-1.627,23,7.556,6.22,6.933,7.581,18.177,4.048,33.425l2.044.489c3.7-15.977,2.176-27.864-4.545-35.338-8.767-9.749-23.14-8.411-24.75-8.226l-.082,0Z"/>
          </g>
        </g>
        <g id="그룹_842" data-name="그룹 842">
          <rect id="사각형_16" data-name="사각형 16" class="cls-1" width="18.568" height="31.552" rx="6.732" transform="matrix(1, 0.003, -0.003, 1, 448.141, 256.515)"/>
          <path id="패스_392" data-name="패스 392" class="cls-2" d="M458.516,288.8l-2.383-.008a8.8,8.8,0,0,1-8.766-8.82l.048-15.367a8.8,8.8,0,0,1,8.821-8.766l2.383.008a8.8,8.8,0,0,1,8.765,8.82l-.048,15.367A8.8,8.8,0,0,1,458.516,288.8Zm-2.285-31.559a7.4,7.4,0,0,0-7.414,7.368l-.048,15.368a7.4,7.4,0,0,0,7.368,7.414l2.383.007a7.4,7.4,0,0,0,7.415-7.368l.048-15.367a7.4,7.4,0,0,0-7.369-7.415Z"/>
        </g>
        <g id="그룹_843" data-name="그룹 843">
          <ellipse id="타원_40" data-name="타원 40" class="cls-3" cx="17.774" cy="14.905" rx="17.774" ry="14.905" transform="translate(485.775 355.135) rotate(-89.821)"/>
          <path id="패스_393" data-name="패스 393" class="cls-4" d="M500.678,355.883c-8.605-.027-15.58-8.337-15.548-18.524s7.058-18.453,15.663-18.426,15.58,8.336,15.548,18.524S509.283,355.909,500.678,355.883Zm.111-35.548c-7.832-.025-14.228,7.614-14.258,17.029s6.319,17.093,14.151,17.117,14.229-7.614,14.258-17.029S508.621,320.359,500.789,320.335Z"/>
        </g>
        <g id="그룹_846" data-name="그룹 846">
          <g id="그룹_844" data-name="그룹 844">
            <path id="패스_394" data-name="패스 394" class="cls-1" d="M496.657,359.023a5.875,5.875,0,0,1-5.85-5.886l.1-31.52a5.868,5.868,0,1,1,11.736.037l-.1,31.519A5.875,5.875,0,0,1,496.657,359.023Z"/>
          </g>
          <g id="그룹_845" data-name="그룹 845">
            <path id="패스_395" data-name="패스 395" class="cls-4" d="M496.789,316.468a5.184,5.184,0,0,1,5.152,5.184l-.1,31.519a5.181,5.181,0,0,1-5.183,5.151h0a5.182,5.182,0,0,1-5.151-5.183l.1-31.519a5.183,5.183,0,0,1,5.183-5.152h0m.005-1.4a6.577,6.577,0,0,0-6.59,6.548l-.1,31.519a6.569,6.569,0,0,0,13.138.041l.1-31.519a6.576,6.576,0,0,0-6.548-6.589Z"/>
          </g>
        </g>
        <g id="그룹_847" data-name="그룹 847">
          <rect id="사각형_17" data-name="사각형 17" class="cls-6" width="15.181" height="58.545" rx="5.916" transform="matrix(1, 0.003, -0.003, 1, 481.896, 308.306)"/>
          <path id="패스_396" data-name="패스 396" class="cls-4" d="M489.3,367.575a8.3,8.3,0,0,1-8.265-8.317l.135-43.364a8.292,8.292,0,0,1,16.583.052l-.136,43.363A8.3,8.3,0,0,1,489.3,367.575Zm.183-58.545a6.9,6.9,0,0,0-6.912,6.869l-.135,43.363a6.89,6.89,0,1,0,13.78.043l.135-43.364A6.9,6.9,0,0,0,489.485,309.03Z"/>
        </g>
        <g id="그룹_848" data-name="그룹 848">
          <ellipse id="타원_41" data-name="타원 41" class="cls-3" cx="17.774" cy="14.905" rx="17.774" ry="14.905" transform="translate(339.874 354.68) rotate(-89.821)"/>
          <path id="패스_397" data-name="패스 397" class="cls-4" d="M354.777,355.428c-8.605-.027-15.58-8.336-15.548-18.524s7.058-18.452,15.663-18.426,15.58,8.337,15.548,18.524S363.382,355.455,354.777,355.428Zm.111-35.548c-7.833-.025-14.229,7.614-14.258,17.029s6.319,17.093,14.152,17.117S369.01,346.412,369.039,337,362.72,319.9,354.888,319.88Z"/>
        </g>
        <g id="그룹_851" data-name="그룹 851">
          <g id="그룹_849" data-name="그룹 849">
            <path id="패스_398" data-name="패스 398" class="cls-1" d="M358.779,358.593a5.874,5.874,0,0,1-5.85-5.886l.1-31.519a5.868,5.868,0,0,1,11.736.036l-.1,31.519A5.875,5.875,0,0,1,358.779,358.593Z"/>
          </g>
          <g id="그룹_850" data-name="그룹 850">
            <path id="패스_399" data-name="패스 399" class="cls-4" d="M358.911,316.039a5.182,5.182,0,0,1,5.152,5.183l-.1,31.519a5.181,5.181,0,0,1-5.183,5.151h0a5.181,5.181,0,0,1-5.151-5.183l.1-31.519a5.182,5.182,0,0,1,5.183-5.151h0m0-1.4a6.577,6.577,0,0,0-6.59,6.548l-.1,31.519a6.569,6.569,0,1,0,13.138.041l.1-31.519a6.576,6.576,0,0,0-6.548-6.589Z"/>
          </g>
        </g>
        <g id="그룹_852" data-name="그룹 852">
          <rect id="사각형_18" data-name="사각형 18" class="cls-6" width="15.181" height="58.545" rx="5.916" transform="matrix(-1, -0.003, 0.003, -1, 373.673, 366.514)"/>
          <path id="패스_400" data-name="패스 400" class="cls-4" d="M366.08,367.191a8.3,8.3,0,0,1-8.266-8.317l.136-43.364a8.291,8.291,0,1,1,16.582.052l-.135,43.363A8.3,8.3,0,0,1,366.08,367.191Zm.182-58.545a6.9,6.9,0,0,0-6.911,6.868l-.135,43.364a6.89,6.89,0,1,0,13.78.043l.135-43.364A6.9,6.9,0,0,0,366.262,308.646Z"/>
        </g>
        <g id="그룹_861" data-name="그룹 861">
          <g id="그룹_856" data-name="그룹 856">
            <g id="그룹_855" data-name="그룹 855">
              <g id="그룹_854" data-name="그룹 854">
                <g id="그룹_853" data-name="그룹 853">
                  <path id="패스_401" data-name="패스 401" class="cls-7" d="M426.026,334.291l73.513-30.13a.935.935,0,0,1,.979,1.562L445.8,354.69a.935.935,0,0,1-1.093.112l-19.636-11.379a.935.935,0,0,0-1,.04l-14.229,9.821a.936.936,0,0,1-1.215-.132l-32.134-34.43a.936.936,0,0,1,1-1.52l47.868,17.105A.938.938,0,0,0,426.026,334.291Z"/>
                </g>
              </g>
            </g>
          </g>
          <g id="그룹_860" data-name="그룹 860">
            <g id="그룹_859" data-name="그룹 859">
              <g id="그룹_858" data-name="그룹 858">
                <g id="그룹_857" data-name="그룹 857">
                  <path id="패스_402" data-name="패스 402" class="cls-5" d="M441.1,351.427l50.873-43.341-6.744,2.775L439.15,350.319Z"/>
                </g>
              </g>
            </g>
          </g>
        </g>
        <g id="그룹_862" data-name="그룹 862">
          <path id="패스_403" data-name="패스 403" class="cls-8" d="M438.1,402.359c-2.717-.008-4.41-.191-4.469-.2a.352.352,0,0,1-.309-.389.359.359,0,0,1,.389-.308c.212.027,21.4,2.312,35.205-9.384a.351.351,0,1,1,.453.535C459.225,401.213,445.188,402.381,438.1,402.359Z"/>
        </g>
        <g id="그룹_863" data-name="그룹 863">
          <path id="패스_404" data-name="패스 404" class="cls-8" d="M438.065,414.871c-2.717-.008-4.41-.191-4.469-.2a.351.351,0,1,1,.08-.7c.212.026,21.4,2.312,35.205-9.384a.351.351,0,0,1,.453.535C459.186,413.725,445.149,414.893,438.065,414.871Z"/>
        </g>
        <g id="그룹_864" data-name="그룹 864">
          <path id="패스_405" data-name="패스 405" class="cls-8" d="M438.029,425.938c-2.716-.009-4.408-.192-4.468-.2a.35.35,0,1,1,.08-.7c.213.025,21.4,2.311,35.206-9.385a.351.351,0,1,1,.453.535C459.15,424.791,445.112,425.96,438.029,425.938Z"/>
        </g>
        <g id="그룹_865" data-name="그룹 865">
          <path id="패스_406" data-name="패스 406" class="cls-9" d="M470.462,428.01c-6.7,10.853-29.511,43.641-65.818,53.716a1.141,1.141,0,0,0,.317,2.241l53.289-.7a7.1,7.1,0,0,0,6.936-6.116l6.778-48.594A.817.817,0,0,0,470.462,428.01Z"/>
        </g>
        <g id="그룹_866" data-name="그룹 866">
          <path id="패스_407" data-name="패스 407" class="cls-9" d="M379.588,302.76a.694.694,0,0,1-1.376-.143c.346-10.862,1.066-31.145,32.753-30.582a.292.292,0,0,1,.05.579C402.934,273.982,383.8,279.644,379.588,302.76Z"/>
        </g>
      </g>
    </g>
    <g id="그룹_829" data-name="그룹 829" transform="translate(-265.611 2955.623) rotate(-38)">
      <g id="그룹_828" data-name="그룹 828" transform="translate(460.208 259.502)">
        <g id="그룹_826" data-name="그룹 826">
          <g id="그룹_806" data-name="그룹 806" transform="translate(9.445 149.941)">
            <path id="패스_357" data-name="패스 357" class="cls-1" d="M533.432,500.674l-.278-23.215-22.625.462s-1.483,4.549-8.687,5.437l0,0c-15.145.684-27.089,8.422-27.111,17.9a11.863,11.863,0,0,0,1.484,5.7,8.656,8.656,0,0,0,7.6,4.52l39.17.09a10.343,10.343,0,0,0,10.447-9.464q.023-.352.024-.707C533.461,501.156,533.447,500.915,533.432,500.674Z" transform="translate(-474.146 -476.86)"/>
            <path id="패스_358" data-name="패스 358" class="cls-2" d="M522.725,511.891l-39.17-.09a9.227,9.227,0,0,1-8.118-4.829A12.426,12.426,0,0,1,473.883,501c.022-9.652,12.137-17.762,27.595-18.485l.03,0c6.755-.833,8.187-4.994,8.2-5.036l.129-.4,23.634-.483.285,23.792c.015.249.029.5.028.749s-.009.5-.025.743A10.907,10.907,0,0,1,522.725,511.891Zm-20.163-28.353.06.093-1.015.05c-14.867.671-26.53,8.279-26.551,17.318a11.27,11.27,0,0,0,1.414,5.416,8.054,8.054,0,0,0,7.086,4.212l39.17.09a9.731,9.731,0,0,0,9.86-8.915q.022-.334.023-.67c0-.231-.013-.46-.028-.689v-.029l-.271-22.623-21.649.442C510.132,479.365,508.171,482.555,502.562,483.538Z" transform="translate(-473.883 -476.592)"/>
          </g>
          <g id="그룹_807" data-name="그룹 807" transform="translate(68.46 149.941)">
            <path id="패스_359" data-name="패스 359" class="cls-1" d="M560.209,500.676l.385-23.213,22.622.566s1.462,4.556,8.662,5.477l0,0c15.143.754,27.051,8.547,27.029,18.028a11.851,11.851,0,0,1-1.511,5.689,8.653,8.653,0,0,1-7.622,4.485l-39.17-.09a10.343,10.343,0,0,1-10.4-9.513q-.022-.352-.021-.707C560.178,501.158,560.192,500.917,560.209,500.676Z" transform="translate(-559.59 -476.861)"/>
            <path id="패스_360" data-name="패스 360" class="cls-2" d="M609.507,512.029l-39.17-.09a10.906,10.906,0,0,1-10.989-10.065c-.015-.247-.022-.494-.021-.743s.015-.5.032-.749l.394-23.79,23.631.591.128.4c.056.169,1.474,4.216,8.178,5.074l.031,0c15.453.795,27.53,8.96,27.508,18.611a12.432,12.432,0,0,1-1.582,5.969A9.226,9.226,0,0,1,609.507,512.029Zm-48.6-34.234-.376,22.651c-.015.229-.03.457-.03.688s.006.448.02.669a9.729,9.729,0,0,0,9.819,8.961l39.17.091a8.052,8.052,0,0,0,7.106-4.179,11.267,11.267,0,0,0,1.438-5.409c.021-9.04-11.606-16.7-26.47-17.439l-1.017-.05.063-.1c-5.6-1.008-7.551-4.207-8.075-5.342Z" transform="translate(-559.327 -476.592)"/>
          </g>
          <g id="그룹_808" data-name="그룹 808" transform="translate(29.33 79.681)">
            <path id="패스_361" data-name="패스 361" class="cls-10" d="M503.627,375.72l-.1,45.372a35.92,35.92,0,0,0,35.732,35.9l6.856.016a35.92,35.92,0,0,0,35.9-35.732l.1-45.372Z" transform="translate(-502.936 -375.132)"/>
            <path id="패스_362" data-name="패스 362" class="cls-2" d="M545.846,457.327l-6.856-.016a36.442,36.442,0,0,1-36.318-36.485l.106-45.959,79.658.182-.106,45.96A36.442,36.442,0,0,1,545.846,457.327Zm-41.9-81.282-.1,44.785a35.267,35.267,0,0,0,35.146,35.308l6.856.015a35.265,35.265,0,0,0,35.307-35.145l.1-44.785Z" transform="translate(-502.673 -374.868)"/>
          </g>
          <g id="그룹_809" data-name="그룹 809" transform="translate(29.351 41.71)">
            <path id="패스_363" data-name="패스 363" class="cls-1" d="M581.747,356.356a35.92,35.92,0,0,0-35.732-35.9l-6.856-.015a35.919,35.919,0,0,0-35.9,35.731l-.005,2.446,78.484.18Z" transform="translate(-502.875 -320.063)"/>
            <path id="패스_364" data-name="패스 364" class="cls-2" d="M581.951,359.014l-79.247-.182.007-2.828a36.236,36.236,0,0,1,36.278-36.112l6.856.015a36.237,36.237,0,0,1,36.112,36.279Zm-78.482-.944,77.72.179,0-2.064a35.472,35.472,0,0,0-35.351-35.514l-6.856-.015a35.472,35.472,0,0,0-35.514,35.35Z" transform="translate(-502.704 -319.892)"/>
          </g>
          <g id="그룹_810" data-name="그룹 810" transform="translate(0 15.172)">
            <path id="패스_365" data-name="패스 365" class="cls-1" d="M511.919,307.76a5.687,5.687,0,0,0-4.7-5.62,5.7,5.7,0,0,0-3.279-10.337,5.591,5.591,0,0,0-1.789.313,5.643,5.643,0,0,0-9.842-5.077,5.642,5.642,0,0,0-11.012-.555,5.628,5.628,0,0,0-3.945-1.629,5.674,5.674,0,0,0-5.306,7.716,5.6,5.6,0,0,0-2.926-.847,5.7,5.7,0,0,0-3.326,10.322,5.689,5.689,0,0,0-.577,11.085,5.7,5.7,0,0,0,3.832,9.88,5.6,5.6,0,0,0,3.355-1.117,5.666,5.666,0,0,0,8.8,7,5.651,5.651,0,0,0,11.11-1.428,5.646,5.646,0,0,0,10.287-4.538,5.687,5.687,0,0,0,5.149-9.7A5.685,5.685,0,0,0,511.919,307.76Z" transform="translate(-460.471 -281.731)"/>
            <path id="패스_366" data-name="패스 366" class="cls-2" d="M486.361,333.411a6.265,6.265,0,0,1-5.7-3.781,6.181,6.181,0,0,1-3.684,1.2,6.284,6.284,0,0,1-6.246-6.309,6.1,6.1,0,0,1,.211-1.579,6.1,6.1,0,0,1-2.164.391,6.284,6.284,0,0,1-6.245-6.308,6.207,6.207,0,0,1,1.383-3.911,6.278,6.278,0,0,1,.4-11.618,6.287,6.287,0,0,1,4.538-10.624,6.072,6.072,0,0,1,2.032.358,5.948,5.948,0,0,1-.075-.948,6.284,6.284,0,0,1,6.275-6.28,6.191,6.191,0,0,1,3.678,1.218,6.221,6.221,0,0,1,11.576.391,6.166,6.166,0,0,1,4.112-1.564,6.284,6.284,0,0,1,6.245,6.308,5.37,5.37,0,0,1-.047.69,5.623,5.623,0,0,1,1.024-.095,6.287,6.287,0,0,1,4.489,10.645,6.278,6.278,0,0,1,.345,11.621,6.209,6.209,0,0,1,1.365,3.917,6.284,6.284,0,0,1-6.274,6.28c-.16,0-.321-.008-.486-.023a5.548,5.548,0,0,1,.092,1.008,6.23,6.23,0,0,1-10.78,4.306A6.293,6.293,0,0,1,486.361,333.411Zm-5.128-5.891.264.957a5.064,5.064,0,0,0,9.956-1.281l.033-2.148,1.064,1.867a5.059,5.059,0,0,0,9.216-4.07l-.311-.984,1.006.235a4.985,4.985,0,0,0,1.14.144,5.111,5.111,0,0,0,3.474-8.848l-.761-.716,1.007-.278a5.1,5.1,0,0,0-.47-9.944l-1.374-.238,1.131-.816a5.115,5.115,0,0,0-2.937-9.273,4.975,4.975,0,0,0-1.6.283l-1.043.347.291-1.06a5.055,5.055,0,0,0-8.818-4.554l-.814,1.014-.222-1.281a5.055,5.055,0,0,0-9.869-.5l-.268.957-.709-.7a5.04,5.04,0,0,0-3.535-1.46,5.087,5.087,0,0,0-4.755,6.923l.6,1.6-1.458-.9a4.974,4.974,0,0,0-2.62-.761,5.115,5.115,0,0,0-2.98,9.26l1.128.821-1.376.232a5.1,5.1,0,0,0-.515,9.942l1,.282-.764.712a5.111,5.111,0,0,0,3.433,8.864,5.012,5.012,0,0,0,3.006-1l2.333-1.724-1.479,2.5a5.058,5.058,0,0,0-.735,2.6,5.11,5.11,0,0,0,5.074,5.132,5.038,5.038,0,0,0,3.541-1.444Z" transform="translate(-460.208 -281.468)"/>
          </g>
          <g id="그룹_811" data-name="그룹 811" transform="translate(87.282 15.372)">
            <path id="패스_367" data-name="패스 367" class="cls-1" d="M638.289,308.051a5.687,5.687,0,0,0-4.7-5.621,5.7,5.7,0,0,0-3.279-10.337,5.581,5.581,0,0,0-1.788.313,5.635,5.635,0,0,0-5.434-7.216,5.625,5.625,0,0,0-4.408,2.139,5.643,5.643,0,0,0-11.012-.555,5.629,5.629,0,0,0-3.945-1.629,5.675,5.675,0,0,0-5.307,7.716,5.6,5.6,0,0,0-2.925-.848,5.7,5.7,0,0,0-3.327,10.322,5.689,5.689,0,0,0-.577,11.085,5.7,5.7,0,0,0,3.832,9.88,5.606,5.606,0,0,0,3.356-1.117,5.666,5.666,0,0,0,8.8,7,5.651,5.651,0,0,0,11.11-1.427,5.646,5.646,0,0,0,10.287-4.538,5.688,5.688,0,0,0,5.149-9.7A5.685,5.685,0,0,0,638.289,308.051Z" transform="translate(-586.841 -282.021)"/>
            <path id="패스_368" data-name="패스 368" class="cls-2" d="M612.731,333.7a6.265,6.265,0,0,1-5.7-3.781,6.185,6.185,0,0,1-3.684,1.2,6.284,6.284,0,0,1-6.246-6.308,6.064,6.064,0,0,1,.211-1.579,6.1,6.1,0,0,1-2.164.39,6.283,6.283,0,0,1-6.246-6.308,6.208,6.208,0,0,1,1.383-3.911,6.278,6.278,0,0,1,.4-11.619,6.287,6.287,0,0,1,4.539-10.624,6.075,6.075,0,0,1,2.031.359,5.956,5.956,0,0,1-.075-.948,6.285,6.285,0,0,1,6.275-6.28,6.189,6.189,0,0,1,3.679,1.219,6.221,6.221,0,0,1,11.576.391,6.16,6.16,0,0,1,4.111-1.565,6.283,6.283,0,0,1,6.246,6.308,5.389,5.389,0,0,1-.047.691,5.5,5.5,0,0,1,1.023-.095,6.287,6.287,0,0,1,4.491,10.645,6.278,6.278,0,0,1,.345,11.62,6.21,6.21,0,0,1,1.365,3.918,6.284,6.284,0,0,1-6.274,6.279c-.16,0-.322-.008-.486-.022a5.615,5.615,0,0,1,.092,1.008A6.231,6.231,0,0,1,618.795,329,6.293,6.293,0,0,1,612.731,333.7ZM607.6,327.81l.263.958a5.064,5.064,0,0,0,9.956-1.281l.033-2.149,1.064,1.868a5.059,5.059,0,0,0,9.216-4.071l-.311-.984,1,.235a4.943,4.943,0,0,0,1.139.144,5.111,5.111,0,0,0,3.474-8.848l-.761-.716,1.007-.278a5.1,5.1,0,0,0-.47-9.943l-1.374-.239,1.131-.816a5.116,5.116,0,0,0-2.937-9.274,4.968,4.968,0,0,0-1.6.283l-1.043.347.291-1.06a5.055,5.055,0,0,0-8.818-4.554l-.814,1.013-.222-1.281a5.056,5.056,0,0,0-9.869-.5l-.268.957-.709-.7a5.039,5.039,0,0,0-3.535-1.46,5.089,5.089,0,0,0-4.755,6.923l.6,1.6-1.458-.894a4.968,4.968,0,0,0-2.619-.762,5.115,5.115,0,0,0-2.98,9.26l1.127.821-1.375.233a5.1,5.1,0,0,0-.516,9.941l1.006.282-.764.713a5.111,5.111,0,0,0,3.433,8.864,5.013,5.013,0,0,0,3.005-1l2.335-1.725-1.48,2.5a5.079,5.079,0,0,0,7.881,6.283Z" transform="translate(-586.578 -281.758)"/>
          </g>
          <g id="그룹_812" data-name="그룹 812" transform="translate(31.738 89.602)">
            <circle id="타원_38" data-name="타원 38" class="cls-11" cx="9.788" cy="9.788" r="9.788"/>
          </g>
          <g id="그룹_813" data-name="그룹 813" transform="translate(84.478 89.724)">
            <circle id="타원_39" data-name="타원 39" class="cls-11" cx="9.788" cy="9.788" r="9.788"/>
          </g>
          <g id="그룹_814" data-name="그룹 814" transform="translate(58.433 100.839)">
            <path id="패스_369" data-name="패스 369" class="cls-11" d="M563.394,408.053c-.007,3.009-3.982,5.44-8.879,5.429s-8.861-2.46-8.854-5.47,3.971-1.007,8.868-1S563.4,405.044,563.394,408.053Z" transform="translate(-545.073 -405.765)"/>
            <path id="패스_370" data-name="패스 370" class="cls-2" d="M554.25,413.805c-5.3-.012-9.448-2.673-9.44-6.058a2.154,2.154,0,0,1,.662-1.707c.9-.783,2.423-.566,4.523-.267a24.07,24.07,0,0,0,8.546.02c2.1-.289,3.621-.5,4.522.288a2.152,2.152,0,0,1,.655,1.709C563.71,411.176,559.551,413.818,554.25,413.805Zm-6.9-7.126a1.767,1.767,0,0,0-1.111.25c-.063.055-.255.22-.256.821-.006,2.681,3.7,4.871,8.268,4.881s8.284-2.162,8.29-4.843c0-.6-.19-.767-.253-.823-.5-.435-2-.227-3.589-.009a25.166,25.166,0,0,1-8.872-.02A19.7,19.7,0,0,0,547.352,406.679Z" transform="translate(-544.81 -405.501)"/>
          </g>
          <g id="그룹_815" data-name="그룹 815" transform="translate(63.047 104.403)">
            <path id="패스_371" data-name="패스 371" class="cls-2" d="M560.943,411.856l-8.867-.021a.587.587,0,1,1,0-1.174l8.867.02a.587.587,0,0,1,0,1.175Z" transform="translate(-551.49 -410.661)"/>
          </g>
          <g id="그룹_824" data-name="그룹 824" transform="translate(25.944 61.521)">
            <g id="그룹_819" data-name="그룹 819">
              <g id="그룹_818" data-name="그룹 818">
                <g id="그룹_817" data-name="그룹 817">
                  <g id="그룹_816" data-name="그룹 816">
                    <path id="패스_372" data-name="패스 372" class="cls-7" d="M539.516,373.943l61.6-25.3a.784.784,0,0,1,.821,1.31L556.1,391.027a.784.784,0,0,1-.916.095L538.719,381.6a.786.786,0,0,0-.839.034l-11.919,8.241a.784.784,0,0,1-1.019-.109l-26.957-28.836a.784.784,0,0,1,.836-1.274l40.132,14.3A.784.784,0,0,0,539.516,373.943Z" transform="translate(-497.77 -348.574)"/>
                  </g>
                </g>
              </g>
            </g>
            <g id="그룹_823" data-name="그룹 823" transform="translate(52.756 3.359)">
              <g id="그룹_822" data-name="그룹 822">
                <g id="그룹_821" data-name="그룹 821">
                  <g id="그룹_820" data-name="그룹 820">
                    <path id="패스_373" data-name="패스 373" class="cls-5" d="M575.792,389.8,618.4,353.437l-5.651,2.33-38.6,33.1Z" transform="translate(-574.153 -353.437)"/>
                  </g>
                </g>
              </g>
            </g>
          </g>
          <g id="그룹_825" data-name="그룹 825" transform="translate(30.966)">
            <path id="패스_374" data-name="패스 374" class="cls-1" d="M579.7,297.054a8.216,8.216,0,0,0-6.826-8.107,8.188,8.188,0,0,0-7.354-14.461,8.187,8.187,0,0,0-14.283-7.324,8.2,8.2,0,0,0-15.98-.8,8.2,8.2,0,0,0-13.425,8.781,8.207,8.207,0,0,0-9.073,13.667,8.2,8.2,0,0,0-.837,15.991,8.206,8.206,0,0,0,10.43,12.642,8.208,8.208,0,0,0,12.764,10.1,8.206,8.206,0,0,0,16.121-2.058,8.183,8.183,0,0,0,14.927-6.546,8.2,8.2,0,0,0,7.472-14A8.209,8.209,0,0,0,579.7,297.054Z" transform="translate(-505.305 -259.765)"/>
            <path id="패스_375" data-name="패스 375" class="cls-2" d="M542.729,333.913a8.827,8.827,0,0,1-8.158-5.61,8.808,8.808,0,0,1-14.258-6.952,8.463,8.463,0,0,1,.456-2.729,8.652,8.652,0,0,1-3.555.755,8.829,8.829,0,0,1-8.8-8.839,8.682,8.682,0,0,1,2.171-5.744,8.78,8.78,0,0,1,.631-16.547,8.8,8.8,0,0,1,6.1-15.178,8.634,8.634,0,0,1,3.3.67,8.377,8.377,0,0,1-.19-1.779,8.809,8.809,0,0,1,14.29-6.885,8.781,8.781,0,0,1,16.564.617,8.718,8.718,0,0,1,6.088-2.466,8.829,8.829,0,0,1,8.8,8.839,7.667,7.667,0,0,1-.122,1.327,8.007,8.007,0,0,1,1.8-.207,8.8,8.8,0,0,1,6.033,15.205,8.78,8.78,0,0,1,.555,16.551,8.677,8.677,0,0,1,2.145,5.753,8.829,8.829,0,0,1-8.839,8.8,7.961,7.961,0,0,1-1.035-.071,7.983,7.983,0,0,1,.2,1.753,8.789,8.789,0,0,1-15.522,5.659A8.855,8.855,0,0,1,542.729,333.913Zm-7.577-7.741.264.952a7.618,7.618,0,0,0,14.967-1.91l.034-2.138,1.063,1.855a7.62,7.62,0,0,0,14.252-3.759,7.544,7.544,0,0,0-.394-2.318l-.313-.984,1.006.233a7.617,7.617,0,0,0,6.938-13l-.767-.717,1.013-.278a7.609,7.609,0,0,0-.708-14.85l-1.383-.239,1.14-.817a7.629,7.629,0,0,0-4.418-13.847,7.567,7.567,0,0,0-2.409.421l-1.042.346.292-1.06a7.533,7.533,0,0,0,.307-2.005,7.613,7.613,0,0,0-13.566-4.793l-.813,1L550.392,267a7.611,7.611,0,0,0-14.837-.743l-.268.95-.707-.69a7.615,7.615,0,0,0-12.466,8.154l.6,1.6-1.459-.889a7.62,7.62,0,0,0-8.423,12.689l1.137.823-1.383.232a7.61,7.61,0,0,0-.776,14.848l1.012.283-.771.714a7.554,7.554,0,0,0-2.464,5.572,7.653,7.653,0,0,0,7.627,7.662,7.567,7.567,0,0,0,4.521-1.5l2.337-1.715-1.486,2.49a7.515,7.515,0,0,0-1.1,3.874,7.635,7.635,0,0,0,12.953,5.505Z" transform="translate(-505.042 -259.502)"/>
          </g>
        </g>
        <g id="그룹_827" data-name="그룹 827" transform="translate(38.443 129.717)">
          <path id="패스_376" data-name="패스 376" class="cls-12" d="M515.879,447.9c1.238,6.019,6.754,23.3,29.382,24.461a.985.985,0,0,0,.555-1.825c-6.62-4.039-21.97-13.946-29.072-23.038A.49.49,0,0,0,515.879,447.9Z" transform="translate(-515.868 -447.311)"/>
        </g>
      </g>
    </g>
  </g>
</svg>
