<svg xmlns="http://www.w3.org/2000/svg" width="259.765" height="175.38" viewBox="0 0 259.765 175.38">
  <defs>
    <style>
      .cls-1 {
        fill: #0a8c5f;
      }

      .cls-2 {
        fill: none;
        stroke: #0a8c5f;
        stroke-linecap: round;
        stroke-linejoin: bevel;
        stroke-width: 6px;
      }
    </style>
  </defs>
  <g id="그룹_1256" data-name="그룹 1256" transform="translate(-970.003 -5728.027)">
    <path id="패스_1693" data-name="패스 1693" class="cls-1" d="M915.671,267.444q-.733-3.464-1.468-6.928c-.493-2.316-1.009-4.626-1.471-6.946a2.835,2.835,0,1,1,5.543-1.118q2.3,10.607,4.565,21.224c.163.759.34,1.517.511,2.275.579,2.572-1.248,4.308-3.807,3.675q-11.421-2.826-22.856-5.6c-1.9-.462-2.969-1.624-2.824-3.149.179-1.869,1.851-2.946,3.879-2.462,2.434.579,4.862,1.185,7.292,1.78,1.807.442,3.611.889,5.419,1.325a8.72,8.72,0,0,0,.927.113,6.378,6.378,0,0,0-.434-.575c-2.643-2.72-5.181-5.554-7.959-8.13-9.4-8.717-20.457-11.567-32.7-7.867-12.516,3.784-20.2,12.494-23.154,25.255a44.681,44.681,0,0,0-.7,6.037c-.143,1.593-.853,2.676-2.117,3.011a2.827,2.827,0,0,1-3.583-2.987,37.073,37.073,0,0,1,4.175-16.893c5.895-11.274,15.07-18.477,27.579-20.851,13.1-2.487,24.678,1.026,34.433,10.175,2.689,2.523,5.176,5.263,7.75,7.908.257.265.478.561.717.843Z" transform="translate(486.961 5193.338) rotate(24)"/>
    <path id="패스_1697" data-name="패스 1697" class="cls-2" d="M-9285.578,7910.167s-5.449,32.522,21.431,22.946l.028-.01.079-.03c.6-.223,9.3-2.7,10.059-3.075,23.793-11.852-15.086-65.712-87.5-52.95-100.013,20.431-87.8,117.34-87.8,117.34" transform="translate(12328.92 957.791) rotate(17)"/>
  </g>
</svg>
