<svg xmlns="http://www.w3.org/2000/svg" width="235.46" height="218.154" viewBox="0 0 235.46 218.154">
  <defs>
    <style>
      .cls-1 {
        fill: #1a1311;
      }
    </style>
  </defs>
  <g id="그룹_1255" data-name="그룹 1255" transform="translate(-1302.57 -5849.388)">
    <g id="그룹_2" data-name="그룹 2" transform="translate(1320.599 5816.36) rotate(11)">
      <g id="그룹_1" data-name="그룹 1" transform="translate(11.036 7.452)">
        <path id="패스_1" data-name="패스 1" class="cls-1" d="M165.606,9.206l1.33.245-1.809,6.768-1.086-.2a7.3,7.3,0,0,0-1.487-4.344A5.922,5.922,0,0,0,158.842,9.5a6.28,6.28,0,0,0-2.97.112,5.973,5.973,0,0,0-2.439,1.432,8.761,8.761,0,0,0-1.834,2.637,15.238,15.238,0,0,0-1.151,3.733,10.7,10.7,0,0,0,.531,6.793,6.1,6.1,0,0,0,4.672,3.205,6.946,6.946,0,0,0,4.764-.638,8.273,8.273,0,0,0,3.344-3.9l1.194.221L163.6,30.451l-1.276-.236L162.337,28a11.355,11.355,0,0,1-7.694,1.08,13.229,13.229,0,0,1-4.344-1.56,9.879,9.879,0,0,1-3.039-2.707,9.328,9.328,0,0,1-1.583-3.675,11.627,11.627,0,0,1,.017-4.433,12.256,12.256,0,0,1,1.645-4.356,10.229,10.229,0,0,1,6.887-4.7,12.633,12.633,0,0,1,4.7.038,10.261,10.261,0,0,1,3.009,1.032,14.958,14.958,0,0,1,2.847,2.07Z" transform="translate(-21.757 -7.452)"/>
        <path id="패스_2" data-name="패스 2" class="cls-1" d="M188.609,17.568a12.453,12.453,0,0,1,3.808,2.783,11.742,11.742,0,0,1,2.353,3.736,10.936,10.936,0,0,1,.731,4.243,10.441,10.441,0,0,1-1.07,4.325,9.711,9.711,0,0,1-2.652,3.381,10.837,10.837,0,0,1-3.743,1.982,11.934,11.934,0,0,1-4.365.443,13.05,13.05,0,0,1-8.309-4,12.106,12.106,0,0,1-2.389-3.693,10.538,10.538,0,0,1-.786-4.162,9.843,9.843,0,0,1,1-4.177A10.46,10.46,0,0,1,175.9,18.9a10.922,10.922,0,0,1,3.771-2.076,11.716,11.716,0,0,1,4.389-.492A12.459,12.459,0,0,1,188.609,17.568ZM179.93,35.6a6.631,6.631,0,0,0,2.88.7,6.24,6.24,0,0,0,2.757-.634,8.108,8.108,0,0,0,2.465-1.909,13.047,13.047,0,0,0,2.033-3.111,14.393,14.393,0,0,0,1.247-3.7,8.977,8.977,0,0,0,.025-3.267,6.161,6.161,0,0,0-1.176-2.649,6.828,6.828,0,0,0-5.237-2.52,6.192,6.192,0,0,0-2.791.739A8.97,8.97,0,0,0,179.6,21.3a14.361,14.361,0,0,0-2.118,3.286,13.056,13.056,0,0,0-1.163,3.53,8.106,8.106,0,0,0,.048,3.118,6.24,6.24,0,0,0,1.211,2.543A6.615,6.615,0,0,0,179.93,35.6Z" transform="translate(-23.888 -8.158)"/>
        <path id="패스_3" data-name="패스 3" class="cls-1" d="M206.332,56.138,208.795,35l-.082-.074-7.9,8.862a19.166,19.166,0,0,0-1.379,1.691,2.667,2.667,0,0,0-.518,1.2,1.48,1.48,0,0,0,.274,1.021,7.436,7.436,0,0,0,.992,1.106l-.734.825-6.121-5.456.734-.825a8.014,8.014,0,0,0,1.346.96,1.755,1.755,0,0,0,1.1.22,2.327,2.327,0,0,0,1.121-.572,14.954,14.954,0,0,0,1.45-1.461l7.386-8.283a13.854,13.854,0,0,0,1.194-1.506,2.831,2.831,0,0,0,.491-1.172,1.61,1.61,0,0,0-.236-1.042,6.457,6.457,0,0,0-.967-1.178l.734-.823,5.75,5.125-2.313,19.315L211.2,53l7.109-7.975a18.837,18.837,0,0,0,1.37-1.682,2.692,2.692,0,0,0,.527-1.213,1.488,1.488,0,0,0-.274-1.021,7.428,7.428,0,0,0-.992-1.107l.734-.825,6.121,5.457-.734.825a8.159,8.159,0,0,0-1.345-.96,1.764,1.764,0,0,0-1.1-.221,2.338,2.338,0,0,0-1.129.584,14.937,14.937,0,0,0-1.442,1.45L209.094,58.6Z" transform="translate(-25.574 -9.13)"/>
        <path id="패스_4" data-name="패스 4" class="cls-1" d="M239.161,73.783l-.649-.993a8.4,8.4,0,0,0,1.664-1.566,3.506,3.506,0,0,0,.71-1.537,3.147,3.147,0,0,0-.146-1.587,8.026,8.026,0,0,0-.883-1.73q-.589-.9-.979-1.422a5.186,5.186,0,0,0-.659-.756.779.779,0,0,0-.469-.237.721.721,0,0,0-.407.134L225.234,72a8.143,8.143,0,0,0-1.2.934,2.009,2.009,0,0,0-.587.995,2.455,2.455,0,0,0,.111,1.279,8.239,8.239,0,0,0,.876,1.77l-.924.6L217.177,67.9l.925-.6a8.318,8.318,0,0,0,1.283,1.535,2.542,2.542,0,0,0,1.137.626,1.951,1.951,0,0,0,1.152-.126,8.1,8.1,0,0,0,1.34-.726l12.109-7.917a.824.824,0,0,0,.294-.306.681.681,0,0,0,0-.479,3.921,3.921,0,0,0-.36-.8q-.275-.5-.773-1.259a18,18,0,0,0-1.124-1.541,3.535,3.535,0,0,0-1.338-1.038,3.208,3.208,0,0,0-1.768-.181,6.662,6.662,0,0,0-2.433,1.046l-.589-.9,5.235-3.094,11.827,18.094Z" transform="translate(-27.476 -11.016)"/>
        <path id="패스_5" data-name="패스 5" class="cls-1" d="M237.49,94.261,234.8,86.926a12.43,12.43,0,0,0-4.257.179.979.979,0,0,0-.771.943,5.919,5.919,0,0,0,.434,1.827l-1.036.379-2.606-7.1,1.037-.379a7.718,7.718,0,0,0,.6,1,3.074,3.074,0,0,0,.657.67,2.419,2.419,0,0,0,.833.385,5.622,5.622,0,0,0,1.1.156l19.58.552.7,1.918L238.213,99.2q-1.122,1.03-1.737,1.68a4.3,4.3,0,0,0-.859,1.227,2.485,2.485,0,0,0-.2,1.189,8.739,8.739,0,0,0,.294,1.524l-1.063.39-3.594-9.8,1.062-.39a6.614,6.614,0,0,0,.917,1.693.857.857,0,0,0,1.029.241,3.5,3.5,0,0,0,.866-.524c.335-.26.743-.6,1.219-1.006Zm-.917-7.31,2.262,6.168,6.76-5.861-.038-.1Z" transform="translate(-28.224 -13.459)"/>
        <path id="패스_6" data-name="패스 6" class="cls-1" d="M258.43,123.259l.15,1.344-7,.227-.122-1.1a7.311,7.311,0,0,0,3.728-2.682,5.933,5.933,0,0,0,1-4.183,6.3,6.3,0,0,0-.967-2.81,5.967,5.967,0,0,0-2.076-1.92,8.728,8.728,0,0,0-3.056-.992,15.178,15.178,0,0,0-3.9-.022,10.709,10.709,0,0,0-6.349,2.474,6.1,6.1,0,0,0-1.715,5.4,6.943,6.943,0,0,0,1.989,4.375,8.269,8.269,0,0,0,4.7,2.072l.135,1.206-7.436.832-.144-1.29,2.124-.626a11.348,11.348,0,0,1-3.26-7.053,13.2,13.2,0,0,1,.234-4.61,9.894,9.894,0,0,1,1.713-3.691,9.326,9.326,0,0,1,3.06-2.579,11.618,11.618,0,0,1,4.247-1.267,12.27,12.27,0,0,1,4.646.315,10.223,10.223,0,0,1,6.489,5.233,12.64,12.64,0,0,1,1.323,4.506,10.263,10.263,0,0,1-.117,3.179,14.961,14.961,0,0,1-1.157,3.325Z" transform="translate(-28.988 -15.334)"/>
        <path id="패스_7" data-name="패스 7" class="cls-1" d="M249.568,155.89l.161-1.177a8.314,8.314,0,0,0,2.283-.089,3.5,3.5,0,0,0,1.545-.693,3.14,3.14,0,0,0,.929-1.294,8,8,0,0,0,.469-1.886q.146-1.067.194-1.715a5.169,5.169,0,0,0,0-1,.775.775,0,0,0-.2-.486.725.725,0,0,0-.395-.167l-14.332-1.97a8,8,0,0,0-1.521-.084,2,2,0,0,0-1.1.364,2.463,2.463,0,0,0-.756,1.038,8.326,8.326,0,0,0-.5,1.91l-1.094-.151,1.576-11.459,1.094.151a8.374,8.374,0,0,0-.039,2,2.553,2.553,0,0,0,.445,1.217,1.952,1.952,0,0,0,.954.661,7.906,7.906,0,0,0,1.488.33l14.331,1.97a.792.792,0,0,0,.422-.04.671.671,0,0,0,.315-.359,4.051,4.051,0,0,0,.256-.843q.117-.556.242-1.458a18.23,18.23,0,0,0,.165-1.9,3.551,3.551,0,0,0-.329-1.661,3.22,3.22,0,0,0-1.216-1.3,6.646,6.646,0,0,0-2.522-.807l.147-1.066,5.979,1.1-2.945,21.414Z" transform="translate(-28.918 -17.539)"/>
        <path id="패스_8" data-name="패스 8" class="cls-1" d="M229.167,187.5a13.878,13.878,0,0,1-3.331-2.3,6.507,6.507,0,0,1-1.708-2.674,6.35,6.35,0,0,1-.12-3.186,14.606,14.606,0,0,1,1.432-3.845q2.047-3.948,4.646-4.914t6.229.911l6.715,3.48q.957.5,1.618.808c.443.209.818.373,1.13.492a4.741,4.741,0,0,0,.792.239,2.249,2.249,0,0,0,.586.04,1.24,1.24,0,0,0,.8-.395,5.543,5.543,0,0,0,.783-1.212l.98.509-4.561,8.8-.98-.508a8.614,8.614,0,0,0,.677-1.577,1.52,1.52,0,0,0-.035-.982,1.807,1.807,0,0,0-.332-.53,3.675,3.675,0,0,0-.647-.551q-.421-.3-1.07-.663c-.432-.247-.968-.534-1.6-.864l-6.421-3.329A6.847,6.847,0,0,0,230,174.29a5.245,5.245,0,0,0-3.235,2.971q-2.617,5.049,3,7.958l5.662,2.936q1.03.533,1.783.877a12.913,12.913,0,0,0,1.313.526,4.926,4.926,0,0,0,.973.223,2.116,2.116,0,0,0,.735-.038,2.311,2.311,0,0,0,.96-.622,6.218,6.218,0,0,0,.934-1.413l.981.508-4.116,7.942L238,195.65a6.206,6.206,0,0,0,.589-1.467,1.573,1.573,0,0,0-.084-1.007,1.884,1.884,0,0,0-.41-.618,5.369,5.369,0,0,0-.781-.653q-.489-.346-1.2-.765t-1.747-.952Z" transform="translate(-28.009 -20.435)"/>
        <path id="패스_9" data-name="패스 9" class="cls-1" d="M222.637,194.107l-.7.814a6.546,6.546,0,0,0-4.494-1.113,6.165,6.165,0,0,0-3.9,2.21A6.715,6.715,0,0,0,212.5,197.6a4.531,4.531,0,0,0-.424,1.567,3.266,3.266,0,0,0,.2,1.414,3.17,3.17,0,0,0,1.84,1.756,2.485,2.485,0,0,0,1.225.018,8.323,8.323,0,0,0,1.737-.6q1.015-.456,2.521-1.269a12.832,12.832,0,0,1,5.306-1.725,5.473,5.473,0,0,1,3.945,1.369,5.6,5.6,0,0,1,1.471,1.928,5.4,5.4,0,0,1,.486,2.265,6.44,6.44,0,0,1-.5,2.414,8.547,8.547,0,0,1-1.492,2.379,7.851,7.851,0,0,1-2.068,1.716,9.782,9.782,0,0,1-2.61.991l.719,1.278-.433.5-4.71-3.671.7-.815a6.994,6.994,0,0,0,3.975.7,4.869,4.869,0,0,0,3.04-1.679,4.336,4.336,0,0,0,1.178-2.649,2.777,2.777,0,0,0-1.853-2.752,2.278,2.278,0,0,0-1.127-.026,7.444,7.444,0,0,0-1.575.535q-.919.409-2.256,1.151a26.539,26.539,0,0,1-3.3,1.512,10.052,10.052,0,0,1-2.694.626,5.926,5.926,0,0,1-2.229-.23,5.335,5.335,0,0,1-1.878-1.078,5.461,5.461,0,0,1-1.545-2.14,5.937,5.937,0,0,1-.392-2.583,8.373,8.373,0,0,1,.716-2.813,11.155,11.155,0,0,1,1.821-2.822,9.138,9.138,0,0,1,2.3-1.956,10.521,10.521,0,0,1,2.9-1.1l-.892-1.5.433-.5Z" transform="translate(-26.883 -21.996)"/>
        <path id="패스_10" data-name="패스 10" class="cls-1" d="M99.727,229.782,88.5,242.962l-7.631-2.6.355-1.044a5.059,5.059,0,0,0,1.457.306,1.553,1.553,0,0,0,1.032-.334,3,3,0,0,0,.792-1.086,17.938,17.938,0,0,0,.756-1.916l3.452-10.141a16.81,16.81,0,0,0,.6-2.1,2.656,2.656,0,0,0-.017-1.319,1.566,1.566,0,0,0-.715-.856,8.909,8.909,0,0,0-1.5-.686l.356-1.046,9.827,3.346-.356,1.045a8.076,8.076,0,0,0-1.613-.36,1.757,1.757,0,0,0-1.1.225,2.336,2.336,0,0,0-.81.964,15.068,15.068,0,0,0-.767,1.91L88.455,239.5l.131.045,12.92-14.907,1.934.658,1.375,19.774.1.036,4.1-12.049a16.773,16.773,0,0,0,.6-2.1,2.653,2.653,0,0,0-.017-1.318,1.555,1.555,0,0,0-.715-.855,8.706,8.706,0,0,0-1.5-.686l.355-1.046,8.049,2.74-.356,1.045a8.258,8.258,0,0,0-1.625-.363,1.762,1.762,0,0,0-1.111.219,2.343,2.343,0,0,0-.81.964,15.168,15.168,0,0,0-.767,1.911l-3.577,10.506a14.067,14.067,0,0,0-.518,1.865,2.956,2.956,0,0,0,0,1.3,1.575,1.575,0,0,0,.618.883,5.135,5.135,0,0,0,1.367.654l-.356,1.045-7.919-2.7-.9-17.309Z" transform="translate(-16.605 -24.415)"/>
        <path id="패스_11" data-name="패스 11" class="cls-1" d="M61.63,228.076a12.44,12.44,0,0,1-3.216-3.448,11.726,11.726,0,0,1-1.609-4.113,10.961,10.961,0,0,1,.079-4.3,10.483,10.483,0,0,1,1.865-4.047,9.727,9.727,0,0,1,3.241-2.821,10.818,10.818,0,0,1,4.048-1.244,11.919,11.919,0,0,1,4.37.387,13.038,13.038,0,0,1,7.409,5.49,12.072,12.072,0,0,1,1.652,4.075,10.54,10.54,0,0,1-.01,4.236,9.854,9.854,0,0,1-1.767,3.914,10.483,10.483,0,0,1-3.329,2.963,10.952,10.952,0,0,1-4.094,1.329,11.7,11.7,0,0,1-4.4-.342A12.449,12.449,0,0,1,61.63,228.076Zm11.916-16.082a6.653,6.653,0,0,0-2.7-1.226,6.211,6.211,0,0,0-2.826.1,8.09,8.09,0,0,0-2.78,1.411,13.039,13.039,0,0,0-2.582,2.672,14.437,14.437,0,0,0-1.921,3.4,9,9,0,0,0-.639,3.205,6.167,6.167,0,0,0,.657,2.822,6.831,6.831,0,0,0,4.669,3.459,6.166,6.166,0,0,0,2.88-.2,8.952,8.952,0,0,0,2.879-1.543,14.364,14.364,0,0,0,2.7-2.829,13.006,13.006,0,0,0,1.806-3.248,8.088,8.088,0,0,0,.54-3.071,6.254,6.254,0,0,0-.712-2.727A6.617,6.617,0,0,0,73.546,211.993Z" transform="translate(-14.672 -23.449)"/>
        <path id="패스_12" data-name="패스 12" class="cls-1" d="M50.717,186.178,44.39,206.5l.067.088,9.4-7.249a19.227,19.227,0,0,0,1.668-1.409,2.663,2.663,0,0,0,.731-1.087,1.483,1.483,0,0,0-.08-1.055,7.39,7.39,0,0,0-.771-1.27l.874-.675,5.007,6.493-.874.675a8.086,8.086,0,0,0-1.145-1.192,1.759,1.759,0,0,0-1.038-.42,2.34,2.34,0,0,0-1.207.356,15.036,15.036,0,0,0-1.7,1.169L46.538,207.7a13.7,13.7,0,0,0-1.452,1.26,2.817,2.817,0,0,0-.7,1.06,1.6,1.6,0,0,0,.04,1.068,6.361,6.361,0,0,0,.733,1.336l-.875.674-4.7-6.1,5.843-18.555-.067-.087L36.9,194.885a19.4,19.4,0,0,0-1.658,1.4,2.7,2.7,0,0,0-.741,1.094,1.487,1.487,0,0,0,.08,1.055,7.5,7.5,0,0,0,.77,1.27l-.874.675-5.006-6.494.874-.673a8.165,8.165,0,0,0,1.145,1.191,1.759,1.759,0,0,0,1.039.42,2.357,2.357,0,0,0,1.217-.364,15.078,15.078,0,0,0,1.685-1.16l13.031-10.047Z" transform="translate(-12.506 -21.472)"/>
        <path id="패스_13" data-name="패스 13" class="cls-1" d="M38.146,160.716,26.4,178.462l.04.1,11.051-4.335a19.3,19.3,0,0,0,2-.886,2.681,2.681,0,0,0,1.006-.839,1.48,1.48,0,0,0,.216-1.034,7.45,7.45,0,0,0-.385-1.436l1.027-.4,2.994,7.633-1.028.4a8.128,8.128,0,0,0-.767-1.465,1.765,1.765,0,0,0-.88-.692,2.334,2.334,0,0,0-1.259,0,15.177,15.177,0,0,0-1.955.648l-10.332,4.054a13.574,13.574,0,0,0-1.747.8,2.843,2.843,0,0,0-.966.824,1.605,1.605,0,0,0-.26,1.036,6.323,6.323,0,0,0,.33,1.486l-1.028.4-2.812-7.17,10.793-16.184-.04-.1-9.947,3.9a19.155,19.155,0,0,0-1.981.881,2.7,2.7,0,0,0-1.019.845,1.475,1.475,0,0,0-.217,1.033,7.416,7.416,0,0,0,.385,1.436l-1.028.4L15.59,162.18l1.028-.4a8.09,8.09,0,0,0,.767,1.462,1.759,1.759,0,0,0,.88.694,2.359,2.359,0,0,0,1.272-.009,15.011,15.011,0,0,0,1.942-.643L36.8,157.272Z" transform="translate(-11.399 -19.401)"/>
        <path id="패스_14" data-name="패스 14" class="cls-1" d="M22.451,144.8q-.206-1.754-.441-2.811a4.206,4.206,0,0,0-.647-1.607,1.9,1.9,0,0,0-1.1-.719,8.1,8.1,0,0,0-1.827-.175l-.119-1.015,8.034-.94.119,1.013a7.8,7.8,0,0,0-1.7.644,2.022,2.022,0,0,0-.9,1,4.135,4.135,0,0,0-.248,1.682q.025,1.041.226,2.767l5.649-.662a4.14,4.14,0,0,0,1.453-.407,2.042,2.042,0,0,0,.882-.9,3.686,3.686,0,0,0,.352-1.515,14.018,14.018,0,0,0-.11-2.238,13.7,13.7,0,0,0-.529-2.62,4.325,4.325,0,0,0-.979-1.707,3.993,3.993,0,0,0-1.6-.979,10.777,10.777,0,0,0-2.4-.469l-.129-1.1,6.33-.3,2.178,18.59-1.1.128a7.669,7.669,0,0,0-.338-1.461,1.7,1.7,0,0,0-.57-.823,1.851,1.851,0,0,0-.98-.3,8.994,8.994,0,0,0-1.576.074l-12.667,1.483a10,10,0,0,0-1.538.278,2.011,2.011,0,0,0-.89.479,1.389,1.389,0,0,0-.374.836,8.088,8.088,0,0,0-.023,1.35l-1.1.129-2.029-17.329,5.351-.822.139,1.18a6.71,6.71,0,0,0-1.845.744,3.1,3.1,0,0,0-1.091,1.127,4,4,0,0,0-.439,1.706,14.435,14.435,0,0,0,.109,2.475l.363,3.1q.083.714.281.858a1.383,1.383,0,0,0,.856.065Z" transform="translate(-11.094 -17.365)"/>
        <path id="패스_15" data-name="패스 15" class="cls-1" d="M29.394,110.193l-14.8-8.974,1.345-7.948,1.09.184a5,5,0,0,0-.07,1.485,1.561,1.561,0,0,0,.494.966,3.012,3.012,0,0,0,1.2.609,18.06,18.06,0,0,0,2.012.439l10.562,1.788A16.963,16.963,0,0,0,33.39,99a2.663,2.663,0,0,0,1.3-.228,1.57,1.57,0,0,0,.731-.842,8.97,8.97,0,0,0,.437-1.592l1.089.184-1.732,10.234-1.089-.184a8.016,8.016,0,0,0,.1-1.649,1.753,1.753,0,0,0-.4-1.047,2.346,2.346,0,0,0-1.08-.646,15,15,0,0,0-2.011-.451l-12.738-2.157-.023.136,16.78,10.373-.34,2.014-19.3,4.516-.019.11,12.549,2.125a16.8,16.8,0,0,0,2.169.255,2.669,2.669,0,0,0,1.3-.228,1.565,1.565,0,0,0,.73-.842,8.9,8.9,0,0,0,.437-1.593l1.089.185-1.418,8.383-1.09-.183a8.361,8.361,0,0,0,.1-1.663,1.773,1.773,0,0,0-.395-1.061,2.329,2.329,0,0,0-1.081-.645,14.861,14.861,0,0,0-2.009-.452L16.529,120.2a14.158,14.158,0,0,0-1.924-.214,2.984,2.984,0,0,0-1.28.2,1.587,1.587,0,0,0-.771.752,5.091,5.091,0,0,0-.428,1.454l-1.09-.185,1.4-8.248L29.376,110.3Z" transform="translate(-11.036 -14.297)"/>
        <path id="패스_16" data-name="패스 16" class="cls-1" d="M43.362,84.192l-3.9,9.054-1.014-.437a6.756,6.756,0,0,0,.43-1.453,1.525,1.525,0,0,0-.176-1.022,2.611,2.611,0,0,0-.914-.844,15.184,15.184,0,0,0-1.846-.915L25.752,84.189a15.862,15.862,0,0,0-1.8-.67,2.971,2.971,0,0,0-1.251-.132,1.478,1.478,0,0,0-.881.477,5.287,5.287,0,0,0-.756,1.162l-1.014-.435,3.676-8.547,1.014.436a5.249,5.249,0,0,0-.324,1.349,1.472,1.472,0,0,0,.26.968,2.973,2.973,0,0,0,.956.816,15.457,15.457,0,0,0,1.725.848l10.194,4.386a16.954,16.954,0,0,0,1.929.724,2.407,2.407,0,0,0,1.241.084,1.6,1.6,0,0,0,.87-.588,6.772,6.772,0,0,0,.759-1.311Z" transform="translate(-11.755 -12.923)"/>
      </g>
    </g>
    <circle id="타원_168" data-name="타원 168" cx="3.5" cy="3.5" r="3.5" transform="matrix(0.978, -0.208, 0.208, 0.978, 1388.077, 5861.956)"/>
    <circle id="타원_169" data-name="타원 169" cx="3.5" cy="3.5" r="3.5" transform="matrix(0.978, -0.208, 0.208, 0.978, 1428.62, 6060.695)"/>
  </g>
</svg>
