<svg xmlns="http://www.w3.org/2000/svg" width="164.683" height="187.808" viewBox="0 0 164.683 187.808">
  <g id="그룹_1254" data-name="그룹 1254" transform="translate(-1233.881 -750.494)">
    <path id="패스_1796" data-name="패스 1796" d="M863.006,470.97s6.45-50.3,88.16-43.882c0,0,75.333,2.116,71.745,66.046,0,0,16.74,110.564-98.052,93.425C924.86,586.558,844.2,566.63,863.006,470.97Z" transform="translate(374.292 349.432)" fill="#f4ba52" stroke="#0f3d1d" stroke-miterlimit="10" stroke-width="1"/>
    <path id="패스_1800" data-name="패스 1800" d="M937.58,426.881l-1.594-22.32s6.775-3.72,6.908,2.922.8,23.649.8,23.649,7.042,4.385,27.1-11.559-10.5,17.538-23.915,17.006c0,0-1.063,9.434,20.992,4.518,0,0-15.678,15.81-26.838-.665,0,0,2.79,12.888-9.566,13.552,0,0,8.37-10.761,4.252-15.013,0,0-21.922,10.363-34.013.132,0,0,23.383,2.658,29.628-4.783,0,0-16.874-6.644-16.741-18.07,0,0-1.86-9.167-6.775-8.635,0,0,7.371-3.533,10.5,8.635S937.58,426.881,937.58,426.881Z" transform="translate(377.831 347.472)" fill="#298035" stroke="#0f3d1d" stroke-miterlimit="10" stroke-width="1"/>
  </g>
</svg>
