<svg xmlns="http://www.w3.org/2000/svg" width="129.613" height="42" viewBox="0 0 129.613 42">
  <g id="그룹_707" data-name="그룹 707" transform="translate(-5.699 -9.486)">
    <g id="그룹_3" data-name="그룹 3" transform="translate(51.811 12.817)">
      <g id="그룹_1" data-name="그룹 1" transform="translate(0 2.673)">
        <path id="패스_1" data-name="패스 1" d="M78.05,34.581A8.5,8.5,0,0,0,75.7,35.647c-.512.293-.085.918.426.624a10.8,10.8,0,0,1,5.8-1.359c3.114,0,5.161,2.093,5.417,5.73.554,6.612-4.223,8.045-9.341,8.045-5.5,0-8.189-2.755-8.871-7.237-.811-4.923-.47-14.768.085-19.654.384-3.085,1.749-4.114,4.478-4.114s4.308,1.029,4.564,4.151C78.6,24.957,78.6,32.965,78.05,34.581Z" transform="translate(-68.655 -17.683)" fill="#fff"/>
      </g>
      <g id="그룹_2" data-name="그룹 2" transform="translate(20.338 0)">
        <path id="패스_2" data-name="패스 2" d="M107.945,47.634c.1-1.559.245-7.1.245-12.508-1.176.1-2.842.1-4.165.1,0,4.142-.049,8.431-.147,11.355-.1,3.119-1.715,5.069-3.919,5.069s-3.478-1.8-3.429-5.069c.1-8.528.344-18.275-.1-26.8-.147-2.68,1.274-4.922,3.331-4.922,1.959,0,3.87.731,4.017,5.263.049,1.706.147,4.873.2,8.528,1.225-.049,2.891-.1,4.214-.049-.049-3.607-.147-6.969-.343-9.308-.294-3.509,1.225-5.253,3.282-5.253,2.009,0,3.821,1.062,3.919,5.594.146,4.532.441,20.7.146,28.006-.146,3.119-1.665,5.069-3.87,5.069S107.749,50.9,107.945,47.634Z" transform="translate(-96.422 -14.034)" fill="#fff"/>
      </g>
    </g>
    <g id="그룹_5" data-name="그룹 5" transform="translate(96.876 12.807)">
      <g id="그룹_4" data-name="그룹 4" transform="translate(0 0)">
        <path id="패스_3" data-name="패스 3" d="M130.471,42.773c-.147-7.6-.392-13.5-.245-22.759.049-2.144,1.274-3.168,3.919-3.266,5.144-.146,11.219-.243,16.118,0,2.646.146,3.821,1.121,3.968,4.192.294,7.066.1,14.23-.049,21.833-.049,3.07-1.274,4.093-5.683,4.385a86.848,86.848,0,0,1-12.346,0C131.745,46.866,130.52,45.843,130.471,42.773Zm7.3-3.9c0,1.364.294,1.51,1.764,1.608a53.264,53.264,0,0,0,5.584,0c1.47-.1,1.715-.244,1.764-1.608.147-3.412.1-10.186-.2-15.157-.049-.731-.2-.926-1.028-.974-1.814-.1-5.292-.049-6.909,0-.833.048-1.028.243-1.028.974C137.673,29.078,137.722,35.462,137.771,38.874ZM163.786,14.02c2.2,0,4.115,1.218,4.458,5.75.441,5.507.49,20.323.147,27.632-.147,3.119-1.372,5.068-3.821,5.068s-3.87-1.8-3.772-5.068c.294-8.528.2-19.981,0-24.465-.049-1.316-.1-3.168-.2-4.776C160.455,15.482,161.385,14.02,163.786,14.02Z" transform="translate(-130.181 -14.02)" fill="#fff"/>
      </g>
    </g>
    <g id="그룹_12" data-name="그룹 12" transform="translate(5.699 9.486)">
      <g id="그룹_6" data-name="그룹 6" transform="translate(5.057 28.911)">
        <path id="패스_4" data-name="패스 4" d="M17.693,49.405c3.023-.522,5.218.16,6.635,2.088a4.706,4.706,0,0,1-.829,5.946c-.5.4-.114,1.165.459.723,4.056-3.133,9.387-6.829,15.127-6.829,2.832,0,5.281,1.044,5.663,4.017.306,3.253-1.3,5.261-5.778,5.824a112.79,112.79,0,0,1-19.517.281c-4.516-.322-6.85-2.249-6.85-5.543C12.6,52.136,14.86,49.887,17.693,49.405Z" transform="translate(-12.603 -49.236)" fill="#fff"/>
      </g>
      <g id="그룹_7" data-name="그룹 7" transform="translate(0 2.556)">
        <path id="패스_5" data-name="패스 5" d="M5.7,34.639c0-1.666,1.078-3.38,4.213-3.283,3.283.1,8.084,1.393,13.179,1.393-.049-1.127-.049-2.3-.049-3.478-2.057,0-4.066-.049-5.879-.1-5.732-.146-6.271-1.567-6.418-5.046a67.087,67.087,0,0,1,.1-7.691c.2-2.156,1.274-3.234,3.919-3.283,8.182-.1,16.707-.343,24.006,0,2.646.1,3.724,1.127,3.919,3.283.2,2.449.2,4.9.2,7.691,0,3.037-.784,4.654-4.7,4.9-2.254.146-4.7.2-7.153.245v3.478c5-.049,9.652-1.393,12.542-1.491,3.332-.1,4.214,1.469,4.263,3.233.049,2.254-1.353,2.92-3.822,3.332-15.12,2.518-18.789,2.518-34,.1C7.058,37.452,5.7,36.647,5.7,34.639ZM19.221,23.147c4.311.1,10.435.2,15.041,0,1.028-.049,1.225-.392,1.225-1.029V20.109c0-.735-.2-.882-1.029-.931-3.38-.245-11.954-.2-15.383,0-.834.049-1.029.245-1.029.98v2.057C18.045,22.9,18.241,23.1,19.221,23.147Z" transform="translate(-5.699 -12.976)" fill="#fff"/>
      </g>
      <g id="그룹_10" data-name="그룹 10" transform="translate(1.934)">
        <g id="그룹_8" data-name="그룹 8" transform="translate(0.163 0.162)">
          <path id="패스_6" data-name="패스 6" d="M30.693,26.292a.574.574,0,0,1-.281-.074L24.2,22.71a.246.246,0,0,0-.122-.032.249.249,0,0,0-.144.045l-4.4,3.11a.57.57,0,0,1-.33.105.579.579,0,0,1-.415-.177L8.722,15.219a.564.564,0,0,1-.114-.617.571.571,0,0,1,.522-.352.581.581,0,0,1,.193.034l14.965,5.156a.245.245,0,0,0,.081.014.239.239,0,0,0,.1-.02L47.332,9.755a.564.564,0,0,1,.759.324.558.558,0,0,1-.15.625L31.08,26.142A.572.572,0,0,1,30.693,26.292Z" transform="translate(-8.562 -9.707)" fill="#1a1818"/>
        </g>
        <g id="그룹_9" data-name="그룹 9">
          <path id="패스_7" data-name="패스 7" d="M47.5,9.81a.412.412,0,0,1,.27.716L30.91,25.963a.41.41,0,0,1-.478.055l-6.216-3.508a.4.4,0,0,0-.2-.053.409.409,0,0,0-.237.075l-4.4,3.11a.411.411,0,0,1-.534-.051L8.78,15.048a.412.412,0,0,1,.29-.7.424.424,0,0,1,.141.024l14.964,5.156a.415.415,0,0,0,.294-.01L47.336,9.846A.428.428,0,0,1,47.5,9.81m0-.324a.756.756,0,0,0-.294.061L24.342,19.224l-.167.309.105-.307L9.316,14.07a.751.751,0,0,0-.245-.042.732.732,0,0,0-.671.45.721.721,0,0,0,.146.793L18.611,25.814a.739.739,0,0,0,.532.227.726.726,0,0,0,.423-.135l4.4-3.11a.084.084,0,0,1,.05-.015.083.083,0,0,1,.042.011L30.272,26.3a.742.742,0,0,0,.361.094.733.733,0,0,0,.5-.193L47.992,10.765a.718.718,0,0,0,.191-.8.741.741,0,0,0-.68-.476Z" transform="translate(-8.34 -9.486)" fill="none"/>
        </g>
      </g>
      <g id="그룹_11" data-name="그룹 11" transform="translate(22.296 1.08)">
        <path id="패스_8" data-name="패스 8" d="M36.771,25.38,53.7,10.96l-3.092,1.4L36.139,25.032Z" transform="translate(-36.139 -10.96)" fill="#fff"/>
      </g>
    </g>
  </g>
</svg>
